<?xml version="1.0" encoding="utf-8"?>
<!-- Generator: Adobe Illustrator 26.2.1, SVG Export Plug-In . SVG Version: 6.00 Build 0)  -->
<svg version="1.1" xmlns="http://www.w3.org/2000/svg" xmlns:xlink="http://www.w3.org/1999/xlink" x="0px" y="0px"
	 viewBox="0 0 1080 1080" style="enable-background:new 0 0 1080 1080;" xml:space="preserve">
<style type="text/css">
	.st0{fill:#A9A8A9;stroke:#000000;stroke-width:3;stroke-linecap:round;stroke-linejoin:round;}
	.st1{fill:#E8E8E8;stroke:#000000;stroke-width:3;stroke-linecap:round;stroke-linejoin:round;}
	.st2{fill:none;stroke:#000000;stroke-width:3;stroke-linecap:round;stroke-linejoin:round;}
</style>
<g id="Layer_2">
	<g>
		<polygon class="st0" points="540.5,549.23 829.18,382.56 829.17,715.89 540.5,882.56 		"/>
		<polygon class="st1" points="540.5,549.23 251.82,382.56 251.83,715.89 540.5,882.56 		"/>
		<polygon class="st1" points="251.82,382.56 540.5,549.23 829.18,382.56 540.5,215.89 		"/>
		<g>
			<polygon class="st1" points="446.68,511.73 410.6,490.89 410.6,474.23 381.73,457.56 381.73,474.23 345.64,453.39 345.64,436.73 
				316.78,420.06 316.78,436.73 280.69,415.89 280.69,399.23 251.82,382.56 251.82,415.89 266.26,424.23 266.26,465.89 
				251.82,457.56 251.82,490.89 266.26,499.23 266.26,540.89 251.82,532.56 251.82,565.89 266.26,574.23 266.26,615.89 
				251.82,607.56 251.82,640.89 266.26,649.23 266.26,690.89 251.82,682.56 251.82,715.89 280.69,732.56 280.69,715.89 
				316.78,736.73 316.78,753.39 345.64,770.06 345.64,753.39 381.73,774.23 381.73,790.89 410.6,807.56 410.6,790.89 446.68,811.73 
				446.68,828.39 475.55,845.06 475.55,828.39 511.63,849.23 511.63,865.89 540.5,882.56 540.5,849.23 526.07,840.89 526.07,799.23 
				540.5,807.56 540.5,774.23 526.07,765.89 526.07,724.23 540.5,732.56 540.5,699.23 526.07,690.89 526.07,649.23 540.5,657.56 
				540.5,624.23 526.07,615.89 526.07,574.23 540.5,582.56 540.5,549.23 511.63,532.56 511.63,549.23 475.55,528.39 475.55,511.73 
				446.68,495.06 			"/>
		</g>
		<g>
			<polygon class="st0" points="540.5,699.23 540.5,657.56 554.93,649.23 554.93,615.89 540.5,624.23 540.5,582.56 554.93,574.23 
				554.93,540.89 569.37,532.56 569.37,549.23 605.45,528.39 605.45,511.73 634.32,495.06 634.32,511.73 670.4,490.89 670.4,474.23 
				699.27,457.56 699.27,474.23 735.36,453.39 735.36,436.73 764.22,420.06 764.22,436.73 800.31,415.89 800.31,399.23 
				814.74,390.89 814.74,424.23 829.17,415.89 829.17,457.56 814.74,465.89 814.74,499.23 829.17,490.89 829.17,532.56 
				814.74,540.89 814.74,574.23 829.17,565.89 829.17,607.56 814.74,615.89 814.74,649.23 829.17,640.89 829.17,682.56 
				814.74,690.89 814.74,724.23 800.31,732.56 800.31,715.89 764.22,736.73 764.22,753.39 735.36,770.06 735.36,753.39 
				699.27,774.23 699.27,790.89 670.4,807.56 670.4,790.89 634.32,811.73 634.32,828.39 605.45,845.06 605.45,828.39 569.37,849.23 
				569.37,865.89 554.93,874.23 554.93,840.89 540.5,849.23 540.5,807.56 554.93,799.23 554.93,765.89 540.5,774.23 540.5,732.56 
				554.93,724.23 554.93,690.89 			"/>
		</g>
		<g>
			<polygon class="st1" points="425.03,465.89 396.16,449.23 381.73,457.56 345.64,436.73 360.08,428.39 331.21,411.73 
				316.78,420.06 280.69,399.23 295.13,390.89 280.69,382.56 295.13,374.23 280.69,365.89 316.78,345.06 331.21,353.39 
				360.08,336.73 345.64,328.39 381.73,307.56 396.16,315.89 425.03,299.23 410.6,290.89 446.68,270.06 461.11,278.39 
				489.98,261.73 475.55,253.39 511.63,232.56 526.07,240.89 540.5,232.56 554.93,240.89 569.37,232.56 605.45,253.39 
				591.02,261.73 619.89,278.39 634.32,270.06 670.4,290.89 655.97,299.23 684.84,315.89 699.27,307.56 735.36,328.39 
				720.92,336.73 749.79,353.39 764.22,345.06 800.31,365.89 785.87,374.23 800.31,382.56 785.87,390.89 800.31,399.23 
				764.22,420.06 749.79,411.73 720.92,428.39 735.36,436.73 699.27,457.56 684.84,449.23 655.97,465.89 670.4,474.23 
				634.32,495.06 619.89,486.73 591.02,503.39 605.45,511.73 569.37,532.56 554.93,524.23 540.5,532.56 526.07,524.23 
				511.63,532.56 475.55,511.73 489.98,503.39 461.11,486.73 446.68,495.06 410.6,474.23 			"/>
		</g>
		<line class="st2" x1="266.26" y1="374.23" x2="280.69" y2="382.56"/>
		<line class="st2" x1="540.5" y1="532.56" x2="554.93" y2="540.89"/>
		<line class="st2" x1="800.31" y1="382.56" x2="814.74" y2="390.89"/>
		<line class="st2" x1="526.07" y1="224.23" x2="540.5" y2="232.56"/>
	</g>
</g>
<g id="Layer_3">
	<polygon class="st0" points="554.93,590.89 540.5,599.23 540.5,582.56 554.93,574.23 554.93,540.89 569.37,532.56 569.37,549.23 
		598.23,532.56 598.23,515.89 627.1,499.23 627.1,515.89 655.97,499.23 655.97,482.56 684.84,465.89 684.84,482.56 713.7,465.89 
		713.7,449.23 742.57,432.56 742.57,449.23 771.44,432.56 771.44,415.89 800.31,399.23 800.31,415.89 829.17,399.23 829.17,382.56 
		843.61,374.23 843.61,407.56 858.04,399.23 858.04,415.89 843.61,424.23 843.61,457.56 554.93,624.23 	"/>
	<g>
		<polygon class="st1" points="497.2,507.56 468.33,490.89 453.9,499.23 425.03,482.56 439.46,474.23 410.6,457.56 396.16,465.89 
			367.3,449.23 381.73,440.89 352.86,424.23 338.43,432.56 309.56,415.89 323.99,407.56 295.13,390.89 280.69,399.23 251.83,382.56 
			266.26,374.23 251.83,365.89 266.26,357.56 251.83,349.23 280.69,332.56 295.13,340.89 323.99,324.23 309.56,315.89 
			338.43,299.23 352.86,307.56 381.73,290.89 367.3,282.56 396.16,265.89 410.6,274.23 439.46,257.56 425.03,249.23 453.9,232.56 
			468.33,240.89 497.2,224.23 482.77,215.89 511.63,199.23 526.07,207.56 540.5,199.23 554.93,207.56 569.37,199.23 598.23,215.89 
			583.8,224.23 612.67,240.89 627.1,232.56 655.97,249.23 641.54,257.56 670.4,274.23 684.84,265.89 713.7,282.56 699.27,290.89 
			728.14,307.56 742.57,299.23 771.44,315.89 757.01,324.23 785.87,340.89 800.31,332.56 829.17,349.23 814.74,357.56 
			829.17,365.89 814.74,374.23 829.17,382.56 800.31,399.23 785.87,390.89 757.01,407.56 771.44,415.89 742.57,432.56 
			728.14,424.23 699.27,440.89 713.7,449.23 684.84,465.89 670.4,457.56 641.54,474.23 655.97,482.56 627.1,499.23 612.67,490.89 
			583.8,507.56 598.23,515.89 569.37,532.56 554.93,524.23 540.5,532.56 526.07,524.23 511.63,532.56 482.77,515.89 		"/>
	</g>
	<g>
		<polygon class="st1" points="222.96,415.89 222.96,449.23 540.5,632.56 540.5,599.23 526.07,590.89 526.07,574.23 540.5,582.56 
			540.5,549.23 511.63,532.56 511.63,549.23 482.77,532.56 482.77,515.89 453.9,499.23 453.9,515.89 425.03,499.23 425.03,482.56 
			396.16,465.89 396.16,482.56 367.3,465.89 367.3,449.23 338.43,432.56 338.43,449.23 309.56,432.56 309.56,415.89 280.69,399.23 
			280.69,415.89 251.83,399.23 251.83,382.56 222.96,365.89 222.96,399.23 237.39,407.56 237.39,424.23 		"/>
	</g>
	<polygon class="st0" points="554.93,540.89 540.5,549.23 540.5,582.56 554.93,574.23 	"/>
	<polygon class="st0" points="554.93,590.89 540.5,599.23 540.5,632.56 554.93,624.23 	"/>
	<polygon class="st0" points="858.04,365.89 843.61,374.23 843.61,407.56 858.04,399.23 	"/>
	<polygon class="st0" points="858.04,415.89 843.61,424.23 843.61,457.56 858.04,449.23 	"/>
	<polygon class="st1" points="540.5,582.56 540.5,599.23 526.07,590.89 526.07,574.23 	"/>
	<polygon class="st1" points="237.39,407.56 237.39,424.22 222.96,415.89 222.96,399.23 	"/>
	<polygon class="st1" points="540.5,532.56 554.93,540.89 540.5,549.23 511.63,532.56 526.07,524.23 	"/>
	<polygon class="st1" points="482.77,499.23 497.2,507.56 482.77,515.89 453.9,499.23 468.33,490.89 	"/>
	<polygon class="st1" points="425.03,465.89 439.46,474.23 425.03,482.56 396.16,465.89 410.6,457.56 	"/>
	<polygon class="st1" points="367.3,432.56 381.73,440.89 367.3,449.23 338.43,432.56 352.86,424.23 	"/>
	<polygon class="st1" points="309.56,399.23 323.99,407.56 309.56,415.89 280.69,399.23 295.13,390.89 	"/>
	<polygon class="st1" points="251.83,365.89 266.26,374.23 251.83,382.56 222.96,365.89 237.39,357.56 	"/>
	<polygon class="st1" points="843.61,357.56 858.04,365.89 843.61,374.23 814.74,357.56 829.17,349.23 	"/>
	<polygon class="st1" points="785.87,324.23 800.31,332.56 785.87,340.89 757.01,324.23 771.44,315.89 	"/>
	<polygon class="st1" points="728.14,290.89 742.57,299.23 728.14,307.56 699.27,290.89 713.7,282.56 	"/>
	<polygon class="st1" points="670.4,257.56 684.84,265.89 670.4,274.23 641.54,257.56 655.97,249.23 	"/>
	<polygon class="st1" points="612.67,224.23 627.1,232.56 612.67,240.89 583.8,224.23 598.23,215.89 	"/>
	<polygon class="st1" points="554.93,190.89 569.37,199.23 554.93,207.56 526.07,190.89 540.5,182.56 	"/>
	<polygon class="st1" points="569.37,532.56 554.93,540.89 540.5,532.56 554.93,524.23 	"/>
	<polygon class="st1" points="266.26,357.56 251.83,365.89 237.39,357.56 251.83,349.23 	"/>
	<polygon class="st1" points="540.5,199.23 526.07,207.56 511.63,199.23 526.07,190.89 	"/>
	<polygon class="st1" points="309.56,315.89 280.69,332.56 295.13,340.89 323.99,324.23 	"/>
	<polygon class="st1" points="367.3,282.56 338.43,299.23 352.86,307.56 381.73,290.89 	"/>
	<polygon class="st1" points="425.03,249.23 396.16,265.89 410.6,274.23 439.46,257.56 	"/>
	<polygon class="st1" points="482.76,215.89 453.9,232.56 468.33,240.89 497.2,224.23 	"/>
	<polygon class="st1" points="843.61,374.22 829.18,382.56 814.74,374.22 829.18,365.89 	"/>
	<polygon class="st1" points="612.67,490.89 583.8,507.56 598.24,515.89 627.1,499.23 	"/>
	<polygon class="st1" points="670.4,457.56 641.54,474.23 655.97,482.56 684.84,465.89 	"/>
	<polygon class="st1" points="728.14,424.23 699.27,440.89 713.71,449.23 742.57,432.56 	"/>
	<polygon class="st1" points="785.87,390.89 757.01,407.56 771.44,415.89 800.31,399.23 	"/>
	<polygon class="st0" points="598.24,515.89 569.37,532.56 569.37,549.23 598.23,532.56 	"/>
	<polygon class="st0" points="655.97,482.56 627.1,499.23 627.1,515.89 655.97,499.23 	"/>
	<polygon class="st0" points="713.71,449.23 684.84,465.89 684.84,482.56 713.7,465.89 	"/>
	<polygon class="st0" points="771.44,415.89 742.57,432.56 742.57,449.23 771.44,432.56 	"/>
	<polygon class="st0" points="829.18,382.56 800.31,399.23 800.31,415.89 829.17,399.23 	"/>
	<polygon class="st1" points="482.76,515.89 511.63,532.56 511.63,549.23 482.77,532.56 	"/>
	<polygon class="st1" points="425.03,482.56 453.9,499.23 453.9,515.89 425.03,499.23 	"/>
	<polygon class="st1" points="367.29,449.23 396.16,465.89 396.16,482.56 367.3,465.89 	"/>
	<polygon class="st1" points="309.56,415.89 338.43,432.56 338.43,449.23 309.56,432.56 	"/>
	<polygon class="st1" points="251.82,382.56 280.69,399.23 280.69,415.89 251.83,399.23 	"/>
</g>
</svg>
