<?xml version="1.0" encoding="utf-8"?>
<!-- Generator: Adobe Illustrator 26.2.1, SVG Export Plug-In . SVG Version: 6.00 Build 0)  -->
<svg version="1.1" xmlns="http://www.w3.org/2000/svg" xmlns:xlink="http://www.w3.org/1999/xlink" x="0px" y="0px"
	 viewBox="0 0 1080 1080" style="enable-background:new 0 0 1080 1080;" xml:space="preserve">
<style type="text/css">
	.st0{fill:#A9A8A9;stroke:#000000;stroke-width:3;stroke-linecap:round;stroke-linejoin:round;}
	.st1{fill:#E8E8E8;stroke:#000000;stroke-width:3;stroke-linecap:round;stroke-linejoin:round;}
	.st2{fill:none;stroke:#000000;stroke-width:3;stroke-linecap:round;stroke-linejoin:round;}
</style>
<g id="Layer_3">
	<polygon class="st0" points="540.5,540.5 843.61,365.5 843.61,715.5 540.5,890.5 	"/>
	<polygon class="st1" points="540.5,540.5 237.39,365.5 237.39,715.5 540.5,890.5 	"/>
	<polygon class="st1" points="237.39,365.5 540.5,540.5 843.61,365.5 540.5,190.5 	"/>
</g>
<g id="Layer_2">
	<g>
		<polygon class="st1" points="441.99,501.13 404.1,479.25 404.1,461.75 373.79,444.25 373.79,461.75 335.9,439.88 335.9,422.38 
			305.59,404.88 305.59,422.38 267.7,400.5 267.7,383 237.39,365.5 237.39,400.5 252.55,409.25 252.55,453 237.39,444.25 
			237.39,479.25 252.55,488 252.55,531.75 237.39,523 237.39,558 252.55,566.75 252.55,610.5 237.39,601.75 237.39,636.75 
			252.55,645.5 252.55,689.25 237.39,680.5 237.39,715.5 267.7,733 267.7,715.5 305.59,737.38 305.59,754.88 335.9,772.38 
			335.9,754.88 373.79,776.75 373.79,794.25 404.1,811.75 404.1,794.25 441.99,816.12 441.99,833.62 472.3,851.12 472.3,833.62 
			510.19,855.5 510.19,873 540.5,890.5 540.5,855.5 525.34,846.75 525.34,803 540.5,811.75 540.5,776.75 525.34,768 525.34,724.25 
			540.5,733 540.5,698 525.34,689.25 525.34,645.5 540.5,654.25 540.5,619.25 525.34,610.5 525.34,566.75 540.5,575.5 540.5,540.5 
			510.19,523 510.19,540.5 472.3,518.63 472.3,501.13 441.99,483.63 		"/>
	</g>
	<g>
		<polygon class="st0" points="540.5,698 540.5,654.25 555.66,645.5 555.66,610.5 540.5,619.25 540.5,575.5 555.66,566.75 
			555.66,531.75 570.81,523 570.81,540.5 608.7,518.63 608.7,501.13 639.01,483.63 639.01,501.13 676.9,479.25 676.9,461.75 
			707.21,444.25 707.21,461.75 745.1,439.88 745.1,422.38 775.41,404.88 775.41,422.38 813.3,400.5 813.3,383 828.45,374.25 
			828.45,409.25 843.61,400.5 843.61,444.25 828.45,453 828.45,488 843.61,479.25 843.61,523 828.45,531.75 828.45,566.75 
			843.61,558 843.61,601.75 828.45,610.5 828.45,645.5 843.61,636.75 843.61,680.5 828.45,689.25 828.45,724.25 813.3,733 
			813.3,715.5 775.41,737.38 775.41,754.88 745.1,772.38 745.1,754.88 707.21,776.75 707.21,794.25 676.9,811.75 676.9,794.25 
			639.01,816.12 639.01,833.62 608.7,851.12 608.7,833.62 570.81,855.5 570.81,873 555.66,881.75 555.66,846.75 540.5,855.5 
			540.5,811.75 555.66,803 555.66,768 540.5,776.75 540.5,733 555.66,724.25 555.66,689.25 		"/>
	</g>
	<g>
		<polygon class="st1" points="419.26,453 388.95,435.5 373.79,444.25 335.9,422.38 351.06,413.62 320.75,396.12 305.59,404.88 
			267.7,383 282.86,374.25 267.7,365.5 282.86,356.75 267.7,348 305.59,326.12 320.75,334.88 351.06,317.38 335.9,308.62 
			373.79,286.75 388.95,295.5 419.26,278 404.1,269.25 441.99,247.37 457.14,256.13 487.46,238.63 472.3,229.87 510.19,208 
			525.34,216.75 540.5,208 555.66,216.75 570.81,208 608.7,229.87 593.54,238.63 623.86,256.13 639.01,247.37 676.9,269.25 
			661.74,278 692.05,295.5 707.21,286.75 745.1,308.62 729.94,317.38 760.25,334.88 775.41,326.12 813.3,348 798.14,356.75 
			813.3,365.5 798.14,374.25 813.3,383 775.41,404.88 760.25,396.12 729.94,413.62 745.1,422.38 707.21,444.25 692.05,435.5 
			661.74,453 676.9,461.75 639.01,483.63 623.86,474.87 593.54,492.37 608.7,501.13 570.81,523 555.66,514.25 540.5,523 
			525.34,514.25 510.19,523 472.3,501.13 487.46,492.37 457.14,474.87 441.99,483.63 404.1,461.75 		"/>
	</g>
	<line class="st2" x1="252.55" y1="356.75" x2="267.7" y2="365.5"/>
	<line class="st2" x1="540.5" y1="523" x2="555.66" y2="531.75"/>
	<line class="st2" x1="813.3" y1="365.5" x2="828.45" y2="374.25"/>
	<line class="st2" x1="525.34" y1="199.25" x2="540.5" y2="208"/>
</g>
</svg>
