<?xml version="1.0" encoding="utf-8"?>
<!-- Generator: Adobe Illustrator 26.2.1, SVG Export Plug-In . SVG Version: 6.00 Build 0)  -->
<svg version="1.1" xmlns="http://www.w3.org/2000/svg" xmlns:xlink="http://www.w3.org/1999/xlink" x="0px" y="0px"
	 viewBox="0 0 1080 1080" style="enable-background:new 0 0 1080 1080;" xml:space="preserve">
<style type="text/css">
	.st0{display:none;}
	.st1{display:inline;}
	.st2{fill:none;stroke:#000000;stroke-linecap:round;stroke-linejoin:round;}
	.st3{fill:#313845;stroke:#313845;stroke-width:0.5;stroke-linecap:round;stroke-linejoin:round;}
	.st4{fill:#A9A8A9;stroke:#000000;stroke-width:3;stroke-linecap:round;stroke-linejoin:round;}
	.st5{fill:#E8E8E8;stroke:#000000;stroke-width:3;stroke-linecap:round;stroke-linejoin:round;}
	.st6{fill:none;stroke:#000000;stroke-width:3;stroke-linecap:round;stroke-linejoin:round;}
</style>
<g id="Layer_1" class="st0">
	<g class="st1">
		<line class="st2" x1="843.11" y1="365.79" x2="843.11" y2="400.73"/>
		<polyline class="st2" points="827.98,422.57 843.11,444.41 843.11,479.35 		"/>
		<polyline class="st2" points="827.98,501.19 843.11,523.03 843.11,557.97 		"/>
		<polyline class="st2" points="827.98,579.81 843.11,601.65 843.11,636.59 		"/>
		<polyline class="st2" points="827.98,658.43 843.11,680.27 843.11,715.21 		"/>
		<polyline class="st2" points="540.5,204.18 570.76,208.55 570.76,226.02 601.02,243.49 		"/>
		<polyline class="st2" points="608.59,230.39 638.85,247.86 638.85,265.33 669.11,282.8 		"/>
		<polyline class="st2" points="676.67,269.7 706.94,287.17 706.94,304.64 737.2,322.11 		"/>
		<polyline class="st2" points="744.76,309.01 775.02,326.48 775.02,343.95 805.28,361.42 		"/>
		<path class="st2" d="M827.98,374.52v34.94l-15.13-8.74v43.68l15.13,8.74v34.94l-15.13-8.74v43.68l15.13,8.74v34.94l-15.13-8.74
			v43.68l15.13,8.74v34.94l-15.13-8.74v43.68l15.13,8.74v34.94l-30.26-17.47v-17.47l-37.83-21.84v17.47l-30.26-17.47v-17.47
			l-37.83-21.84v17.47l-30.26-17.47v-17.47l-37.83-21.84v17.47l-30.26-17.47v-17.47l-37.83-21.84v17.47l-30.26-17.47v-34.94
			l15.13,8.74v-43.68l-15.13-8.74v-34.94l15.13,8.74v-43.68L525.37,392v-34.94l15.13,8.74v-43.68l-15.13-8.74v-34.94l15.13,8.74
			v-43.68l-15.13-8.74v-34.94l30.26,17.47v17.47l37.83,21.84v-17.47l30.26,17.47v17.47l37.83,21.84v-17.47l30.26,17.47v17.47
			l37.83,21.84v-17.47l30.26,17.47v17.47l37.83,21.84C797.72,374.52,797.72,357.05,827.98,374.52z"/>
		<line class="st2" x1="843.11" y1="365.79" x2="827.98" y2="374.52"/>
		<line class="st2" x1="843.11" y1="636.59" x2="827.98" y2="645.33"/>
		<line class="st2" x1="540.5" y1="269.7" x2="525.37" y2="278.43"/>
		<line class="st2" x1="706.94" y1="304.64" x2="691.8" y2="313.37"/>
		<line class="st2" x1="827.98" y1="409.47" x2="827.98" y2="435.67"/>
		<line class="st2" x1="827.98" y1="488.09" x2="827.98" y2="514.29"/>
		<line class="st2" x1="827.98" y1="566.71" x2="827.98" y2="592.91"/>
		<line class="st2" x1="827.98" y1="645.33" x2="827.98" y2="671.53"/>
	</g>
	<g class="st1">
		<line class="st2" x1="253.02" y1="706.48" x2="253.02" y2="689.01"/>
		<polyline class="st2" points="237.89,680.27 237.89,636.59 253.02,627.86 253.02,610.38 		"/>
		<polyline class="st2" points="237.89,601.65 237.89,557.97 253.02,549.24 253.02,531.76 		"/>
		<polyline class="st2" points="237.89,523.03 237.89,479.35 253.02,470.62 253.02,453.14 		"/>
		<polyline class="st2" points="237.89,444.41 237.89,400.73 253.02,392 253.02,357.05 268.15,348.32 		"/>
		<polyline class="st2" points="305.98,343.95 305.98,326.48 336.24,309.01 		"/>
		<polyline class="st2" points="374.06,304.64 374.06,287.17 404.33,269.7 		"/>
		<polyline class="st2" points="442.15,265.33 442.15,247.86 472.41,230.39 		"/>
		<polyline class="st2" points="510.24,226.02 510.24,208.55 525.37,199.81 		"/>
		<path class="st2" d="M540.5,557.97l-15.13,8.74v-17.47l-37.83,21.84v17.47l-30.26,17.47v-17.47l-37.83,21.84v17.47l-30.26,17.47
			v-17.47l-37.83,21.84v17.47l-30.26,17.47v-17.47l-37.83,21.84v17.47l-15.13,8.74v-34.94l-15.13,8.74v-43.68l15.13-8.74v-34.94
			l-15.13,8.74v-43.68l15.13-8.74v-34.94l-15.13,8.74v-43.68l15.13-8.74v-34.94l-15.13,8.74v-43.68l15.13-8.74v-34.94l15.13-8.74
			v17.47l37.83-21.84v-17.47l30.26-17.47v17.47l37.83-21.84V295.9l30.26-17.47v17.47l37.83-21.84v-17.47l30.26-17.47v17.47
			l37.83-21.84v-17.47l15.13-8.74v34.94l15.13-8.74v43.68l-15.13,8.74v34.94l15.13-8.74v43.68l-15.13,8.74v34.94l15.13-8.74v43.68
			l-15.13,8.74v34.94l15.13-8.74v43.68C555.63,514.29,540.5,523.03,540.5,557.97z"/>
		<line class="st2" x1="305.98" y1="675.9" x2="321.11" y2="684.64"/>
		<line class="st2" x1="237.89" y1="636.59" x2="253.02" y2="645.33"/>
		<line class="st2" x1="237.89" y1="523.03" x2="253.02" y2="531.76"/>
		<line class="st2" x1="253.02" y1="357.05" x2="268.15" y2="365.79"/>
		<line class="st2" x1="472.41" y1="230.39" x2="487.54" y2="239.12"/>
		<line class="st2" x1="540.5" y1="383.26" x2="555.63" y2="392"/>
		<line class="st2" x1="283.28" y1="357.05" x2="305.98" y2="343.95"/>
		<line class="st2" x1="351.37" y1="317.74" x2="374.06" y2="304.64"/>
		<line class="st2" x1="419.46" y1="278.43" x2="442.15" y2="265.33"/>
		<line class="st2" x1="487.54" y1="239.12" x2="510.24" y2="226.02"/>
	</g>
	<g class="st1">
		<polyline class="st2" points="237.89,680.27 237.89,636.59 253.02,627.86 253.02,610.38 		"/>
		<polyline class="st2" points="237.89,523.03 237.89,479.35 253.02,470.62 253.02,453.14 		"/>
		<polyline class="st2" points="237.89,444.41 237.89,400.73 253.02,392 253.02,357.05 268.15,348.32 		"/>
		<polyline class="st2" points="237.89,601.65 237.89,557.97 253.02,549.24 253.02,531.76 		"/>
		<polyline class="st2" points="351.37,317.74 374.06,304.64 374.06,287.17 404.33,269.7 		"/>
		<polyline class="st2" points="283.28,357.05 305.98,343.95 305.98,326.48 336.24,309.01 		"/>
		<polyline class="st2" points="419.46,278.43 442.15,265.33 442.15,247.86 472.41,230.39 		"/>
		<polyline class="st2" points="487.54,239.12 510.24,226.02 510.24,208.55 525.37,199.81 		"/>
		<line class="st2" x1="253.02" y1="706.48" x2="253.02" y2="689.01"/>
	</g>
	<g class="st1">
		<polygon class="st3" points="510.24,557.97 510.24,540.5 525.37,549.24 525.37,566.71 		"/>
		<polygon class="st3" points="525.37,470.62 540.5,461.88 555.63,470.62 540.5,479.35 		"/>
		<polygon class="st3" points="442.15,597.28 442.15,579.81 457.28,588.55 457.28,606.02 		"/>
		<polygon class="st3" points="525.37,392 540.5,383.26 555.63,392 540.5,400.73 		"/>
		<polygon class="st3" points="540.5,348.32 525.37,357.05 540.5,365.79 555.63,357.05 		"/>
		<polygon class="st3" points="336.24,640.96 336.24,658.43 351.37,667.17 351.37,649.69 		"/>
		<polygon class="st3" points="540.5,269.7 525.37,278.43 540.5,287.17 555.63,278.43 		"/>
		<polygon class="st3" points="268.15,680.27 268.15,697.74 283.28,706.48 283.28,689.01 		"/>
		<polygon class="st3" points="510.24,226.02 510.24,208.55 525.37,217.28 525.37,234.75 		"/>
		<polygon class="st3" points="237.89,636.59 253.02,627.86 268.15,636.59 253.02,645.33 		"/>
		<polygon class="st3" points="442.15,265.33 442.15,247.86 457.28,256.59 457.28,274.06 		"/>
		<polygon class="st3" points="237.89,557.97 253.02,549.24 268.15,557.97 253.02,566.71 		"/>
	</g>
	<g class="st1">
		<polyline class="st2" points="351.37,335.21 389.2,313.37 389.2,295.9 419.46,278.43 		"/>
		<polyline class="st2" points="253.02,610.38 253.02,566.71 268.15,557.97 268.15,523.03 		"/>
		<polyline class="st2" points="253.02,689.01 253.02,645.33 268.15,636.59 268.15,601.65 		"/>
		<polyline class="st2" points="487.54,256.59 525.37,234.75 525.37,217.28 540.5,208.55 		"/>
		<polyline class="st2" points="253.02,453.14 253.02,409.47 268.15,400.73 268.15,365.79 283.28,357.05 		"/>
		<polyline class="st2" points="419.46,295.9 457.28,274.06 457.28,256.59 487.54,239.12 		"/>
		<polyline class="st2" points="253.02,531.76 253.02,488.09 268.15,479.35 268.15,444.41 		"/>
		<polyline class="st2" points="283.28,374.52 321.11,352.68 321.11,335.21 351.37,317.74 		"/>
		<polyline class="st2" points="540.5,287.17 540.5,304.64 555.63,313.37 555.63,357.05 540.5,365.79 540.5,383.26 555.63,392 
			555.63,435.67 540.5,444.41 540.5,461.88 555.63,470.62 555.63,514.29 540.5,523.03 540.5,557.97 525.37,566.71 510.24,557.97 
			487.54,571.07 487.54,588.55 457.28,606.02 442.15,597.28 419.46,610.38 419.46,627.86 389.2,645.33 374.06,636.59 351.37,649.69 
			351.37,667.17 321.11,684.64 305.98,675.9 283.28,689.01 283.28,706.48 268.15,715.21 253.02,706.48 253.02,689.01 237.89,680.27 
			237.89,636.59 253.02,627.86 253.02,610.38 237.89,601.65 237.89,557.97 253.02,549.24 253.02,531.76 237.89,523.03 
			237.89,479.35 253.02,470.62 253.02,453.14 237.89,444.41 237.89,400.73 253.02,392 253.02,357.05 268.15,348.32 283.28,357.05 
			305.98,343.95 305.98,326.48 336.24,309.01 351.37,317.74 374.06,304.64 374.06,287.17 404.33,269.7 419.46,278.43 442.15,265.33 
			442.15,247.86 472.41,230.39 487.54,239.12 510.24,226.02 510.24,208.55 525.37,199.81 540.5,208.55 540.5,226.02 555.63,234.75 
			555.63,278.43 540.5,287.17 		"/>
	</g>
	<g class="st1">
		<polyline class="st2" points="540.5,191.08 570.76,208.55 570.76,226.02 593.46,239.12 		"/>
		<polyline class="st2" points="676.67,269.7 706.94,287.17 706.94,304.64 729.63,317.74 		"/>
		<polyline class="st2" points="744.76,309.01 775.02,326.48 775.02,343.95 797.72,357.05 		"/>
		<polyline class="st2" points="812.85,348.32 843.11,365.79 843.11,400.73 		"/>
		<polyline class="st2" points="608.59,230.39 638.85,247.86 638.85,265.33 661.54,278.43 		"/>
		<polyline class="st2" points="827.98,645.33 827.98,671.53 843.11,680.27 843.11,715.21 		"/>
		<polyline class="st2" points="827.98,566.71 827.98,592.91 843.11,601.65 843.11,636.59 		"/>
		<polyline class="st2" points="827.98,488.09 827.98,514.29 843.11,523.03 843.11,557.97 		"/>
		<polyline class="st2" points="827.98,409.47 827.98,435.67 843.11,444.41 843.11,479.35 		"/>
	</g>
	<g class="st1">
		<polygon class="st3" points="540.5,505.56 555.63,514.29 540.5,523.03 525.37,514.29 		"/>
		<polygon class="st3" points="570.76,540.5 570.76,557.97 555.63,566.71 555.63,549.24 		"/>
		<polygon class="st3" points="540.5,426.94 555.63,435.67 540.5,444.41 525.37,435.67 		"/>
		<polygon class="st3" points="638.85,579.81 638.85,597.28 623.72,606.02 623.72,588.55 		"/>
		<polygon class="st3" points="555.63,313.37 540.5,304.64 525.37,313.37 540.5,322.11 		"/>
		<polygon class="st3" points="744.76,658.43 744.76,640.96 729.63,649.69 729.63,667.17 		"/>
		<polygon class="st3" points="555.63,234.75 540.5,226.02 525.37,234.75 540.5,243.49 		"/>
		<polygon class="st3" points="812.85,697.74 812.85,680.27 797.72,689.01 797.72,706.48 		"/>
		<polygon class="st3" points="570.76,208.55 570.76,226.02 555.63,234.75 555.63,217.28 		"/>
		<polygon class="st3" points="827.98,671.53 843.11,680.27 827.98,689.01 812.85,680.27 		"/>
		<polygon class="st3" points="638.85,247.86 638.85,265.33 623.72,274.06 623.72,256.59 		"/>
		<polygon class="st3" points="827.98,592.91 843.11,601.65 827.98,610.38 812.85,601.65 		"/>
	</g>
	<g class="st1">
		<polyline class="st2" points="812.85,557.97 812.85,601.65 827.98,610.38 827.98,645.33 		"/>
		<polyline class="st2" points="812.85,636.59 812.85,680.27 827.98,689.01 827.98,723.95 		"/>
		<polyline class="st2" points="812.85,479.35 812.85,523.03 827.98,531.76 827.98,566.71 		"/>
		<polyline class="st2" points="812.85,400.73 812.85,444.41 827.98,453.14 827.98,488.09 		"/>
		<polyline class="st2" points="525.37,199.81 555.63,217.28 555.63,234.75 593.46,256.59 		"/>
		<polyline class="st2" points="661.54,278.43 691.8,295.9 691.8,313.37 729.63,335.21 		"/>
		<polyline class="st2" points="593.46,239.12 623.72,256.59 623.72,274.06 661.54,295.9 		"/>
		<polyline class="st2" points="729.63,335.21 729.63,317.74 744.76,309.01 775.02,326.48 775.02,343.95 797.72,357.05 
			812.85,348.32 843.11,365.79 843.11,400.73 827.98,409.47 827.98,435.67 843.11,444.41 843.11,479.35 827.98,488.09 
			827.98,514.29 843.11,523.03 843.11,557.97 827.98,566.71 827.98,592.91 843.11,601.65 843.11,636.59 827.98,645.33 
			827.98,671.53 843.11,680.27 843.11,715.21 827.98,723.95 797.72,706.48 797.72,689.01 775.02,675.9 759.89,684.64 729.63,667.17 
			729.63,649.69 706.94,636.59 691.8,645.33 661.54,627.86 661.54,610.38 638.85,597.28 623.72,606.02 593.46,588.55 593.46,571.07 
			570.76,557.97 555.63,566.71 525.37,549.24 525.37,514.29 540.5,505.56 540.5,479.35 525.37,470.62 525.37,435.67 540.5,426.94 
			540.5,400.73 525.37,392 525.37,357.05 540.5,348.32 540.5,322.11 525.37,313.37 525.37,278.43 540.5,269.7 540.5,243.49 
			525.37,234.75 525.37,199.81 540.5,191.08 570.76,208.55 570.76,226.02 593.46,239.12 608.59,230.39 638.85,247.86 638.85,265.33 
			661.54,278.43 676.67,269.7 706.94,287.17 706.94,304.64 729.63,317.74 759.89,335.21 759.89,352.68 797.72,374.52 		"/>
	</g>
	<g class="st1">
		<polyline class="st2" points="608.59,850.61 570.76,872.45 555.63,863.72 540.5,872.45 525.37,863.72 510.24,872.45 
			472.41,850.61 		"/>
		<polyline class="st2" points="812.85,732.68 775.02,754.52 759.89,745.79 744.76,754.52 		"/>
		<polyline class="st2" points="744.76,771.99 706.94,793.83 691.8,785.1 676.67,793.83 		"/>
		<polyline class="st2" points="676.67,811.3 638.85,833.14 623.72,824.41 608.59,833.14 		"/>
		<polyline class="st2" points="336.24,754.52 321.11,745.79 305.98,754.52 268.15,732.68 		"/>
		<polyline class="st2" points="404.33,793.83 389.2,785.1 374.06,793.83 336.24,771.99 		"/>
		<polyline class="st2" points="472.41,833.14 457.28,824.41 442.15,833.14 404.33,811.3 		"/>
	</g>
	<g class="st1">
		<polyline class="st2" points="812.85,732.68 775.02,754.52 759.89,745.79 744.76,754.52 		"/>
		<polyline class="st2" points="744.76,771.99 706.94,793.83 691.8,785.1 676.67,793.83 		"/>
		<polyline class="st2" points="676.67,811.3 638.85,833.14 623.72,824.41 608.59,833.14 		"/>
		<polyline class="st2" points="608.59,850.61 570.76,872.45 555.63,863.72 540.5,872.45 525.37,863.72 510.24,872.45 
			472.41,850.61 		"/>
		<polyline class="st2" points="457.28,824.41 442.15,833.14 404.33,811.3 		"/>
		<polyline class="st2" points="389.2,785.1 374.06,793.83 336.24,771.99 		"/>
		<polyline class="st2" points="321.11,745.79 305.98,754.52 268.15,732.68 		"/>
		<path class="st2" d="M812.85,697.74l-15.13,8.74l15.13,8.74l-37.83,21.84l-15.13-8.74l-30.26,17.47l15.13,8.74l-37.83,21.84
			l-15.13-8.74l-30.26,17.47l15.13,8.74l-37.83,21.84l-15.13-8.74l-30.26,17.47l15.13,8.74l-37.83,21.84l-15.13-8.74l-15.13,8.74
			l-15.13-8.74l-15.13,8.74l-37.83-21.84l15.13-8.74l-30.26-17.47l-15.13,8.74l-37.83-21.84l15.13-8.74l-30.26-17.47l-15.13,8.74
			l-37.83-21.84l15.13-8.74l-30.26-17.47l-15.13,8.74l-37.83-21.84l15.13-8.74l-15.13-8.74l15.13-8.74l-15.13-8.74l37.83-21.84
			l15.13,8.74l30.26-17.47l-15.13-8.74l37.83-21.84l15.13,8.74l30.26-17.47l-15.13-8.74l37.83-21.84l15.13,8.74l30.26-17.47
			l-15.13-8.74l37.83-21.84l15.13,8.74l15.13-8.74l15.13,8.74l15.13-8.74l37.83,21.84l-15.13,8.74l30.26,17.47l15.13-8.74
			l37.83,21.84l-15.13,8.74l30.26,17.47l15.13-8.74l37.83,21.84l-15.13,8.74l30.26,17.47l15.13-8.74l37.83,21.84
			C812.85,680.27,797.72,689.01,812.85,697.74z"/>
		<line class="st2" x1="812.85" y1="715.21" x2="812.85" y2="697.74"/>
		<line class="st2" x1="744.76" y1="771.99" x2="744.76" y2="754.52"/>
		<line class="st2" x1="472.41" y1="850.61" x2="472.41" y2="833.14"/>
		<line class="st2" x1="374.06" y1="793.83" x2="374.06" y2="776.36"/>
		<line class="st2" x1="268.15" y1="715.21" x2="268.15" y2="697.74"/>
		<line class="st2" x1="336.24" y1="658.43" x2="336.24" y2="640.96"/>
		<line class="st2" x1="608.59" y1="579.81" x2="608.59" y2="562.34"/>
		<line class="st2" x1="472.41" y1="833.14" x2="457.28" y2="824.41"/>
		<line class="st2" x1="404.33" y1="793.83" x2="389.2" y2="785.1"/>
		<line class="st2" x1="336.24" y1="754.52" x2="321.11" y2="745.79"/>
	</g>
	<g class="st1">
		<polygon class="st3" points="540.5,557.97 525.37,566.71 525.37,549.24 540.5,523.03 		"/>
		<polygon class="st3" points="540.5,523.03 540.5,479.35 555.63,470.62 555.63,514.29 		"/>
		<polygon class="st3" points="525.37,549.24 487.54,571.07 540.5,479.35 540.5,523.03 		"/>
		<polygon class="st3" points="487.54,571.07 457.28,588.55 540.5,444.41 540.5,479.35 		"/>
		<polygon class="st3" points="457.28,588.55 487.54,571.07 487.54,588.55 457.28,606.02 		"/>
		<polygon class="st3" points="540.5,444.41 540.5,400.73 555.63,392 555.63,435.67 		"/>
		<polygon class="st3" points="457.28,588.55 419.46,610.38 540.5,400.73 540.5,444.41 		"/>
		<polygon class="st3" points="419.46,610.38 389.2,627.86 540.5,400.73 		"/>
		<polygon class="st3" points="419.46,610.38 419.46,627.86 389.2,645.33 389.2,627.86 		"/>
		<polygon class="st3" points="540.5,365.79 540.5,322.11 555.63,313.37 555.63,357.05 		"/>
		<polygon class="st3" points="321.11,667.17 351.37,649.69 351.37,667.17 321.11,684.64 		"/>
		<polygon class="st3" points="540.5,287.17 540.5,243.49 555.63,234.75 555.63,278.43 		"/>
		<polygon class="st3" points="283.28,689.01 283.28,706.48 268.15,715.21 268.15,680.27 		"/>
		<polygon class="st3" points="525.37,234.75 525.37,217.28 540.5,208.55 540.5,243.49 		"/>
		<polygon class="st3" points="268.15,636.59 321.11,667.17 283.28,689.01 268.15,680.27 		"/>
		<polygon class="st3" points="487.54,256.59 525.37,234.75 540.5,243.49 540.5,287.17 		"/>
		<polygon class="st3" points="268.15,636.59 268.15,680.27 253.02,689.01 253.02,645.33 		"/>
		<polygon class="st3" points="457.28,274.06 487.54,256.59 540.5,287.17 540.5,322.11 		"/>
		<polygon class="st3" points="351.37,649.69 321.11,667.17 268.15,636.59 268.15,601.65 		"/>
		<polygon class="st3" points="457.28,274.06 457.28,256.59 487.54,239.12 487.54,256.59 		"/>
		<polygon class="st3" points="389.2,627.86 351.37,649.69 268.15,601.65 268.15,557.97 		"/>
		<polygon class="st3" points="419.46,295.9 457.28,274.06 540.5,322.11 540.5,365.79 		"/>
		<polygon class="st3" points="268.15,557.97 268.15,601.65 253.02,610.38 253.02,566.71 		"/>
		<polygon class="st3" points="540.5,400.73 389.2,313.37 419.46,295.9 540.5,365.79 		"/>
		<polygon class="st3" points="389.2,627.86 268.15,523.03 389.2,313.37 540.5,400.73 		"/>
		<polygon class="st3" points="389.2,627.86 268.15,557.97 268.15,523.03 		"/>
		<polygon class="st3" points="419.46,295.9 389.2,313.37 389.2,295.9 419.46,278.43 		"/>
	</g>
	<g class="st1">
		<polyline class="st2" points="555.63,470.62 555.63,514.29 540.5,523.03 540.5,557.97 525.37,566.71 		"/>
		<polyline class="st2" points="555.63,234.75 555.63,278.43 540.5,287.17 540.5,322.11 		"/>
		<polyline class="st2" points="351.37,335.21 389.2,313.37 389.2,295.9 419.46,278.43 		"/>
		<polyline class="st2" points="487.54,256.59 525.37,234.75 525.37,217.28 540.5,208.55 		"/>
		<polyline class="st2" points="283.28,374.52 321.11,352.68 321.11,335.21 351.37,317.74 		"/>
		<polyline class="st2" points="457.28,588.55 419.46,610.38 419.46,627.86 389.2,645.33 		"/>
		<polyline class="st2" points="555.63,392 555.63,435.67 540.5,444.41 540.5,479.35 		"/>
		<polyline class="st2" points="253.02,453.14 253.02,409.47 268.15,400.73 268.15,365.79 283.28,357.05 		"/>
		<polyline class="st2" points="555.63,313.37 555.63,357.05 540.5,365.79 540.5,400.73 		"/>
		<polyline class="st2" points="253.02,531.76 253.02,488.09 268.15,479.35 268.15,444.41 		"/>
		<polyline class="st2" points="253.02,610.38 253.02,566.71 268.15,557.97 268.15,523.03 		"/>
		<polyline class="st2" points="253.02,689.01 253.02,645.33 268.15,636.59 268.15,601.65 		"/>
		<polyline class="st2" points="419.46,295.9 457.28,274.06 457.28,256.59 487.54,239.12 		"/>
		<polyline class="st2" points="321.11,667.17 283.28,689.01 283.28,706.48 268.15,715.21 		"/>
		<polyline class="st2" points="389.2,627.86 351.37,649.69 351.37,667.17 321.11,684.64 		"/>
		<polyline class="st2" points="525.37,549.24 487.54,571.07 487.54,588.55 457.28,606.02 		"/>
		<line class="st2" x1="268.15" y1="715.21" x2="268.15" y2="680.27"/>
		<line class="st2" x1="540.5" y1="208.55" x2="540.5" y2="243.49"/>
		<line class="st2" x1="268.15" y1="680.27" x2="253.02" y2="689.01"/>
		<line class="st2" x1="389.2" y1="645.33" x2="389.2" y2="627.86"/>
		<line class="st2" x1="457.28" y1="588.55" x2="457.28" y2="606.02"/>
		<line class="st2" x1="525.37" y1="549.24" x2="525.37" y2="566.71"/>
		<line class="st2" x1="555.63" y1="392" x2="540.5" y2="400.73"/>
		<line class="st2" x1="540.5" y1="243.49" x2="555.63" y2="234.75"/>
		<line class="st2" x1="351.37" y1="335.21" x2="351.37" y2="317.74"/>
		<line class="st2" x1="555.63" y1="470.62" x2="540.5" y2="479.35"/>
		<line class="st2" x1="540.5" y1="322.11" x2="555.63" y2="313.37"/>
		<line class="st2" x1="253.02" y1="453.14" x2="268.15" y2="444.41"/>
		<line class="st2" x1="253.02" y1="531.76" x2="268.15" y2="523.03"/>
		<line class="st2" x1="268.15" y1="601.65" x2="253.02" y2="610.38"/>
		<line class="st2" x1="487.54" y1="239.12" x2="487.54" y2="256.59"/>
		<line class="st2" x1="419.46" y1="278.43" x2="419.46" y2="295.9"/>
		<line class="st2" x1="283.28" y1="374.52" x2="283.28" y2="357.05"/>
		<line class="st2" x1="321.11" y1="684.64" x2="321.11" y2="667.17"/>
	</g>
	<g class="st1">
		<polygon class="st3" points="540.5,523.03 555.63,549.24 525.37,549.24 525.37,514.29 		"/>
		<polygon class="st3" points="555.63,549.24 555.63,566.71 525.37,549.24 		"/>
		<polygon class="st3" points="593.46,571.07 555.63,549.24 540.5,523.03 540.5,479.35 		"/>
		<polygon class="st3" points="540.5,444.41 540.5,479.35 525.37,470.62 525.37,435.67 		"/>
		<polygon class="st3" points="540.5,444.41 623.72,588.55 593.46,571.07 540.5,479.35 		"/>
		<polygon class="st3" points="623.72,588.55 623.72,606.02 593.46,588.55 593.46,571.07 		"/>
		<polygon class="st3" points="661.54,610.38 623.72,588.55 540.5,444.41 540.5,400.73 		"/>
		<polygon class="st3" points="540.5,365.79 540.5,400.73 525.37,392 525.37,357.05 		"/>
		<polygon class="st3" points="691.8,627.86 691.8,645.33 661.54,627.86 661.54,610.38 		"/>
		<polygon class="st3" points="540.5,322.11 525.37,313.37 525.37,278.43 540.5,287.17 		"/>
		<polygon class="st3" points="759.89,667.17 759.89,684.64 729.63,667.17 729.63,649.69 		"/>
		<polygon class="st3" points="540.5,243.49 525.37,234.75 525.37,199.81 555.63,234.75 		"/>
		<polygon class="st3" points="797.72,689.01 812.85,680.27 827.98,723.95 797.72,706.48 		"/>
		<polygon class="st3" points="525.37,199.81 555.63,217.28 555.63,234.75 		"/>
		<polygon class="st3" points="812.85,680.27 827.98,689.01 827.98,723.95 		"/>
		<polygon class="st3" points="540.5,287.17 540.5,243.49 555.63,234.75 593.46,256.59 		"/>
		<polygon class="st3" points="759.89,667.17 812.85,636.59 812.85,680.27 797.72,689.01 		"/>
		<polygon class="st3" points="540.5,322.11 540.5,287.17 593.46,256.59 623.72,274.06 		"/>
		<polygon class="st3" points="812.85,601.65 812.85,636.59 759.89,667.17 729.63,649.69 		"/>
		<polygon class="st3" points="623.72,274.06 593.46,256.59 593.46,239.12 623.72,256.59 		"/>
		<polygon class="st3" points="812.85,636.59 812.85,601.65 827.98,610.38 827.98,645.33 		"/>
		<polygon class="st3" points="540.5,365.79 540.5,322.11 623.72,274.06 661.54,295.9 		"/>
		<polygon class="st3" points="812.85,557.97 691.8,627.86 661.54,610.38 		"/>
		<polygon class="st3" points="812.85,557.97 812.85,601.65 729.63,649.69 691.8,627.86 		"/>
		<polygon class="st3" points="691.8,313.37 540.5,400.73 540.5,365.79 661.54,295.9 		"/>
		<polygon class="st3" points="812.85,557.97 661.54,610.38 540.5,400.73 691.8,313.37 		"/>
		<polygon class="st3" points="812.85,523.03 812.85,557.97 691.8,313.37 		"/>
		<polygon class="st3" points="691.8,313.37 661.54,295.9 661.54,278.43 691.8,295.9 		"/>
		<polygon class="st3" points="812.85,523.03 827.98,531.76 827.98,566.71 812.85,557.97 		"/>
	</g>
	<g class="st1">
		<polyline class="st2" points="812.85,636.59 812.85,680.27 827.98,689.01 827.98,723.95 		"/>
		<polyline class="st2" points="812.85,557.97 812.85,601.65 827.98,610.38 827.98,645.33 		"/>
		<polyline class="st2" points="540.5,287.17 540.5,243.49 525.37,234.75 525.37,199.81 		"/>
		<polyline class="st2" points="540.5,365.79 540.5,322.11 525.37,313.37 525.37,278.43 		"/>
		<polyline class="st2" points="540.5,444.41 540.5,400.73 525.37,392 525.37,357.05 		"/>
		<polyline class="st2" points="812.85,479.35 812.85,523.03 827.98,531.76 827.98,566.71 		"/>
		<polyline class="st2" points="812.85,400.73 812.85,444.41 827.98,453.14 827.98,488.09 		"/>
		<polyline class="st2" points="540.5,523.03 540.5,479.35 525.37,470.62 525.37,435.67 		"/>
		<polyline class="st2" points="729.63,317.74 759.89,335.21 759.89,352.68 797.72,374.52 		"/>
		<polyline class="st2" points="661.54,278.43 691.8,295.9 691.8,313.37 729.63,335.21 		"/>
		<polyline class="st2" points="525.37,199.81 555.63,217.28 555.63,234.75 593.46,256.59 		"/>
		<polyline class="st2" points="555.63,566.71 525.37,549.24 525.37,514.29 		"/>
		<polyline class="st2" points="623.72,606.02 593.46,588.55 593.46,571.07 555.63,549.24 		"/>
		<polyline class="st2" points="691.8,645.33 661.54,627.86 661.54,610.38 623.72,588.55 		"/>
		<polyline class="st2" points="759.89,684.64 729.63,667.17 729.63,649.69 691.8,627.86 		"/>
		<polyline class="st2" points="827.98,723.95 797.72,706.48 797.72,689.01 759.89,667.17 		"/>
		<polyline class="st2" points="593.46,239.12 623.72,256.59 623.72,274.06 661.54,295.9 		"/>
		<polyline class="st2" points="797.72,357.05 827.98,374.52 827.98,409.47 		"/>
		<line class="st2" x1="555.63" y1="566.71" x2="555.63" y2="549.24"/>
		<line class="st2" x1="623.72" y1="606.02" x2="623.72" y2="588.55"/>
		<line class="st2" x1="691.8" y1="627.86" x2="691.8" y2="645.33"/>
		<line class="st2" x1="759.89" y1="667.17" x2="759.89" y2="684.64"/>
		<line class="st2" x1="812.85" y1="479.35" x2="827.98" y2="488.09"/>
		<line class="st2" x1="729.63" y1="317.74" x2="729.63" y2="335.21"/>
		<line class="st2" x1="661.54" y1="295.9" x2="661.54" y2="278.43"/>
		<line class="st2" x1="593.46" y1="256.59" x2="593.46" y2="239.12"/>
		<line class="st2" x1="797.72" y1="357.05" x2="797.72" y2="374.52"/>
		<line class="st2" x1="525.37" y1="278.43" x2="540.5" y2="287.17"/>
		<line class="st2" x1="525.37" y1="357.05" x2="540.5" y2="365.79"/>
		<line class="st2" x1="540.5" y1="444.41" x2="525.37" y2="435.67"/>
		<line class="st2" x1="827.98" y1="645.33" x2="812.85" y2="636.59"/>
		<line class="st2" x1="827.98" y1="566.71" x2="812.85" y2="557.97"/>
		<line class="st2" x1="812.85" y1="400.73" x2="827.98" y2="409.47"/>
		<line class="st2" x1="540.5" y1="523.03" x2="525.37" y2="514.29"/>
	</g>
	<g class="st1">
		<polygon class="st3" points="525.37,549.24 540.5,540.5 555.63,549.24 		"/>
		<polygon class="st3" points="593.46,571.07 555.63,549.24 570.76,540.5 608.59,562.34 		"/>
		<polygon class="st3" points="487.54,571.07 525.37,549.24 555.63,549.24 593.46,571.07 		"/>
		<polygon class="st3" points="525.37,549.24 487.54,571.07 472.41,562.34 510.24,540.5 		"/>
		<polygon class="st3" points="457.28,588.55 487.54,571.07 593.46,571.07 623.72,588.55 		"/>
		<polygon class="st3" points="661.54,610.38 623.72,588.55 638.85,579.81 676.67,601.65 		"/>
		<polygon class="st3" points="419.46,610.38 457.28,588.55 623.72,588.55 661.54,610.38 		"/>
		<polygon class="st3" points="457.28,588.55 419.46,610.38 404.33,601.65 442.15,579.81 		"/>
		<polygon class="st3" points="691.8,627.86 389.2,627.86 419.46,610.38 661.54,610.38 		"/>
		<polygon class="st3" points="729.63,649.69 691.8,627.86 706.94,619.12 744.76,640.96 		"/>
		<polygon class="st3" points="389.2,627.86 351.37,649.69 336.24,640.96 374.06,619.12 		"/>
		<polygon class="st3" points="321.11,667.17 283.28,689.01 268.15,680.27 305.98,658.43 		"/>
		<polygon class="st3" points="797.72,689.01 759.89,667.17 775.02,658.43 812.85,680.27 		"/>
		<polygon class="st3" points="283.28,706.48 268.15,697.74 283.28,689.01 		"/>
		<polygon class="st3" points="812.85,697.74 797.72,706.48 797.72,689.01 		"/>
		<polygon class="st3" points="321.11,728.32 283.28,706.48 283.28,689.01 321.11,667.17 		"/>
		<polygon class="st3" points="797.72,706.48 759.89,728.32 759.89,667.17 797.72,689.01 		"/>
		<polygon class="st3" points="283.28,706.48 321.11,728.32 305.98,737.05 268.15,715.21 		"/>
		<polygon class="st3" points="797.72,706.48 812.85,715.21 775.02,737.05 759.89,728.32 		"/>
		<polygon class="st3" points="351.37,649.69 351.37,745.79 321.11,728.32 321.11,667.17 		"/>
		<polygon class="st3" points="759.89,728.32 729.63,745.79 729.63,649.69 759.89,667.17 		"/>
		<polygon class="st3" points="389.2,767.62 351.37,745.79 351.37,649.69 389.2,627.86 		"/>
		<polygon class="st3" points="729.63,745.79 691.8,767.62 691.8,627.86 729.63,649.69 		"/>
		<polygon class="st3" points="389.2,767.62 374.06,776.36 336.24,754.52 351.37,745.79 		"/>
		<polygon class="st3" points="691.8,767.62 729.63,745.79 744.76,754.52 706.94,776.36 		"/>
		<polygon class="st3" points="661.54,785.1 389.2,767.62 389.2,627.86 691.8,627.86 		"/>
		<polygon class="st3" points="661.54,785.1 419.46,785.1 389.2,767.62 		"/>
		<polygon class="st3" points="691.8,767.62 661.54,785.1 691.8,627.86 		"/>
	</g>
	<g class="st1">
		<polyline class="st2" points="472.41,562.34 510.24,540.5 525.37,549.24 540.5,540.5 555.63,549.24 570.76,540.5 608.59,562.34 		
			"/>
		<polyline class="st2" points="608.59,833.14 570.76,854.98 555.63,846.25 540.5,854.98 525.37,846.25 510.24,854.98 
			472.41,833.14 		"/>
		<polyline class="st2" points="676.67,793.83 638.85,815.67 623.72,806.94 593.46,824.41 		"/>
		<polyline class="st2" points="404.33,601.65 442.15,579.81 457.28,588.55 487.54,571.07 		"/>
		<polyline class="st2" points="336.24,640.96 374.06,619.12 389.2,627.86 419.46,610.38 		"/>
		<polyline class="st2" points="744.76,754.52 706.94,776.36 691.8,767.62 661.54,785.1 		"/>
		<polyline class="st2" points="268.15,680.27 305.98,658.43 321.11,667.17 351.37,649.69 		"/>
		<polyline class="st2" points="812.85,715.21 775.02,737.05 759.89,728.32 729.63,745.79 		"/>
		<polyline class="st2" points="593.46,571.07 623.72,588.55 638.85,579.81 676.67,601.65 		"/>
		<polyline class="st2" points="729.63,649.69 759.89,667.17 775.02,658.43 812.85,680.27 		"/>
		<polyline class="st2" points="351.37,745.79 321.11,728.32 305.98,737.05 268.15,715.21 		"/>
		<polyline class="st2" points="661.54,610.38 691.8,627.86 706.94,619.12 744.76,640.96 		"/>
		<polyline class="st2" points="419.46,785.1 389.2,767.62 374.06,776.36 336.24,754.52 		"/>
		<polyline class="st2" points="487.54,824.41 457.28,806.94 442.15,815.67 404.33,793.83 		"/>
		<line class="st2" x1="593.46" y1="571.07" x2="608.59" y2="562.34"/>
		<line class="st2" x1="351.37" y1="649.69" x2="336.24" y2="640.96"/>
		<line class="st2" x1="283.28" y1="706.48" x2="268.15" y2="697.74"/>
		<line class="st2" x1="812.85" y1="680.27" x2="797.72" y2="689.01"/>
		<line class="st2" x1="744.76" y1="640.96" x2="729.63" y2="649.69"/>
		<line class="st2" x1="661.54" y1="610.38" x2="676.67" y2="601.65"/>
		<line class="st2" x1="404.33" y1="601.65" x2="419.46" y2="610.38"/>
		<line class="st2" x1="268.15" y1="697.74" x2="283.28" y2="689.01"/>
		<line class="st2" x1="268.15" y1="715.21" x2="283.28" y2="706.48"/>
		<line class="st2" x1="336.24" y1="754.52" x2="351.37" y2="745.79"/>
		<line class="st2" x1="676.67" y1="793.83" x2="661.54" y2="785.1"/>
		<line class="st2" x1="729.63" y1="745.79" x2="744.76" y2="754.52"/>
		<line class="st2" x1="797.72" y1="689.01" x2="812.85" y2="697.74"/>
		<line class="st2" x1="812.85" y1="697.74" x2="797.72" y2="706.48"/>
		<line class="st2" x1="487.54" y1="824.41" x2="472.41" y2="833.14"/>
		<line class="st2" x1="608.59" y1="833.14" x2="593.46" y2="824.41"/>
		<line class="st2" x1="472.41" y1="562.34" x2="487.54" y2="571.07"/>
		<line class="st2" x1="283.28" y1="689.01" x2="268.15" y2="680.27"/>
		<line class="st2" x1="419.46" y1="785.1" x2="404.33" y2="793.83"/>
		<line class="st2" x1="797.72" y1="706.48" x2="812.85" y2="715.21"/>
	</g>
	<g class="st1">
		<polygon class="st3" points="608.59,579.81 593.46,588.55 593.46,571.07 608.59,562.34 		"/>
		<polygon class="st3" points="487.54,588.55 472.41,579.81 472.41,562.34 487.54,571.07 		"/>
		<polygon class="st3" points="676.67,619.12 661.54,627.86 661.54,610.38 676.67,601.65 		"/>
		<polygon class="st3" points="419.46,627.86 404.33,619.12 404.33,601.65 419.46,610.38 		"/>
		<polygon class="st3" points="691.8,645.33 706.94,636.59 706.94,619.12 691.8,627.86 		"/>
		<polygon class="st3" points="374.06,636.59 389.2,645.33 389.2,627.86 374.06,619.12 		"/>
		<polygon class="st3" points="759.89,684.64 775.02,675.9 775.02,658.43 759.89,667.17 		"/>
		<polygon class="st3" points="305.98,675.9 321.11,684.64 321.11,667.17 305.98,658.43 		"/>
		<polygon class="st3" points="321.11,745.79 305.98,754.52 305.98,737.05 321.11,728.32 		"/>
		<polygon class="st3" points="775.02,754.52 759.89,745.79 759.89,728.32 775.02,737.05 		"/>
		<polygon class="st3" points="389.2,785.1 374.06,793.83 374.06,776.36 389.2,767.62 		"/>
		<polygon class="st3" points="706.94,793.83 691.8,785.1 691.8,767.62 706.94,776.36 		"/>
	</g>
	<g class="st1">
		<polyline class="st2" points="608.59,833.14 570.76,854.98 555.63,846.25 540.5,854.98 525.37,846.25 510.24,854.98 
			472.41,833.14 		"/>
		<polyline class="st2" points="744.76,754.52 706.94,776.36 691.8,767.62 661.54,785.1 		"/>
		<polyline class="st2" points="812.85,715.21 775.02,737.05 759.89,728.32 729.63,745.79 		"/>
		<polyline class="st2" points="351.37,745.79 321.11,728.32 305.98,737.05 268.15,715.21 		"/>
		<polyline class="st2" points="487.54,824.41 457.28,806.94 442.15,815.67 404.33,793.83 		"/>
		<polyline class="st2" points="419.46,785.1 389.2,767.62 374.06,776.36 336.24,754.52 		"/>
		<polyline class="st2" points="638.85,833.14 638.85,815.67 623.72,806.94 593.46,824.41 		"/>
		<polyline class="st2" points="661.54,610.38 676.67,619.12 691.8,627.86 706.94,619.12 744.76,640.96 744.76,658.43 
			759.89,667.17 775.02,658.43 812.85,680.27 812.85,697.74 812.85,715.21 812.85,732.68 775.02,754.52 759.89,745.79 
			744.76,754.52 744.76,771.99 706.94,793.83 691.8,785.1 676.67,793.83 676.67,811.3 638.85,833.14 623.72,824.41 608.59,833.14 
			608.59,850.61 570.76,872.45 555.63,863.72 540.5,872.45 525.37,863.72 510.24,872.45 472.41,850.61 472.41,833.14 457.28,824.41 
			442.15,833.14 404.33,811.3 404.33,793.83 389.2,785.1 374.06,793.83 336.24,771.99 336.24,754.52 321.11,745.79 305.98,754.52 
			268.15,732.68 268.15,715.21 268.15,697.74 268.15,680.27 305.98,658.43 321.11,667.17 336.24,658.43 336.24,640.96 
			374.06,619.12 389.2,627.86 404.33,619.12 404.33,601.65 442.15,579.81 457.28,588.55 472.41,579.81 472.41,562.34 510.24,540.5 
			525.37,549.24 540.5,540.5 555.63,549.24 570.76,540.5 608.59,562.34 608.59,579.81 623.72,588.55 638.85,579.81 676.67,601.65 
			676.67,619.12 		"/>
	</g>
	<g class="st1">
		<path class="st2" d="M540.5,889.92v-34.94l-15.13-8.74v-43.68l15.13,8.74v-34.94l-15.13-8.74v-43.68l15.13,8.74v-34.94
			l-15.13-8.74v-43.68l15.13,8.74v-34.94l-15.13-8.74v-43.68l15.13,8.74V540.5l-30.26-17.47v17.47l-37.83-21.84v-17.47l-30.26-17.47
			v17.47l-37.83-21.84v-17.47l-30.26-17.47v17.47l-37.83-21.84v-17.47l-30.26-17.47v17.47l-37.83-21.84v-17.47l-30.26-17.47v34.94
			l15.13,8.74v43.68l-15.13-8.74v34.94l15.13,8.74v43.68l-15.13-8.74v34.94l15.13,8.74v43.68l-15.13-8.74v34.94l15.13,8.74v43.68
			l-15.13-8.74v34.94l30.26,17.47v-17.47l37.83,21.84v17.47l30.26,17.47v-17.47l37.83,21.84v17.47l30.26,17.47v-17.47l37.83,21.84
			v17.47l30.26,17.47v-17.47l37.83,21.84C510.24,854.98,510.24,872.45,540.5,889.92z"/>
		<polyline class="st2" points="555.63,881.19 555.63,846.25 540.5,837.51 540.5,802.57 		"/>
		<polyline class="st2" points="555.63,802.57 555.63,767.62 540.5,758.89 540.5,723.95 		"/>
		<polyline class="st2" points="555.63,723.95 555.63,689.01 540.5,680.27 540.5,645.33 		"/>
		<polyline class="st2" points="555.63,645.33 555.63,610.38 540.5,601.65 540.5,566.71 		"/>
		<polyline class="st2" points="555.63,566.71 555.63,531.76 525.37,514.29 		"/>
		<polyline class="st2" points="498.89,516.48 487.54,492.45 457.28,474.98 		"/>
		<polyline class="st2" points="430.8,477.17 419.46,453.14 389.2,435.67 		"/>
		<polyline class="st2" points="362.72,437.86 351.37,413.83 321.11,396.36 		"/>
		<polyline class="st2" points="294.63,398.55 283.28,374.52 253.02,357.05 		"/>
		<line class="st2" x1="540.5" y1="889.92" x2="555.63" y2="881.19"/>
		<line class="st2" x1="525.37" y1="767.62" x2="540.5" y2="758.89"/>
		<line class="st2" x1="540.5" y1="619.12" x2="555.63" y2="610.38"/>
		<line class="st2" x1="472.41" y1="518.66" x2="487.54" y2="509.93"/>
		<line class="st2" x1="237.89" y1="365.79" x2="253.02" y2="357.05"/>
		<line class="st2" x1="510.24" y1="523.03" x2="487.54" y2="509.93"/>
		<line class="st2" x1="442.15" y1="483.72" x2="419.46" y2="470.62"/>
		<line class="st2" x1="374.06" y1="444.41" x2="351.37" y2="431.31"/>
		<line class="st2" x1="305.98" y1="405.1" x2="283.28" y2="392"/>
	</g>
	<g class="st1">
		<path class="st2" d="M827.98,374.52l-15.13,8.74v17.47l-37.83,21.84V405.1l-30.26,17.47v17.47l-37.83,21.84v-17.47l-30.26,17.47
			v17.47l-37.83,21.84v-17.47l-30.26,17.47v17.47l-37.83,21.84v-17.47l-15.13,8.74v34.94l-15.13,8.74v43.68l15.13-8.74v34.94
			l-15.13,8.74v43.68l15.13-8.74v34.94l-15.13,8.74v43.68l15.13-8.74v34.94l-15.13,8.74v43.68l15.13-8.74v34.94l15.13-8.74v-17.47
			l37.83-21.84v17.47l30.26-17.47v-17.47l37.83-21.84v17.47l30.26-17.47v-17.47l37.83-21.84v17.47l30.26-17.47v-17.47l37.83-21.84
			v17.47l15.13-8.74v-34.94l15.13-8.74v-43.68l-15.13,8.74v-34.94l15.13-8.74v-43.68l-15.13,8.74v-34.94l15.13-8.74v-43.68
			l-15.13,8.74v-34.94l15.13-8.74v-43.68C843.11,400.73,827.98,409.47,827.98,374.52z"/>
		<polyline class="st2" points="812.85,365.79 797.72,374.52 797.72,392 767.46,409.47 		"/>
		<polyline class="st2" points="759.89,396.36 729.63,413.83 729.63,431.31 699.37,448.78 		"/>
		<polyline class="st2" points="691.8,435.67 661.54,453.14 661.54,470.62 631.28,488.09 		"/>
		<polyline class="st2" points="623.72,474.98 593.46,492.45 593.46,509.93 563.2,527.4 		"/>
		<polyline class="st2" points="555.63,514.29 540.5,523.03 540.5,557.97 525.37,566.71 525.37,610.38 		"/>
		<polyline class="st2" points="540.5,627.86 525.37,645.33 525.37,689.01 		"/>
		<polyline class="st2" points="540.5,706.48 525.37,723.95 525.37,767.62 		"/>
		<polyline class="st2" points="540.5,785.1 525.37,802.57 525.37,846.25 		"/>
		<line class="st2" x1="827.98" y1="374.52" x2="812.85" y2="365.79"/>
		<line class="st2" x1="744.76" y1="440.04" x2="729.63" y2="431.31"/>
		<line class="st2" x1="608.59" y1="501.19" x2="593.46" y2="492.45"/>
		<line class="st2" x1="540.5" y1="619.12" x2="525.37" y2="610.38"/>
		<line class="st2" x1="540.5" y1="732.68" x2="525.37" y2="723.95"/>
		<line class="st2" x1="555.63" y1="881.19" x2="540.5" y2="872.45"/>
		<line class="st2" x1="843.11" y1="636.59" x2="827.98" y2="627.86"/>
		<line class="st2" x1="540.5" y1="619.12" x2="540.5" y2="636.59"/>
		<line class="st2" x1="540.5" y1="697.74" x2="540.5" y2="715.21"/>
		<line class="st2" x1="540.5" y1="776.36" x2="540.5" y2="793.83"/>
		<line class="st2" x1="540.5" y1="854.98" x2="540.5" y2="872.45"/>
	</g>
	<g class="st1">
		<polygon class="st3" points="555.63,234.75 540.5,226.02 525.37,234.75 		"/>
		<polygon class="st3" points="541.81,253.74 555.63,234.75 525.37,234.75 537.87,253.77 		"/>
		<polygon class="st3" points="555.63,234.75 541.81,253.74 545.75,253.91 		"/>
		<polygon class="st3" points="525.37,234.75 533.95,254.01 537.87,253.77 		"/>
		<polygon class="st3" points="555.63,234.75 545.75,253.91 549.64,254.29 		"/>
		<polygon class="st3" points="525.37,234.75 530.07,254.47 533.95,254.01 		"/>
		<polygon class="st3" points="555.63,234.75 549.64,254.29 553.48,254.88 		"/>
		<polygon class="st3" points="525.37,234.75 526.26,255.13 530.07,254.47 		"/>
		<polygon class="st3" points="555.63,234.75 553.48,254.88 557.22,255.68 		"/>
		<polygon class="st3" points="525.37,234.75 522.56,255.99 526.26,255.13 		"/>
		<polygon class="st3" points="525.37,234.75 510.24,226.02 472.41,247.86 487.54,256.59 		"/>
		<polygon class="st3" points="555.63,234.75 593.46,256.59 608.59,247.86 570.76,226.02 		"/>
		<polygon class="st3" points="555.63,234.75 557.22,255.68 560.85,256.69 		"/>
		<polygon class="st3" points="525.37,234.75 487.54,256.59 518.97,257.07 522.56,255.99 		"/>
		<polygon class="st3" points="564.33,257.9 593.46,256.59 555.63,234.75 560.85,256.69 		"/>
		<polygon class="st3" points="487.54,256.59 515.54,258.36 518.97,257.07 		"/>
		<polygon class="st3" points="487.54,256.59 513.36,259.33 515.54,258.36 		"/>
		<polygon class="st3" points="593.46,256.59 564.33,257.9 567.64,259.33 		"/>
		<polygon class="st3" points="487.54,256.59 457.28,274.06 510.24,260.96 513.36,259.33 		"/>
		<polygon class="st3" points="570.76,260.96 623.72,274.06 593.46,256.59 567.64,259.33 		"/>
		<polygon class="st3" points="457.28,274.06 419.46,295.9 510.24,260.96 		"/>
		<polygon class="st3" points="419.46,295.9 457.28,274.06 442.15,265.33 404.33,287.17 		"/>
		<polygon class="st3" points="623.72,274.06 661.54,295.9 676.67,287.17 638.85,265.33 		"/>
		<polygon class="st3" points="661.54,295.9 623.72,274.06 570.76,260.96 		"/>
		<polygon class="st3" points="510.24,260.96 419.46,295.9 389.2,313.37 328.67,365.79 		"/>
		<polygon class="st3" points="752.33,365.79 691.8,313.37 661.54,295.9 570.76,260.96 		"/>
	</g>
	<g class="st1">
		<polyline class="st2" points="812.85,400.73 775.02,422.57 759.89,413.83 744.76,422.57 		"/>
		<polyline class="st2" points="744.76,440.04 706.94,461.88 691.8,453.14 676.67,461.88 		"/>
		<polyline class="st2" points="676.67,479.35 638.85,501.19 623.72,492.45 608.59,501.19 		"/>
		<polyline class="st2" points="608.59,518.66 570.76,540.5 555.63,531.76 540.5,540.5 525.37,531.76 510.24,540.5 472.41,518.66 		
			"/>
		<polyline class="st2" points="472.41,501.19 457.28,492.45 442.15,501.19 404.33,479.35 		"/>
		<polyline class="st2" points="404.33,461.88 389.2,453.14 374.06,461.88 336.24,440.04 		"/>
		<polyline class="st2" points="336.24,422.57 321.11,413.83 305.98,422.57 268.15,400.73 		"/>
		<polyline class="st2" points="318.93,374.53 319.53,373.61 321.27,371.51 323.38,369.5 325.85,367.59 328.67,365.79 
			510.24,260.96 513.36,259.33 515.54,258.36 518.97,257.07 522.56,255.99 526.26,255.13 530.07,254.47 533.95,254.01 
			537.87,253.77 541.81,253.74 545.75,253.91 549.64,254.29 553.48,254.88 557.22,255.68 560.85,256.69 564.33,257.9 567.64,259.33 
			570.76,260.96 752.33,365.79 755.15,367.59 756.84,368.85 759.06,370.83 760.93,372.9 762.07,374.51 		"/>
	</g>
	<g class="st1">
		<polygon class="st3" points="253.02,706.48 283.28,723.95 283.28,706.48 		"/>
		<polygon class="st3" points="268.15,680.27 253.02,671.53 253.02,706.48 283.28,706.48 		"/>
		<polygon class="st3" points="268.15,636.59 268.15,680.27 283.28,706.48 321.11,728.32 		"/>
		<polygon class="st3" points="268.15,601.65 253.02,592.91 253.02,627.86 268.15,636.59 		"/>
		<polygon class="st3" points="351.37,745.79 321.11,728.32 321.11,745.79 351.37,763.26 		"/>
		<polygon class="st3" points="268.15,601.65 268.15,636.59 321.11,728.32 351.37,745.79 		"/>
		<polygon class="st3" points="268.15,557.97 268.15,601.65 351.37,745.79 389.2,767.62 		"/>
		<polygon class="st3" points="268.15,557.97 268.15,523.03 253.02,514.29 253.02,549.24 		"/>
		<polygon class="st3" points="419.46,785.1 389.2,767.62 389.2,785.1 419.46,802.57 		"/>
		<polygon class="st3" points="419.46,785.1 268.15,523.03 268.15,557.97 389.2,767.62 		"/>
	</g>
	<g class="st1">
		<polyline class="st2" points="389.2,435.67 419.46,453.14 419.46,470.62 442.15,483.72 		"/>
		<polyline class="st2" points="457.28,474.98 487.54,492.45 487.54,509.93 510.24,523.03 		"/>
		<polyline class="st2" points="253.02,357.05 283.28,374.52 283.28,392 305.98,405.1 		"/>
		<polyline class="st2" points="321.11,396.36 351.37,413.83 351.37,431.31 374.06,444.41 		"/>
		<polyline class="st2" points="525.37,514.29 555.63,531.76 555.63,566.71 		"/>
		<polyline class="st2" points="540.5,811.3 540.5,837.51 555.63,846.25 555.63,881.19 		"/>
		<polyline class="st2" points="540.5,575.44 540.5,601.65 555.63,610.38 555.63,645.33 		"/>
		<polyline class="st2" points="540.5,654.06 540.5,680.27 555.63,689.01 555.63,723.95 		"/>
		<polyline class="st2" points="540.5,732.68 540.5,758.89 555.63,767.62 555.63,802.57 		"/>
	</g>
	<g class="st1">
		<polygon class="st3" points="253.02,689.01 237.89,680.27 253.02,671.53 268.15,680.27 		"/>
		<polygon class="st3" points="268.15,732.68 268.15,715.21 283.28,706.48 283.28,723.95 		"/>
		<polygon class="st3" points="253.02,610.38 237.89,601.65 253.02,592.91 268.15,601.65 		"/>
		<polygon class="st3" points="336.24,771.99 336.24,754.52 351.37,745.79 351.37,763.26 		"/>
	</g>
	<g class="st1">
		<polyline class="st2" points="525.37,566.71 525.37,610.38 540.5,619.12 540.5,654.06 		"/>
		<polyline class="st2" points="525.37,723.95 525.37,767.62 540.5,776.36 540.5,811.3 		"/>
		<polyline class="st2" points="525.37,645.33 525.37,689.01 540.5,697.74 540.5,732.68 		"/>
		<polyline class="st2" points="525.37,802.57 525.37,846.25 540.5,854.98 540.5,889.92 		"/>
		<polyline class="st2" points="237.89,365.79 268.15,383.26 268.15,400.73 305.98,422.57 		"/>
		<polyline class="st2" points="305.98,405.1 336.24,422.57 336.24,440.04 374.06,461.88 		"/>
		<polyline class="st2" points="374.06,444.41 404.33,461.88 404.33,479.35 442.15,501.19 		"/>
		<polyline class="st2" points="442.15,501.19 442.15,483.72 457.28,474.98 487.54,492.45 487.54,509.93 510.24,523.03 
			525.37,514.29 555.63,531.76 555.63,566.71 540.5,575.44 540.5,601.65 555.63,610.38 555.63,645.33 540.5,654.06 540.5,680.27 
			555.63,689.01 555.63,723.95 540.5,732.68 540.5,758.89 555.63,767.62 555.63,802.57 540.5,811.3 540.5,837.51 555.63,846.25 
			555.63,881.19 540.5,889.92 510.24,872.45 510.24,854.98 487.54,841.88 472.41,850.61 442.15,833.14 442.15,815.67 419.46,802.57 
			404.33,811.3 374.06,793.83 374.06,776.36 351.37,763.26 336.24,771.99 305.98,754.52 305.98,737.05 283.28,723.95 268.15,732.68 
			237.89,715.21 237.89,680.27 253.02,671.53 253.02,645.33 237.89,636.59 237.89,601.65 253.02,592.91 253.02,566.71 
			237.89,557.97 237.89,523.03 253.02,514.29 253.02,488.09 237.89,479.35 237.89,444.41 253.02,435.67 253.02,409.47 
			237.89,400.73 237.89,365.79 253.02,357.05 283.28,374.52 283.28,392 305.98,405.1 321.11,396.36 351.37,413.83 351.37,431.31 
			374.06,444.41 389.2,435.67 419.46,453.14 419.46,470.62 442.15,483.72 472.41,501.19 472.41,518.66 510.24,540.5 		"/>
	</g>
	<g class="st1">
		<polygon class="st3" points="797.72,706.48 797.72,723.95 812.85,715.21 812.85,680.27 		"/>
		<polygon class="st3" points="812.85,636.59 812.85,680.27 827.98,671.53 827.98,627.86 		"/>
		<polygon class="st3" points="759.89,728.32 797.72,706.48 812.85,680.27 812.85,636.59 		"/>
		<polygon class="st3" points="729.63,745.79 759.89,728.32 812.85,636.59 812.85,601.65 		"/>
		<polygon class="st3" points="729.63,745.79 729.63,763.26 759.89,745.79 759.89,728.32 		"/>
		<polygon class="st3" points="812.85,557.97 812.85,601.65 827.98,592.91 827.98,549.24 		"/>
		<polygon class="st3" points="691.8,767.62 729.63,745.79 812.85,601.65 812.85,557.97 		"/>
		<polygon class="st3" points="812.85,523.03 661.54,785.1 691.8,767.62 812.85,557.97 		"/>
		<polygon class="st3" points="691.8,767.62 661.54,785.1 661.54,802.57 691.8,785.1 		"/>
	</g>
	<g class="st1">
		<polyline class="st2" points="525.37,689.01 525.37,645.33 540.5,636.59 540.5,619.12 		"/>
		<polyline class="st2" points="525.37,846.25 525.37,802.57 540.5,793.83 540.5,776.36 		"/>
		<polyline class="st2" points="525.37,767.62 525.37,723.95 540.5,715.21 540.5,697.74 		"/>
		<polyline class="st2" points="525.37,610.38 525.37,566.71 540.5,557.97 540.5,523.03 555.63,514.29 		"/>
		<polyline class="st2" points="570.76,523.03 593.46,509.93 593.46,492.45 623.72,474.98 		"/>
		<polyline class="st2" points="638.85,483.72 661.54,470.62 661.54,453.14 691.8,435.67 		"/>
		<polyline class="st2" points="706.94,444.41 729.63,431.31 729.63,413.83 759.89,396.36 		"/>
		<polyline class="st2" points="775.02,405.1 797.72,392 797.72,374.52 812.85,365.79 		"/>
		<line class="st2" x1="540.5" y1="872.45" x2="540.5" y2="854.98"/>
	</g>
	<g class="st1">
		<polygon class="st3" points="812.85,715.21 812.85,732.68 797.72,723.95 797.72,706.48 		"/>
		<polygon class="st3" points="843.11,636.59 827.98,645.33 812.85,636.59 827.98,627.86 		"/>
		<polygon class="st3" points="744.76,754.52 744.76,771.99 729.63,763.26 729.63,745.79 		"/>
		<polygon class="st3" points="843.11,557.97 827.98,566.71 812.85,557.97 827.98,549.24 		"/>
	</g>
	<g class="st1">
		<polyline class="st2" points="540.5,776.36 540.5,732.68 555.63,723.95 555.63,689.01 		"/>
		<polyline class="st2" points="775.02,422.57 812.85,400.73 812.85,383.26 797.72,374.52 		"/>
		<polyline class="st2" points="638.85,501.19 676.67,479.35 676.67,461.88 706.94,444.41 		"/>
		<polyline class="st2" points="540.5,854.98 540.5,811.3 555.63,802.57 555.63,767.62 		"/>
		<polyline class="st2" points="540.5,697.74 540.5,654.06 555.63,645.33 555.63,610.38 		"/>
		<polyline class="st2" points="540.5,619.12 540.5,575.44 555.63,566.71 555.63,531.76 570.76,523.03 		"/>
		<polyline class="st2" points="706.94,461.88 744.76,440.04 744.76,422.57 775.02,405.1 		"/>
		<polyline class="st2" points="570.76,540.5 608.59,518.66 608.59,501.19 638.85,483.72 		"/>
		<polyline class="st2" points="827.98,453.14 827.98,470.62 843.11,479.35 843.11,523.03 827.98,531.76 827.98,549.24 
			843.11,557.97 843.11,601.65 827.98,610.38 827.98,627.86 843.11,636.59 843.11,680.27 827.98,689.01 827.98,723.95 
			812.85,732.68 797.72,723.95 775.02,737.05 775.02,754.52 744.76,771.99 729.63,763.26 706.94,776.36 706.94,793.83 676.67,811.3 
			661.54,802.57 638.85,815.67 638.85,833.14 608.59,850.61 593.46,841.88 570.76,854.98 570.76,872.45 555.63,881.19 540.5,872.45 
			540.5,854.98 525.37,846.25 525.37,802.57 540.5,793.83 540.5,776.36 525.37,767.62 525.37,723.95 540.5,715.21 540.5,697.74 
			525.37,689.01 525.37,645.33 540.5,636.59 540.5,619.12 525.37,610.38 525.37,566.71 540.5,557.97 540.5,523.03 555.63,514.29 
			570.76,523.03 593.46,509.93 593.46,492.45 623.72,474.98 638.85,483.72 661.54,470.62 661.54,453.14 691.8,435.67 706.94,444.41 
			729.63,431.31 729.63,413.83 759.89,396.36 775.02,405.1 797.72,392 797.72,374.52 812.85,365.79 827.98,374.52 827.98,392 
			843.11,400.73 843.11,444.41 827.98,453.14 		"/>
	</g>
	<g class="st1">
		<polygon class="st3" points="541.81,236.26 541.81,253.74 537.87,253.77 537.87,236.3 		"/>
		<polygon class="st3" points="545.75,236.44 545.75,253.91 541.81,253.74 541.81,236.26 		"/>
		<polygon class="st3" points="537.87,236.3 537.87,253.77 533.95,254.01 533.95,236.54 		"/>
		<polygon class="st3" points="549.64,236.82 549.64,254.29 545.75,253.91 545.75,236.44 		"/>
		<polygon class="st3" points="533.95,236.54 533.95,254.01 530.07,254.47 530.07,236.99 		"/>
		<polygon class="st3" points="553.48,237.41 553.48,254.88 549.64,254.29 549.64,236.82 		"/>
		<polygon class="st3" points="530.07,236.99 530.07,254.47 526.26,255.13 526.26,237.65 		"/>
		<polygon class="st3" points="557.22,238.21 557.22,255.68 553.48,254.88 553.48,237.41 		"/>
		<polygon class="st3" points="526.26,237.65 526.26,255.13 522.56,255.99 522.56,238.52 		"/>
		<polygon class="st3" points="608.59,230.39 608.59,247.86 593.46,256.59 593.46,239.12 		"/>
		<polygon class="st3" points="487.54,239.12 487.54,256.59 472.41,247.86 472.41,230.39 		"/>
		<polygon class="st3" points="560.85,239.22 560.85,256.69 557.22,255.68 557.22,238.21 		"/>
		<polygon class="st3" points="522.56,238.52 522.56,255.99 518.97,257.07 518.97,239.6 		"/>
		<polygon class="st3" points="564.33,240.43 564.33,257.9 560.85,256.69 560.85,239.22 		"/>
		<polygon class="st3" points="518.97,239.6 518.97,257.07 515.54,258.36 515.54,240.88 		"/>
		<polygon class="st3" points="515.54,240.88 515.54,258.36 513.36,259.33 513.36,241.86 		"/>
		<polygon class="st3" points="567.64,241.86 567.64,259.33 564.33,257.9 564.33,240.43 		"/>
		<polygon class="st3" points="570.76,243.49 570.76,260.96 567.64,259.33 567.64,241.86 		"/>
		<polygon class="st3" points="513.36,241.86 513.36,259.33 510.24,260.96 510.24,243.49 		"/>
		<polygon class="st3" points="419.46,278.43 419.46,295.9 404.33,287.17 404.33,269.7 		"/>
		<polygon class="st3" points="676.67,269.7 676.67,287.17 661.54,295.9 661.54,278.43 		"/>
		<polygon class="st3" points="510.24,243.49 510.24,260.96 328.67,365.79 328.67,348.32 		"/>
		<polygon class="st3" points="752.33,348.32 752.33,365.79 570.76,260.96 570.76,243.49 		"/>
	</g>
	<g class="st1">
		<polyline class="st2" points="525.37,566.71 525.37,610.38 540.5,619.12 540.5,654.06 		"/>
		<polyline class="st2" points="525.37,645.33 525.37,689.01 540.5,697.74 540.5,732.68 		"/>
		<polyline class="st2" points="253.02,531.76 253.02,488.09 237.89,479.35 237.89,444.41 		"/>
		<polyline class="st2" points="253.02,453.14 253.02,409.47 237.89,400.73 237.89,365.79 		"/>
		<polyline class="st2" points="253.02,689.01 253.02,645.33 237.89,636.59 237.89,601.65 		"/>
		<polyline class="st2" points="253.02,610.38 253.02,566.71 237.89,557.97 237.89,523.03 		"/>
		<polyline class="st2" points="525.37,723.95 525.37,767.62 540.5,776.36 540.5,811.3 		"/>
		<polyline class="st2" points="525.37,802.57 525.37,846.25 540.5,854.98 540.5,889.92 		"/>
		<polyline class="st2" points="268.15,732.68 237.89,715.21 237.89,680.27 		"/>
		<polyline class="st2" points="510.24,523.03 540.5,540.5 540.5,575.44 		"/>
		<polyline class="st2" points="374.06,444.41 404.33,461.88 404.33,479.35 442.15,501.19 		"/>
		<polyline class="st2" points="305.98,405.1 336.24,422.57 336.24,440.04 374.06,461.88 		"/>
		<polyline class="st2" points="237.89,365.79 268.15,383.26 268.15,400.73 305.98,422.57 		"/>
		<polyline class="st2" points="540.5,889.92 510.24,872.45 510.24,854.98 472.41,833.14 		"/>
		<polyline class="st2" points="442.15,483.72 472.41,501.19 472.41,518.66 510.24,540.5 		"/>
		<polyline class="st2" points="336.24,771.99 305.98,754.52 305.98,737.05 268.15,715.21 		"/>
		<polyline class="st2" points="404.33,811.3 374.06,793.83 374.06,776.36 336.24,754.52 		"/>
		<polyline class="st2" points="472.41,850.61 442.15,833.14 442.15,815.67 404.33,793.83 		"/>
		<line class="st2" x1="525.37" y1="645.33" x2="540.5" y2="654.06"/>
		<line class="st2" x1="525.37" y1="566.71" x2="540.5" y2="575.44"/>
		<line class="st2" x1="237.89" y1="444.41" x2="253.02" y2="453.14"/>
		<line class="st2" x1="237.89" y1="523.03" x2="253.02" y2="531.76"/>
		<line class="st2" x1="253.02" y1="610.38" x2="237.89" y2="601.65"/>
		<line class="st2" x1="268.15" y1="732.68" x2="268.15" y2="715.21"/>
		<line class="st2" x1="253.02" y1="689.01" x2="237.89" y2="680.27"/>
		<line class="st2" x1="374.06" y1="461.88" x2="374.06" y2="444.41"/>
		<line class="st2" x1="336.24" y1="771.99" x2="336.24" y2="754.52"/>
		<line class="st2" x1="305.98" y1="422.57" x2="305.98" y2="405.1"/>
		<line class="st2" x1="540.5" y1="732.68" x2="525.37" y2="723.95"/>
		<line class="st2" x1="510.24" y1="523.03" x2="510.24" y2="540.5"/>
		<line class="st2" x1="442.15" y1="483.72" x2="442.15" y2="501.19"/>
		<line class="st2" x1="404.33" y1="793.83" x2="404.33" y2="811.3"/>
		<line class="st2" x1="540.5" y1="811.3" x2="525.37" y2="802.57"/>
		<line class="st2" x1="472.41" y1="833.14" x2="472.41" y2="850.61"/>
	</g>
	<g class="st1">
		<polyline class="st2" points="570.76,540.5 608.59,518.66 608.59,501.19 638.85,483.72 		"/>
		<polyline class="st2" points="608.59,833.14 570.76,854.98 570.76,872.45 555.63,881.19 		"/>
		<polyline class="st2" points="540.5,619.12 540.5,575.44 555.63,566.71 555.63,531.76 570.76,523.03 		"/>
		<polyline class="st2" points="843.11,636.59 843.11,680.27 827.98,689.01 827.98,723.95 812.85,732.68 		"/>
		<polyline class="st2" points="775.02,422.57 812.85,400.73 812.85,383.26 827.98,374.52 		"/>
		<polyline class="st2" points="706.94,461.88 744.76,440.04 744.76,422.57 775.02,405.1 		"/>
		<polyline class="st2" points="540.5,697.74 540.5,654.06 555.63,645.33 555.63,610.38 		"/>
		<polyline class="st2" points="540.5,776.36 540.5,732.68 555.63,723.95 555.63,689.01 		"/>
		<polyline class="st2" points="540.5,854.98 540.5,811.3 555.63,802.57 555.63,767.62 		"/>
		<polyline class="st2" points="843.11,557.97 843.11,601.65 827.98,610.38 827.98,645.33 		"/>
		<polyline class="st2" points="843.11,479.35 843.11,523.03 827.98,531.76 827.98,566.71 		"/>
		<polyline class="st2" points="843.11,400.73 843.11,444.41 827.98,453.14 827.98,488.09 		"/>
		<polyline class="st2" points="638.85,501.19 676.67,479.35 676.67,461.88 706.94,444.41 		"/>
		<polyline class="st2" points="676.67,793.83 638.85,815.67 638.85,833.14 608.59,850.61 		"/>
		<polyline class="st2" points="812.85,715.21 775.02,737.05 775.02,754.52 744.76,771.99 		"/>
		<polyline class="st2" points="744.76,754.52 706.94,776.36 706.94,793.83 676.67,811.3 		"/>
		<line class="st2" x1="555.63" y1="881.19" x2="555.63" y2="846.25"/>
		<line class="st2" x1="827.98" y1="374.52" x2="827.98" y2="409.47"/>
		<line class="st2" x1="775.02" y1="405.1" x2="775.02" y2="422.57"/>
		<line class="st2" x1="706.94" y1="444.41" x2="706.94" y2="461.88"/>
		<line class="st2" x1="608.59" y1="850.61" x2="608.59" y2="833.14"/>
		<line class="st2" x1="676.67" y1="811.3" x2="676.67" y2="793.83"/>
		<line class="st2" x1="744.76" y1="754.52" x2="744.76" y2="771.99"/>
		<line class="st2" x1="812.85" y1="715.21" x2="812.85" y2="732.68"/>
		<line class="st2" x1="540.5" y1="697.74" x2="555.63" y2="689.01"/>
		<line class="st2" x1="555.63" y1="767.62" x2="540.5" y2="776.36"/>
		<line class="st2" x1="555.63" y1="846.25" x2="540.5" y2="854.98"/>
		<line class="st2" x1="540.5" y1="619.12" x2="555.63" y2="610.38"/>
		<line class="st2" x1="843.11" y1="636.59" x2="827.98" y2="645.33"/>
		<line class="st2" x1="843.11" y1="557.97" x2="827.98" y2="566.71"/>
		<line class="st2" x1="827.98" y1="488.09" x2="843.11" y2="479.35"/>
		<line class="st2" x1="827.98" y1="409.47" x2="843.11" y2="400.73"/>
		<line class="st2" x1="638.85" y1="501.19" x2="638.85" y2="483.72"/>
		<line class="st2" x1="570.76" y1="540.5" x2="570.76" y2="523.03"/>
	</g>
</g>
<g id="Layer_2">
	<polygon class="st4" points="540,540 843.11,365 843.11,715 540,890 	"/>
	<polygon class="st5" points="540,540 236.89,365 236.89,715 540,890 	"/>
	<polygon class="st5" points="236.89,365 540,540 843.11,365 540,190 	"/>
	<g>
		<polygon class="st5" points="441.49,500.63 403.6,478.75 403.6,461.25 373.29,443.75 373.29,461.25 335.4,439.38 335.4,421.88 
			305.09,404.38 305.09,421.88 267.2,400 267.2,382.5 236.89,365 236.89,400 252.05,408.75 252.05,452.5 236.89,443.75 
			236.89,478.75 252.05,487.5 252.05,531.25 236.89,522.5 236.89,557.5 252.05,566.25 252.05,610 236.89,601.25 236.89,636.25 
			252.05,645 252.05,688.75 236.89,680 236.89,715 267.2,732.5 267.2,715 305.09,736.88 305.09,754.38 335.4,771.88 335.4,754.38 
			373.29,776.25 373.29,793.75 403.6,811.25 403.6,793.75 441.49,815.63 441.49,833.12 471.8,850.62 471.8,833.12 509.69,855 
			509.69,872.5 540,890 540,855 524.84,846.25 524.84,802.5 540,811.25 540,776.25 524.84,767.5 524.84,723.75 540,732.5 540,697.5 
			524.84,688.75 524.84,645 540,653.75 540,618.75 524.84,610 524.84,566.25 540,575 540,540 509.69,522.5 509.69,540 471.8,518.13 
			471.8,500.63 441.49,483.13 		"/>
	</g>
	<g>
		<polygon class="st4" points="540,697.5 540,653.75 555.16,645 555.16,610 540,618.75 540,575 555.16,566.25 555.16,531.25 
			570.31,522.5 570.31,540 608.2,518.13 608.2,500.63 638.51,483.13 638.51,500.63 676.4,478.75 676.4,461.25 706.71,443.75 
			706.71,461.25 744.6,439.38 744.6,421.88 774.91,404.38 774.91,421.88 812.8,400 812.8,382.5 827.95,373.75 827.95,408.75 
			843.11,400 843.11,443.75 827.95,452.5 827.95,487.5 843.11,478.75 843.11,522.5 827.95,531.25 827.95,566.25 843.11,557.5 
			843.11,601.25 827.95,610 827.95,645 843.11,636.25 843.11,680 827.95,688.75 827.95,723.75 812.8,732.5 812.8,715 774.91,736.88 
			774.91,754.38 744.6,771.88 744.6,754.38 706.71,776.25 706.71,793.75 676.4,811.25 676.4,793.75 638.51,815.63 638.51,833.12 
			608.2,850.62 608.2,833.12 570.31,855 570.31,872.5 555.16,881.25 555.16,846.25 540,855 540,811.25 555.16,802.5 555.16,767.5 
			540,776.25 540,732.5 555.16,723.75 555.16,688.75 		"/>
	</g>
	<g>
		<polygon class="st5" points="418.76,452.5 388.45,435 373.29,443.75 335.4,421.88 350.56,413.13 320.25,395.62 305.09,404.38 
			267.2,382.5 282.36,373.75 267.2,365 282.36,356.25 267.2,347.5 305.09,325.62 320.25,334.38 350.56,316.88 335.4,308.12 
			373.29,286.25 388.45,295 418.76,277.5 403.6,268.75 441.49,246.88 456.64,255.63 486.96,238.13 471.8,229.38 509.69,207.5 
			524.84,216.25 540,207.5 555.16,216.25 570.31,207.5 608.2,229.38 593.04,238.13 623.35,255.63 638.51,246.88 676.4,268.75 
			661.24,277.5 691.55,295 706.71,286.25 744.6,308.12 729.44,316.88 759.75,334.38 774.91,325.62 812.8,347.5 797.64,356.25 
			812.8,365 797.64,373.75 812.8,382.5 774.91,404.38 759.75,395.62 729.44,413.13 744.6,421.88 706.71,443.75 691.55,435 
			661.24,452.5 676.4,461.25 638.51,483.13 623.35,474.37 593.04,491.87 608.2,500.63 570.31,522.5 555.16,513.75 540,522.5 
			524.84,513.75 509.69,522.5 471.8,500.63 486.96,491.87 456.64,474.37 441.49,483.13 403.6,461.25 		"/>
	</g>
	<line class="st6" x1="252.05" y1="356.25" x2="267.2" y2="365"/>
	<line class="st6" x1="540" y1="522.5" x2="555.16" y2="531.25"/>
	<line class="st6" x1="812.8" y1="365" x2="827.95" y2="373.75"/>
	<line class="st6" x1="524.84" y1="198.75" x2="540" y2="207.5"/>
</g>
<g id="Layer_3">
	<path class="st4" d="M570.76,243.49l-3.12-1.63l-3.31-1.42l-3.48-1.22l-3.63-1.01l-3.74-0.8l-3.83-0.59l-3.9-0.38l-3.93-0.17
		l-3.94,0.03l-3.92,0.24l-3.88,0.45l-3.81,0.66l-3.71,0.87l-3.58,1.08l-3.43,1.29l-2.19,0.97l-3.12,1.63L328.67,348.32l-2.83,1.8
		l-2.47,1.91l-2.11,2.01l-1.74,2.09l-1.38,2.16l-1.02,2.21l-0.66,2.25l-0.3,2.27l0.06,2.28l0.42,2.26l0.78,2.24l1.14,2.2l1.5,2.14
		l1.87,2.07l2.23,1.98l1.68,1.26l2.83,1.8l181.57,104.83l3.12,1.63l3.31,1.42l3.48,1.22l3.63,1.01l3.74,0.8l3.83,0.59l3.9,0.38
		l3.93,0.17l3.94-0.03l3.92-0.24l3.88-0.45l3.81-0.66l3.71-0.87l3.58-1.08l3.43-1.29l2.19-0.97l3.12-1.63l181.57-104.83l2.83-1.8
		l2.47-1.91l2.11-2.01l1.74-2.09l1.38-2.16l1.02-2.21l0.66-2.25l0.3-2.27l-0.06-2.28l-0.42-2.26l-0.78-2.24l-1.14-2.2l-1.5-2.14
		l-1.87-2.07l-2.23-1.98l-1.68-1.26C755.15,350.12,752.33,348.32,570.76,243.49z"/>
	<line class="st6" x1="561.94" y1="239.6" x2="561.94" y2="257.07"/>
	<line class="st6" x1="540" y1="253.77" x2="540" y2="495.19"/>
	<line class="st6" x1="518.97" y1="239.6" x2="518.97" y2="257.07"/>
	<line class="st6" x1="540" y1="236.26" x2="540" y2="253.74"/>
	<line class="st6" x1="321.27" y1="354.04" x2="321.27" y2="371.51"/>
	<line class="st6" x1="759.68" y1="354.04" x2="759.68" y2="371.51"/>
	<line class="st6" x1="762.07" y1="374.51" x2="760.93" y2="372.9"/>
	<polyline class="st6" points="318.93,374.53 319.53,373.61 321.27,371.51 323.38,369.5 325.85,367.59 328.67,365.79 510.24,260.96 
		513.36,259.33 515.54,258.36 518.97,257.07 522.56,255.99 526.26,255.13 530.07,254.47 533.95,254.01 537.87,253.77 541.81,253.74 
		545.75,253.91 549.64,254.29 553.48,254.88 557.22,255.68 560.85,256.69 564.33,257.9 567.64,259.33 570.76,260.96 752.33,365.79 
		755.15,367.59 756.84,368.85 759.06,370.83 760.93,372.9 762.07,374.51 	"/>
</g>
</svg>
