<?xml version="1.0" encoding="utf-8"?>
<!-- Generator: Adobe Illustrator 26.2.1, SVG Export Plug-In . SVG Version: 6.00 Build 0)  -->
<svg version="1.1" xmlns="http://www.w3.org/2000/svg" xmlns:xlink="http://www.w3.org/1999/xlink" x="0px" y="0px"
	 viewBox="0 0 1080 1080" style="enable-background:new 0 0 1080 1080;" xml:space="preserve">
<style type="text/css">
	.st0{display:none;}
	.st1{display:inline;}
	.st2{fill:none;stroke:#000000;stroke-linecap:round;stroke-linejoin:round;}
	.st3{fill:#313845;stroke:#313845;stroke-width:0.5;stroke-linecap:round;stroke-linejoin:round;}
	.st4{display:inline;fill:none;stroke:#000000;stroke-linecap:round;stroke-linejoin:round;}
	.st5{display:inline;fill:#4C3522;stroke:#000000;stroke-linecap:round;stroke-linejoin:round;}
	.st6{fill:#4C3522;stroke:#000000;stroke-linecap:round;stroke-linejoin:round;}
	.st7{fill:#7C5026;stroke:#000000;stroke-linecap:round;stroke-linejoin:round;}
	.st8{fill:#E8E8E8;stroke:#000000;stroke-width:3;stroke-linecap:round;stroke-linejoin:round;}
	.st9{fill:#A9A8A9;stroke:#000000;stroke-width:3;stroke-linecap:round;stroke-linejoin:round;}
</style>
<g id="Layer_1" class="st0">
	<g class="st1">
		<polyline class="st2" points="522.02,319.97 743.8,448.02 743.8,476.48 743.8,512.04 743.8,540.5 743.8,547.61 743.8,576.07 
			756.12,583.18 756.12,611.64 		"/>
		<polyline class="st2" points="743.8,640.09 756.12,647.21 756.12,675.66 		"/>
		<polyline class="st2" points="743.8,704.12 756.12,711.23 756.12,739.68 		"/>
		<path class="st2" d="M497.38,604.52v-28.46l12.32,7.11v-35.57l-12.32-7.11v-28.46l12.32,7.11v-35.57l-12.32-7.11v-28.45
			l12.32,7.11v-28.46v-7.11v-28.45v-35.57v-28.45l221.78,128.05v28.45v35.57v28.46v7.11v28.46l12.32,7.11v28.45l-12.32-7.11v35.57
			l12.32,7.11v28.46l-12.32-7.11v35.57l12.32,7.11v28.45l-24.64-14.23v-14.23l-30.8-17.78v14.23l-24.64-14.23v-14.23l-30.8-17.78
			v14.23l-24.64-14.23v-14.23l-30.8-17.79v14.23l-24.64-14.23v-14.23l-30.8-17.78C522.02,604.52,522.02,618.75,497.38,604.52z"/>
		<line class="st2" x1="509.7" y1="440.91" x2="497.38" y2="448.02"/>
		<line class="st2" x1="743.8" y1="540.5" x2="731.48" y2="547.61"/>
		<line class="st2" x1="589.78" y1="643.65" x2="577.46" y2="650.76"/>
		<line class="st2" x1="743.8" y1="618.75" x2="743.8" y2="640.09"/>
		<line class="st2" x1="743.8" y1="682.78" x2="743.8" y2="704.12"/>
	</g>
	<g class="st1">
		<polyline class="st2" points="522.02,319.97 743.8,448.02 743.8,476.48 743.8,512.04 743.8,540.5 743.8,547.61 743.8,576.07 
			756.12,583.18 756.12,611.64 		"/>
		<polyline class="st2" points="743.8,618.75 743.8,640.09 756.12,647.21 756.12,675.66 		"/>
		<polyline class="st2" points="743.8,682.78 743.8,704.12 756.12,711.23 756.12,739.68 		"/>
	</g>
	<g class="st1">
		<polygon class="st3" points="534.34,597.41 534.34,611.64 522.02,618.75 522.02,604.52 		"/>
		<polygon class="st3" points="509.7,568.96 522.02,576.07 509.7,583.18 497.38,576.07 		"/>
		<polygon class="st3" points="589.78,629.42 589.78,643.65 577.46,650.76 577.46,636.53 		"/>
		<polygon class="st3" points="509.7,504.93 522.02,512.04 509.7,519.16 497.38,512.04 		"/>
		<polygon class="st3" points="509.7,440.91 522.02,448.02 509.7,455.14 497.38,448.02 		"/>
		<polygon class="st3" points="676.03,693.45 676.03,679.22 663.71,686.33 663.71,700.56 		"/>
		<polygon class="st3" points="731.48,725.46 731.48,711.23 719.16,718.34 719.16,732.57 		"/>
		<polygon class="st3" points="743.8,704.12 756.12,711.23 743.8,718.34 731.48,711.23 		"/>
		<polygon class="st3" points="743.8,640.09 756.12,647.21 743.8,654.32 731.48,647.21 		"/>
		<polygon class="st3" points="743.8,576.07 756.12,583.18 743.8,590.3 731.48,583.18 		"/>
	</g>
	<g class="st1">
		<polyline class="st2" points="509.7,327.09 731.48,455.14 731.48,483.59 731.48,519.16 731.48,547.61 731.48,554.73 
			731.48,583.18 743.8,590.3 743.8,618.75 743.8,640.09 756.12,647.21 756.12,675.66 743.8,682.78 743.8,704.12 756.12,711.23 
			756.12,739.68 743.8,746.8 719.16,732.57 719.16,718.34 700.68,707.67 688.36,714.79 663.71,700.56 663.71,686.33 645.23,675.66 
			632.91,682.78 608.27,668.55 608.27,654.32 589.78,643.65 577.46,650.76 552.82,636.53 552.82,622.31 534.34,611.64 
			522.02,618.75 497.38,604.52 497.38,576.07 509.7,568.96 509.7,547.61 497.38,540.5 497.38,512.04 509.7,504.93 509.7,483.59 
			497.38,476.48 497.38,448.02 509.7,440.91 509.7,426.68 509.7,419.57 509.7,391.11 509.7,355.54 509.7,327.09 522.02,319.97 
			743.8,448.02 743.8,476.48 743.8,512.04 743.8,540.5 743.8,547.61 743.8,576.07 756.12,583.18 756.12,611.64 743.8,618.75 
			731.48,611.64 		"/>
		<polyline class="st2" points="731.48,611.64 731.48,647.21 743.8,654.32 743.8,682.78 		"/>
		<polyline class="st2" points="731.48,675.66 731.48,711.23 743.8,718.34 743.8,746.8 		"/>
	</g>
	<g class="st1">
		<polyline class="st2" points="620.59,817.94 589.78,835.72 577.46,828.61 565.14,835.72 		"/>
		<polyline class="st2" points="731.48,753.91 700.68,771.7 688.36,764.58 676.03,771.7 		"/>
		<polyline class="st2" points="676.03,785.92 645.23,803.71 632.91,796.59 620.59,803.71 		"/>
		<polyline class="st2" points="565.14,849.95 534.34,867.73 522.02,860.62 509.7,867.73 497.38,860.62 485.05,867.73 
			454.25,849.95 		"/>
		<polyline class="st2" points="454.25,835.72 441.93,828.61 429.61,835.72 398.8,817.94 		"/>
		<polyline class="st2" points="398.8,803.71 386.48,796.59 374.16,803.71 343.36,785.92 		"/>
		<polyline class="st2" points="343.36,771.7 331.04,764.58 318.72,771.7 287.91,753.91 		"/>
	</g>
	<g class="st1">
		<polygon class="st3" points="485.05,611.64 485.05,597.41 497.38,604.52 497.38,618.75 		"/>
		<polygon class="st3" points="497.38,540.5 509.7,533.39 522.02,540.5 509.7,547.61 		"/>
		<polygon class="st3" points="429.61,643.65 429.61,629.42 441.93,636.53 441.93,650.76 		"/>
		<polygon class="st3" points="497.38,476.48 509.7,469.36 522.02,476.48 509.7,483.59 		"/>
		<polygon class="st3" points="398.8,647.21 398.8,661.43 411.13,668.55 411.13,654.32 		"/>
		<polygon class="st3" points="530.99,360.23 525.45,365.45 537.77,372.56 543.31,367.34 		"/>
		<polygon class="st3" points="343.36,679.22 343.36,693.45 355.68,700.56 355.68,686.33 		"/>
		<polygon class="st3" points="525.45,365.45 519.69,370.18 532.01,377.3 537.77,372.56 		"/>
		<polygon class="st3" points="543.46,327.71 546.62,322.12 558.94,329.24 555.78,334.83 		"/>
		<polygon class="st3" points="540.01,333.12 543.46,327.71 555.78,334.83 552.33,340.23 		"/>
		<polygon class="st3" points="546.62,322.12 549.47,316.39 561.79,323.51 558.94,329.24 		"/>
		<polygon class="st3" points="536.3,338.3 540.01,333.12 552.33,340.23 548.62,345.42 		"/>
		<polygon class="st3" points="549.47,316.39 551.99,310.55 564.32,317.67 561.79,323.51 		"/>
		<polygon class="st3" points="519.69,370.18 515.75,373.05 528.07,380.17 532.01,377.3 		"/>
		<polygon class="st3" points="532.35,343.23 536.3,338.3 548.62,345.42 544.67,350.34 		"/>
		<polygon class="st3" points="551.99,310.55 554.16,304.65 566.48,311.76 564.32,317.67 		"/>
		<polygon class="st3" points="528.17,347.86 532.35,343.23 544.67,350.34 540.49,354.97 		"/>
		<polygon class="st3" points="554.16,304.65 555.96,298.71 568.28,305.82 566.48,311.76 		"/>
		<polygon class="st3" points="515.75,373.05 509.7,376.88 522.02,384 528.07,380.17 		"/>
		<polygon class="st3" points="555.96,298.71 557.36,292.78 569.68,299.89 568.28,305.82 		"/>
		<polygon class="st3" points="557.36,292.78 558.34,286.9 570.66,294.01 569.68,299.89 		"/>
		<polygon class="st3" points="558.34,286.9 558.75,283.02 571.07,290.13 570.66,294.01 		"/>
		<polygon class="st3" points="558.75,283.02 558.98,277.29 571.3,284.41 571.07,290.13 		"/>
		<polygon class="st3" points="558.98,277.29 558.75,271.84 571.07,278.95 571.3,284.41 		"/>
		<polygon class="st3" points="558.75,271.84 558.06,266.8 570.38,273.92 571.07,278.95 		"/>
		<polygon class="st3" points="558.06,266.8 556.94,262.19 569.26,269.31 570.38,273.92 		"/>
		<polygon class="st3" points="556.94,262.19 555.4,258.03 567.72,265.14 569.26,269.31 		"/>
		<polygon class="st3" points="555.4,258.03 553.48,254.32 565.8,261.43 567.72,265.14 		"/>
		<polygon class="st3" points="287.91,711.23 287.91,725.46 300.23,732.57 300.23,718.34 		"/>
		<polygon class="st3" points="553.48,254.32 551.19,251.07 563.51,258.18 565.8,261.43 		"/>
		<polygon class="st3" points="551.19,251.07 548.56,248.3 560.88,255.42 563.51,258.18 		"/>
		<polygon class="st3" points="548.56,248.3 545.6,246.03 557.92,253.15 560.88,255.42 		"/>
		<polygon class="st3" points="545.6,246.03 542.34,244.26 554.66,251.38 557.92,253.15 		"/>
		<polygon class="st3" points="542.34,244.26 538.8,243.01 551.12,250.13 554.66,251.38 		"/>
		<polygon class="st3" points="538.8,243.01 535.01,242.29 547.33,249.41 551.12,250.13 		"/>
		<polygon class="st3" points="731.48,753.91 719.16,746.8 719.16,732.57 731.48,739.68 		"/>
		<polygon class="st3" points="535.01,242.29 530.98,242.12 543.3,249.23 547.33,249.41 		"/>
		<polygon class="st3" points="530.98,242.12 526.73,242.49 539.05,249.61 543.3,249.23 		"/>
		<polygon class="st3" points="526.73,242.49 522.3,243.44 534.62,250.55 539.05,249.61 		"/>
		<polygon class="st3" points="522.3,243.44 517.69,244.97 530.01,252.08 534.62,250.55 		"/>
		<polygon class="st3" points="517.69,244.97 514.54,246.31 526.86,253.43 530.01,252.08 		"/>
		<polygon class="st3" points="743.8,682.78 731.48,675.66 743.8,668.55 756.12,675.66 		"/>
		<polygon class="st3" points="514.54,246.31 509.7,248.84 522.02,255.95 526.86,253.43 		"/>
		<polygon class="st3" points="263.27,675.66 275.59,668.55 287.91,675.66 275.59,682.78 		"/>
		<polygon class="st3" points="509.7,248.84 504.86,251.9 517.18,259.02 522.02,255.95 		"/>
		<polygon class="st3" points="504.86,251.9 500.15,255.42 512.47,262.53 517.18,259.02 		"/>
		<polygon class="st3" points="448.4,348.25 448.17,344.83 460.49,351.95 460.72,355.36 		"/>
		<polygon class="st3" points="500.15,255.42 495.6,259.34 507.92,266.45 512.47,262.53 		"/>
		<polygon class="st3" points="448.17,344.83 448.09,341.32 460.41,348.43 460.49,351.95 		"/>
		<polygon class="st3" points="495.6,259.34 491.22,263.64 503.54,270.75 507.92,266.45 		"/>
		<polygon class="st3" points="465.23,306.85 463.43,312.78 475.76,319.9 477.55,313.96 		"/>
		<polygon class="st3" points="491.22,263.64 487.05,268.27 499.37,275.38 503.54,270.75 		"/>
		<polygon class="st3" points="448.09,341.32 448.38,334.16 460.7,341.27 460.41,348.43 		"/>
		<polygon class="st3" points="467.4,300.94 465.23,306.85 477.55,313.96 479.72,308.05 		"/>
		<polygon class="st3" points="487.05,268.27 483.09,273.19 495.41,280.31 499.37,275.38 		"/>
		<polygon class="st3" points="469.92,295.1 467.4,300.94 479.72,308.05 482.24,302.21 		"/>
		<polygon class="st3" points="483.09,273.19 479.38,278.38 491.7,285.49 495.41,280.31 		"/>
		<polygon class="st3" points="472.77,289.37 469.92,295.1 482.24,302.21 485.09,296.48 		"/>
		<polygon class="st3" points="475.93,283.78 472.77,289.37 485.09,296.48 488.25,290.9 		"/>
		<polygon class="st3" points="479.38,278.38 475.93,283.78 488.25,290.9 491.7,285.49 		"/>
		<polygon class="st3" points="448.38,334.16 449.24,326.87 461.57,333.98 460.7,341.27 		"/>
		<polygon class="st3" points="676.03,785.92 663.71,778.81 663.71,764.58 676.03,771.7 		"/>
		<polygon class="st3" points="449.24,326.87 450.65,319.49 462.97,326.6 461.57,333.98 		"/>
		<polygon class="st3" points="743.8,618.75 731.48,611.64 743.8,604.52 756.12,611.64 		"/>
		<polygon class="st3" points="645.23,789.48 632.91,782.37 632.91,796.59 645.23,803.71 		"/>
		<polygon class="st3" points="263.27,611.64 275.59,604.52 287.91,611.64 275.59,618.75 		"/>
	</g>
	<g class="st1">
		<polyline class="st2" points="731.48,753.91 700.68,771.7 688.36,764.58 676.03,771.7 		"/>
		<polyline class="st2" points="676.03,785.92 645.23,803.71 632.91,796.59 620.59,803.71 		"/>
		<polyline class="st2" points="620.59,817.94 589.78,835.72 577.46,828.61 565.14,835.72 		"/>
		<polyline class="st2" points="565.14,849.95 534.34,867.73 522.02,860.62 509.7,867.73 497.38,860.62 485.05,867.73 
			454.25,849.95 		"/>
		<polyline class="st2" points="441.93,828.61 429.61,835.72 398.8,817.94 		"/>
		<polyline class="st2" points="386.48,796.59 374.16,803.71 343.36,785.92 		"/>
		<polyline class="st2" points="331.04,764.58 318.72,771.7 287.91,753.91 		"/>
		<path class="st2" d="M287.91,725.46l12.32-7.11l-12.32-7.11l30.8-17.78l12.32,7.11l24.64-14.23l-12.32-7.11l30.8-17.79l12.32,7.11
			l24.64-14.23l-12.32-7.11l30.8-17.78l12.32,7.11l24.64-14.23l-12.32-7.11l30.8-17.78l12.32,7.11l12.32-7.11l12.32,7.11l12.32-7.11
			l30.8,17.78l-12.32,7.11l24.64,14.23l12.32-7.11l30.8,17.78l-12.32,7.11l24.64,14.23l12.32-7.11l30.8,17.79l-12.32,7.11
			l24.64,14.23l12.32-7.11l30.8,17.78l-12.32,7.11l12.32,7.11l-12.32,7.11l12.32,7.11l-30.8,17.78l-12.32-7.11l-24.64,14.23
			l12.32,7.11l-30.8,17.78l-12.32-7.11l-24.64,14.23l12.32,7.11l-30.8,17.78l-12.32-7.11l-24.64,14.23l12.32,7.11l-30.8,17.78
			l-12.32-7.11l-12.32,7.11l-12.32-7.11l-12.32,7.11l-30.8-17.78l12.32-7.11l-24.64-14.23l-12.32,7.11l-30.8-17.78l12.32-7.11
			l-24.64-14.23l-12.32,7.11l-30.8-17.78l12.32-7.11l-24.64-14.23l-12.32,7.11l-30.8-17.78
			C287.91,739.68,300.23,732.57,287.91,725.46z"/>
		<line class="st2" x1="287.91" y1="739.68" x2="287.91" y2="725.46"/>
		<line class="st2" x1="343.36" y1="693.45" x2="343.36" y2="679.22"/>
		<line class="st2" x1="565.14" y1="629.42" x2="565.14" y2="615.19"/>
		<line class="st2" x1="731.48" y1="739.68" x2="731.48" y2="725.46"/>
		<line class="st2" x1="676.03" y1="785.92" x2="676.03" y2="771.7"/>
		<line class="st2" x1="454.25" y1="849.95" x2="454.25" y2="835.72"/>
		<line class="st2" x1="374.16" y1="803.71" x2="374.16" y2="789.48"/>
		<line class="st2" x1="454.25" y1="835.72" x2="441.93" y2="828.61"/>
		<line class="st2" x1="398.8" y1="803.71" x2="386.48" y2="796.59"/>
		<line class="st2" x1="343.36" y1="771.7" x2="331.04" y2="764.58"/>
	</g>
	<polyline class="st4" points="275.59,448.02 448.09,348.43 448.4,348.25 448.17,344.83 448.09,341.32 448.38,334.16 449.24,326.87 
		450.65,319.49 452.56,312.07 454.97,304.65 457.83,297.29 461.12,290.04 464.82,282.92 468.89,276.01 473.31,269.34 478.06,262.96 
		483.1,256.92 488.4,251.27 493.95,246.05 499.7,241.31 503.65,238.44 509.7,234.61 515.75,231.46 521.63,229.05 527.32,227.39 
		532.79,226.44 538.01,226.2 542.95,226.65 547.59,227.78 551.9,229.56 	"/>
	<line class="st4" x1="275.59" y1="732.57" x2="275.59" y2="711.23"/>
	<polyline class="st4" points="263.27,711.23 263.27,675.66 275.59,668.55 275.59,647.21 	"/>
	<polyline class="st4" points="263.27,647.21 263.27,611.64 275.59,604.52 275.59,583.18 	"/>
	<polyline class="st4" points="263.27,583.18 263.27,547.61 275.59,540.5 275.59,519.16 	"/>
	<path class="st4" d="M263.27,519.16v-35.57C263.27,483.59,275.59,476.48,263.27,519.16z"/>
	<polyline class="st4" points="484.39,369.2 488.42,369.38 492.66,369 497.1,368.05 501.7,366.53 504.86,365.18 509.7,362.66 
		514.54,359.59 519.24,356.08 523.8,352.15 528.17,347.86 532.35,343.23 536.3,338.3 540.01,333.12 543.46,327.71 546.62,322.12 
		549.47,316.39 551.99,310.55 554.16,304.65 555.96,298.71 557.36,292.78 558.34,286.9 558.75,283.02 558.98,277.29 558.75,271.84 
		558.06,266.8 556.94,262.19 555.4,258.03 553.48,254.32 551.19,251.07 550.11,249.93 	"/>
	<polyline class="st4" points="287.91,455.14 460.41,355.54 460.72,355.36 460.49,351.95 460.41,348.43 460.7,341.27 461.57,333.98 
		462.97,326.6 464.89,319.18 467.29,311.77 470.15,304.41 473.44,297.15 477.14,290.04 481.21,283.12 485.63,276.45 490.38,270.08 
		495.42,264.04 500.72,258.38 506.27,253.16 512.03,248.42 515.97,245.55 522.02,241.72 528.07,238.57 533.95,236.17 539.64,234.5 
		545.11,233.56 550.33,233.32 555.27,233.77 559.91,234.89 564.22,236.67 568.17,239.09 571.74,242.14 574.89,245.8 577.6,250.05 
		579.84,254.88 581.59,260.28 582.82,266.22 583.33,270.48 583.62,277.29 583.33,284.45 582.47,291.74 581.07,299.12 579.15,306.54 
		576.75,313.95 573.89,321.31 570.59,328.57 566.9,335.68 562.83,342.6 558.4,349.27 553.66,355.64 548.62,361.68 543.31,367.34 
		537.77,372.56 532.01,377.3 528.07,380.17 522.02,384 522.02,412.45 522.02,419.57 522.02,448.02 509.7,455.14 509.7,483.59 
		522.02,476.48 522.02,512.04 509.7,519.16 509.7,547.61 522.02,540.5 522.02,576.07 	"/>
	<path class="st4" d="M497.38,618.75v-14.23l-30.8,17.78v14.23l-24.64,14.23v-14.23l-30.8,17.79v14.23l-24.64,14.23v-14.23
		l-30.8,17.78v14.23l-24.64,14.23v-14.23l-30.8,17.78v14.23l-12.32,7.11v-28.46l-12.32,7.11v-35.57l12.32-7.11v-28.46l-12.32,7.11
		v-35.57l12.32-7.11v-28.46l-12.32,7.11v-35.57l12.32-7.11v-28.46l-12.32,7.11V490.7C275.59,490.7,287.91,483.59,497.38,618.75z"/>
	<path class="st4" d="M472.73,341.32l0.23,5.45l0.69,5.04l1.12,4.61l1.53,4.17l1.92,3.71l2.29,3.24l2.63,2.77l2.96,2.27l3.26,1.77
		l3.54,1.25l3.79,0.72l4.03,0.18l4.24-0.38l4.44-0.95l4.61-1.53l3.15-1.35l4.84-2.52l4.84-3.07l4.71-3.51l4.55-3.92l4.38-4.3
		l4.17-4.63l3.96-4.93l3.71-5.18l3.45-5.4l3.16-5.59l2.85-5.73l2.52-5.84l2.17-5.91l1.79-5.94l1.4-5.93l0.98-5.89l0.41-3.88
		l0.23-5.72l-0.23-5.45l-0.69-5.04l-1.12-4.61l-1.53-4.17l-1.92-3.71l-2.29-3.25l-2.63-2.77l-2.96-2.27l-3.26-1.77l-3.54-1.25
		l-3.79-0.72l-4.03-0.18l-4.24,0.38l-4.44,0.95l-4.61,1.53l-3.15,1.35l-4.84,2.52l-4.84,3.06l-4.71,3.51l-4.55,3.92l-4.38,4.3
		l-4.18,4.63l-3.95,4.93l-3.71,5.18l-3.45,5.4l-3.16,5.59l-2.85,5.73l-2.52,5.84l-2.17,5.91l-1.79,5.94l-1.4,5.93l-0.98,5.88
		C473.38,331.71,472.97,335.59,472.73,341.32z"/>
	<line class="st4" x1="275.59" y1="448.02" x2="287.91" y2="455.14"/>
	<line class="st4" x1="457.83" y1="297.29" x2="470.15" y2="304.41"/>
	<line class="st4" x1="503.65" y1="238.44" x2="515.97" y2="245.55"/>
	<line class="st4" x1="509.7" y1="469.36" x2="522.02" y2="476.48"/>
	<line class="st4" x1="318.72" y1="707.67" x2="331.04" y2="714.79"/>
	<line class="st4" x1="263.27" y1="647.21" x2="275.59" y2="654.32"/>
	<line class="st4" x1="492.66" y1="369" x2="504.98" y2="376.11"/>
	<line class="st4" x1="523.8" y1="352.15" x2="536.12" y2="359.27"/>
	<line class="st4" x1="549.47" y1="316.39" x2="561.79" y2="323.51"/>
	<line class="st4" x1="558.98" y1="277.29" x2="571.3" y2="284.41"/>
	<line class="st4" x1="551.19" y1="251.07" x2="563.51" y2="258.18"/>
	<path class="st4" d="M782.82,667.41l172.5-99.59l0.31-0.18l-0.23-3.42l-0.08-3.52l0.29-7.15l0.86-7.29l1.4-7.38l1.92-7.42l2.4-7.41
		l2.86-7.36l3.29-7.26l3.7-7.11l4.07-6.91l4.42-6.67l4.74-6.38l5.04-6.04l5.31-5.65l5.55-5.22l5.76-4.74l3.94-2.87l6.05-3.83
		l6.05-3.15l5.88-2.4l5.69-1.67l5.47-0.95l5.22-0.24l4.94,0.45l4.64,1.12l4.31,1.78l3.95,2.42l3.57,3.05l3.15,3.66l2.71,4.25
		l2.24,4.83l1.75,5.39l1.23,5.94l0.51,4.26l0.29,6.82l-0.29,7.15l-0.86,7.29l-1.4,7.38l-1.92,7.42l-2.4,7.42l-2.86,7.36l-3.29,7.26
		l-3.7,7.11l-4.07,6.91l-4.42,6.67l-4.74,6.38l-5.04,6.04l-5.31,5.65l-5.54,5.22l-5.76,4.74l-3.94,2.87l-6.05,3.83v28.45v7.11v28.45
		l-12.32,7.11v28.46l12.32-7.11v35.57l-12.32,7.11v28.46l12.32-7.11v35.57l-12.32,7.11v28.46l-12.32,7.11V816.8l-30.8,17.79v14.23
		l-24.64,14.23v-14.23l-30.8,17.78v14.23l-24.64,14.23v-14.23l-30.8,17.78v14.23l-24.64,14.23v-14.23l-30.8,17.78v14.23l-12.32,7.11
		v-28.45l-12.32,7.11v-35.57l12.32-7.11v-28.45l-12.32,7.11v-35.57l12.32-7.11v-28.46l-12.32,7.11v-35.57l12.32-7.11v-28.46
		l-12.32,7.11v-35.57C770.5,702.98,782.82,695.87,782.82,667.41z"/>
	<path class="st4" d="M706.84,476.48l0.23,5.45l0.69,5.04l1.12,4.61l1.53,4.17l1.92,3.71l2.29,3.24l2.63,2.76l2.96,2.27l3.26,1.77
		l3.54,1.25l3.79,0.72l4.03,0.18l4.24-0.38l4.44-0.95l4.61-1.53l3.15-1.35l4.84-2.52l4.84-3.07l4.71-3.51l4.55-3.92l4.38-4.3
		l4.18-4.63l3.96-4.93l3.71-5.18l3.45-5.4l3.16-5.59l2.85-5.73l2.52-5.84l2.17-5.91l1.79-5.94l1.4-5.93l0.98-5.88l0.41-3.88
		l0.23-5.72l-0.23-5.45l-0.69-5.04l-1.12-4.61l-1.53-4.17l-1.92-3.71l-2.29-3.24l-2.64-2.76l-2.96-2.27l-3.26-1.77l-3.54-1.25
		l-3.8-0.72l-4.03-0.18l-4.24,0.38l-4.44,0.95l-4.61,1.53l-3.15,1.35l-4.84,2.52l-4.84,3.07l-4.71,3.51l-4.55,3.92l-4.37,4.3
		l-4.18,4.63l-3.96,4.93l-3.71,5.18l-3.45,5.4l-3.16,5.59l-2.85,5.73l-2.52,5.84l-2.17,5.91l-1.79,5.94l-1.4,5.93l-0.98,5.88
		C707.48,466.87,707.07,470.75,706.84,476.48z"/>
	<polyline class="st4" points="509.7,583.18 682.2,483.59 682.5,483.41 682.27,479.99 682.2,476.48 682.49,469.32 683.35,462.03 
		684.75,454.65 686.67,447.23 689.07,439.82 691.93,432.45 695.23,425.2 698.92,418.09 703,411.17 707.42,404.5 712.16,398.12 
		717.2,392.08 722.51,386.43 728.05,381.21 733.81,376.47 737.75,373.6 743.8,369.77 749.85,366.62 755.74,364.21 761.43,362.55 
		766.89,361.6 772.11,361.36 777.06,361.82 781.7,362.94 786.01,364.72 	"/>
	<line class="st4" x1="509.7" y1="867.73" x2="509.7" y2="846.39"/>
	<polyline class="st4" points="497.38,846.39 497.38,810.82 509.7,803.71 509.7,782.37 	"/>
	<polyline class="st4" points="497.38,782.37 497.38,746.8 509.7,739.68 509.7,718.34 	"/>
	<polyline class="st4" points="497.38,718.34 497.38,682.78 509.7,675.66 509.7,654.32 	"/>
	<path class="st4" d="M497.38,654.32v-35.57C497.38,618.75,509.7,611.64,497.38,654.32z"/>
	<polyline class="st4" points="718.49,504.36 722.52,504.54 726.77,504.16 731.2,503.22 735.81,501.69 738.96,500.34 743.8,497.82 
		748.64,494.75 753.35,491.24 757.9,487.32 762.28,483.02 766.45,478.39 770.41,473.46 774.12,468.28 777.57,462.87 780.73,457.29 
		783.58,451.55 786.1,445.71 788.27,439.81 790.06,433.87 791.46,427.94 792.44,422.06 792.85,418.18 793.09,412.45 792.85,407 
		792.16,401.96 791.04,397.35 789.51,393.19 787.59,389.48 785.3,386.23 784.22,385.09 	"/>
	<line class="st4" x1="522.02" y1="590.3" x2="509.7" y2="583.18"/>
	<line class="st4" x1="704.25" y1="439.57" x2="691.93" y2="432.45"/>
	<line class="st4" x1="750.07" y1="380.72" x2="737.75" y2="373.6"/>
	<line class="st4" x1="756.12" y1="611.64" x2="743.8" y2="604.52"/>
	<line class="st4" x1="565.14" y1="849.95" x2="552.82" y2="842.83"/>
	<line class="st4" x1="509.7" y1="789.48" x2="497.38" y2="782.37"/>
	<line class="st4" x1="739.09" y1="511.28" x2="726.77" y2="504.16"/>
	<line class="st4" x1="770.22" y1="494.43" x2="757.9" y2="487.32"/>
	<line class="st4" x1="795.9" y1="458.67" x2="783.58" y2="451.55"/>
	<line class="st4" x1="805.41" y1="419.57" x2="793.09" y2="412.45"/>
	<line class="st4" x1="797.62" y1="393.34" x2="785.3" y2="386.23"/>
	<line class="st4" x1="481.61" y1="368.67" x2="484.39" y2="369.2"/>
	<line class="st4" x1="715.71" y1="503.83" x2="718.49" y2="504.36"/>
	<g class="st1">
		<polygon class="st3" points="497.38,604.52 509.7,583.18 522.02,604.52 522.02,618.75 		"/>
		<polygon class="st3" points="497.38,604.52 497.38,576.07 509.7,583.18 		"/>
		<polygon class="st3" points="509.7,583.18 552.82,622.31 522.02,604.52 		"/>
		<polygon class="st3" points="577.46,636.53 577.46,650.76 552.82,636.53 552.82,622.31 		"/>
		<polygon class="st3" points="509.7,519.16 509.7,547.61 497.38,540.5 497.38,512.04 		"/>
		<polygon class="st3" points="552.82,622.31 509.7,583.18 509.7,547.61 577.46,636.53 		"/>
		<polygon class="st3" points="577.46,636.53 509.7,547.61 509.7,519.16 608.27,654.32 		"/>
		<polygon class="st3" points="608.27,654.32 632.91,668.55 632.91,682.78 608.27,668.55 		"/>
		<polygon class="st3" points="608.27,654.32 509.7,519.16 509.7,483.59 632.91,668.55 		"/>
		<polygon class="st3" points="509.7,455.14 509.7,483.59 497.38,476.48 497.38,448.02 		"/>
		<polygon class="st3" points="663.71,686.33 688.36,700.56 688.36,714.79 663.71,700.56 		"/>
		<polygon class="st3" points="719.16,718.34 731.48,711.23 743.8,746.8 719.16,732.57 		"/>
		<polygon class="st3" points="731.48,711.23 743.8,718.34 743.8,746.8 		"/>
		<polygon class="st3" points="731.48,675.66 731.48,711.23 719.16,718.34 688.36,700.56 		"/>
		<polygon class="st3" points="663.71,686.33 731.48,647.21 731.48,675.66 688.36,700.56 		"/>
		<polygon class="st3" points="731.48,647.21 743.8,654.32 743.8,682.78 731.48,675.66 		"/>
		<polygon class="st3" points="731.48,611.64 731.48,647.21 663.71,686.33 		"/>
		<polygon class="st3" points="632.91,668.55 731.48,583.18 731.48,611.64 663.71,686.33 		"/>
		<polygon class="st3" points="632.91,668.55 509.7,483.59 509.7,455.14 731.48,583.18 		"/>
		<polygon class="st3" points="731.48,583.18 743.8,590.3 743.8,618.75 731.48,611.64 		"/>
		<polygon class="st3" points="731.48,583.18 509.7,455.14 509.7,426.68 731.48,554.73 		"/>
		<polygon class="st3" points="509.7,426.68 509.7,419.57 731.48,547.61 731.48,554.73 		"/>
		<polygon class="st3" points="731.48,547.61 509.7,419.57 509.7,391.11 731.48,519.16 		"/>
		<polygon class="st3" points="509.7,391.11 509.7,355.54 731.48,483.59 731.48,519.16 		"/>
		<polygon class="st3" points="731.48,483.59 509.7,355.54 509.7,327.09 731.48,455.14 		"/>
	</g>
	<g class="st1">
		<polyline class="st2" points="509.7,327.09 731.48,455.14 731.48,483.59 731.48,519.16 731.48,547.61 731.48,554.73 
			731.48,583.18 743.8,590.3 743.8,618.75 		"/>
		<polyline class="st2" points="731.48,675.66 731.48,711.23 743.8,718.34 743.8,746.8 		"/>
		<polyline class="st2" points="731.48,611.64 731.48,647.21 743.8,654.32 743.8,682.78 		"/>
		<polyline class="st2" points="509.7,519.16 509.7,483.59 497.38,476.48 497.38,448.02 		"/>
		<polyline class="st2" points="509.7,583.18 509.7,547.61 497.38,540.5 497.38,512.04 		"/>
		<polyline class="st2" points="688.36,714.79 663.71,700.56 663.71,686.33 632.91,668.55 		"/>
		<polyline class="st2" points="509.7,455.14 509.7,426.68 509.7,419.57 509.7,391.11 509.7,355.54 509.7,327.09 		"/>
		<polyline class="st2" points="743.8,746.8 719.16,732.57 719.16,718.34 688.36,700.56 		"/>
		<polyline class="st2" points="522.02,618.75 497.38,604.52 497.38,576.07 		"/>
		<polyline class="st2" points="577.46,650.76 552.82,636.53 552.82,622.31 522.02,604.52 		"/>
		<polyline class="st2" points="632.91,682.78 608.27,668.55 608.27,654.32 577.46,636.53 		"/>
		<line class="st2" x1="577.46" y1="650.76" x2="577.46" y2="636.53"/>
		<line class="st2" x1="688.36" y1="700.56" x2="688.36" y2="714.79"/>
		<line class="st2" x1="522.02" y1="618.75" x2="522.02" y2="604.52"/>
		<line class="st2" x1="632.91" y1="668.55" x2="632.91" y2="682.78"/>
		<line class="st2" x1="743.8" y1="682.78" x2="731.48" y2="675.66"/>
		<line class="st2" x1="497.38" y1="448.02" x2="509.7" y2="455.14"/>
		<line class="st2" x1="509.7" y1="519.16" x2="497.38" y2="512.04"/>
		<line class="st2" x1="509.7" y1="583.18" x2="497.38" y2="576.07"/>
	</g>
	<g class="st1">
		<polygon class="st3" points="497.38,604.52 509.7,597.41 522.02,604.52 		"/>
		<polygon class="st3" points="522.02,604.52 534.34,597.41 565.14,615.19 552.82,622.31 		"/>
		<polygon class="st3" points="497.38,604.52 466.57,622.31 454.25,615.19 485.05,597.41 		"/>
		<polygon class="st3" points="466.57,622.31 497.38,604.52 522.02,604.52 552.82,622.31 		"/>
		<polygon class="st3" points="441.93,636.53 466.57,622.31 552.82,622.31 577.46,636.53 		"/>
		<polygon class="st3" points="608.27,654.32 577.46,636.53 589.78,629.42 620.59,647.21 		"/>
		<polygon class="st3" points="441.93,636.53 411.13,654.32 398.8,647.21 429.61,629.42 		"/>
		<polygon class="st3" points="411.13,654.32 441.93,636.53 577.46,636.53 608.27,654.32 		"/>
		<polygon class="st3" points="411.13,654.32 608.27,654.32 632.91,668.55 		"/>
		<polygon class="st3" points="663.71,686.33 632.91,668.55 645.23,661.43 676.03,679.22 		"/>
		<polygon class="st3" points="386.48,668.55 355.68,686.33 343.36,679.22 374.16,661.43 		"/>
		<polygon class="st3" points="719.16,718.34 688.36,700.56 700.68,693.45 731.48,711.23 		"/>
		<polygon class="st3" points="331.04,700.56 300.23,718.34 287.91,711.23 318.72,693.45 		"/>
		<polygon class="st3" points="719.16,718.34 731.48,725.46 719.16,732.57 		"/>
		<polygon class="st3" points="287.91,725.46 300.23,718.34 300.23,732.57 		"/>
		<polygon class="st3" points="688.36,750.35 688.36,700.56 719.16,718.34 719.16,732.57 		"/>
		<polygon class="st3" points="300.23,718.34 331.04,700.56 331.04,750.35 300.23,732.57 		"/>
		<polygon class="st3" points="688.36,750.35 719.16,732.57 731.48,739.68 700.68,757.47 		"/>
		<polygon class="st3" points="300.23,732.57 331.04,750.35 318.72,757.47 287.91,739.68 		"/>
		<polygon class="st3" points="663.71,686.33 688.36,700.56 688.36,750.35 663.71,764.58 		"/>
		<polygon class="st3" points="331.04,700.56 355.68,686.33 355.68,764.58 331.04,750.35 		"/>
		<polygon class="st3" points="632.91,668.55 663.71,686.33 663.71,764.58 632.91,782.37 		"/>
		<polygon class="st3" points="355.68,686.33 386.48,668.55 386.48,782.37 355.68,764.58 		"/>
		<polygon class="st3" points="632.91,782.37 663.71,764.58 676.03,771.7 645.23,789.48 		"/>
		<polygon class="st3" points="355.68,764.58 386.48,782.37 374.16,789.48 343.36,771.7 		"/>
		<polygon class="st3" points="632.91,668.55 632.91,782.37 608.27,796.59 		"/>
		<polygon class="st3" points="411.13,796.59 411.13,654.32 632.91,668.55 608.27,796.59 		"/>
		<polygon class="st3" points="386.48,782.37 386.48,668.55 411.13,654.32 411.13,796.59 		"/>
	</g>
	<g class="st1">
		<polyline class="st2" points="620.59,803.71 589.78,821.49 577.46,814.38 552.82,828.61 		"/>
		<polyline class="st2" points="398.8,647.21 429.61,629.42 441.93,636.53 466.57,622.31 		"/>
		<polyline class="st2" points="343.36,679.22 374.16,661.43 386.48,668.55 411.13,654.32 		"/>
		<polyline class="st2" points="676.03,771.7 645.23,789.48 632.91,782.37 608.27,796.59 		"/>
		<polyline class="st2" points="731.48,739.68 700.68,757.47 688.36,750.35 663.71,764.58 		"/>
		<polyline class="st2" points="287.91,711.23 318.72,693.45 331.04,700.56 355.68,686.33 		"/>
		<polyline class="st2" points="454.25,615.19 485.05,597.41 497.38,604.52 509.7,597.41 522.02,604.52 534.34,597.41 
			565.14,615.19 		"/>
		<polyline class="st2" points="565.14,835.72 534.34,853.5 522.02,846.39 509.7,853.5 497.38,846.39 485.05,853.5 454.25,835.72 		
			"/>
		<polyline class="st2" points="466.57,828.61 441.93,814.38 429.61,821.49 398.8,803.71 		"/>
		<polyline class="st2" points="552.82,622.31 577.46,636.53 589.78,629.42 620.59,647.21 		"/>
		<polyline class="st2" points="608.27,654.32 632.91,668.55 645.23,661.43 676.03,679.22 		"/>
		<polyline class="st2" points="411.13,796.59 386.48,782.37 374.16,789.48 343.36,771.7 		"/>
		<polyline class="st2" points="355.68,764.58 331.04,750.35 318.72,757.47 287.91,739.68 		"/>
		<polyline class="st2" points="663.71,686.33 688.36,700.56 700.68,693.45 731.48,711.23 		"/>
		<line class="st2" x1="719.16" y1="732.57" x2="731.48" y2="739.68"/>
		<line class="st2" x1="343.36" y1="771.7" x2="355.68" y2="764.58"/>
		<line class="st2" x1="411.13" y1="796.59" x2="398.8" y2="803.71"/>
		<line class="st2" x1="398.8" y1="647.21" x2="411.13" y2="654.32"/>
		<line class="st2" x1="355.68" y1="686.33" x2="343.36" y2="679.22"/>
		<line class="st2" x1="300.23" y1="718.34" x2="287.91" y2="711.23"/>
		<line class="st2" x1="300.23" y1="732.57" x2="287.91" y2="725.46"/>
		<line class="st2" x1="287.91" y1="725.46" x2="300.23" y2="718.34"/>
		<line class="st2" x1="663.71" y1="764.58" x2="676.03" y2="771.7"/>
		<line class="st2" x1="287.91" y1="739.68" x2="300.23" y2="732.57"/>
		<line class="st2" x1="565.14" y1="835.72" x2="552.82" y2="828.61"/>
		<line class="st2" x1="620.59" y1="803.71" x2="608.27" y2="796.59"/>
		<line class="st2" x1="731.48" y1="725.46" x2="719.16" y2="732.57"/>
		<line class="st2" x1="731.48" y1="711.23" x2="719.16" y2="718.34"/>
		<line class="st2" x1="676.03" y1="679.22" x2="663.71" y2="686.33"/>
		<line class="st2" x1="552.82" y1="622.31" x2="565.14" y2="615.19"/>
		<line class="st2" x1="454.25" y1="615.19" x2="466.57" y2="622.31"/>
		<line class="st2" x1="608.27" y1="654.32" x2="620.59" y2="647.21"/>
		<line class="st2" x1="466.57" y1="828.61" x2="454.25" y2="835.72"/>
		<line class="st2" x1="719.16" y1="718.34" x2="731.48" y2="725.46"/>
	</g>
	<g class="st1">
		<polygon class="st3" points="565.14,629.42 552.82,636.53 552.82,622.31 565.14,615.19 		"/>
		<polygon class="st3" points="466.57,636.53 454.25,629.42 454.25,615.19 466.57,622.31 		"/>
		<polygon class="st3" points="620.59,661.43 608.27,668.55 608.27,654.32 620.59,647.21 		"/>
		<polygon class="st3" points="632.91,682.78 645.23,675.66 645.23,661.43 632.91,668.55 		"/>
		<polygon class="st3" points="374.16,675.66 386.48,682.78 386.48,668.55 374.16,661.43 		"/>
		<polygon class="st3" points="688.36,714.79 700.68,707.67 700.68,693.45 688.36,700.56 		"/>
		<polygon class="st3" points="318.72,707.67 331.04,714.79 331.04,700.56 318.72,693.45 		"/>
		<polygon class="st3" points="700.68,771.7 688.36,764.58 688.36,750.35 700.68,757.47 		"/>
		<polygon class="st3" points="331.04,764.58 318.72,771.7 318.72,757.47 331.04,750.35 		"/>
		<polygon class="st3" points="386.48,796.59 374.16,803.71 374.16,789.48 386.48,782.37 		"/>
		<polygon class="st3" points="608.27,810.82 620.59,817.94 620.59,803.71 608.27,796.59 		"/>
		<polygon class="st3" points="398.8,817.94 411.13,810.82 411.13,796.59 398.8,803.71 		"/>
	</g>
	<g class="st1">
		<polyline class="st2" points="676.03,771.7 645.23,789.48 632.91,782.37 608.27,796.59 		"/>
		<polyline class="st2" points="565.14,835.72 534.34,853.5 522.02,846.39 509.7,853.5 497.38,846.39 485.05,853.5 454.25,835.72 		
			"/>
		<polyline class="st2" points="731.48,739.68 700.68,757.47 688.36,750.35 663.71,764.58 		"/>
		<polyline class="st2" points="355.68,764.58 331.04,750.35 318.72,757.47 287.91,739.68 		"/>
		<polyline class="st2" points="411.13,796.59 386.48,782.37 374.16,789.48 343.36,771.7 		"/>
		<polyline class="st2" points="466.57,828.61 441.93,814.38 429.61,821.49 398.8,803.71 		"/>
		<polyline class="st2" points="589.78,835.72 589.78,821.49 577.46,814.38 552.82,828.61 		"/>
		<polyline class="st2" points="608.27,654.32 620.59,661.43 632.91,668.55 645.23,661.43 676.03,679.22 676.03,693.45 
			688.36,700.56 700.68,693.45 731.48,711.23 731.48,725.46 731.48,739.68 731.48,753.91 700.68,771.7 688.36,764.58 676.03,771.7 
			676.03,785.92 645.23,803.71 632.91,796.59 620.59,803.71 620.59,817.94 589.78,835.72 577.46,828.61 565.14,835.72 
			565.14,849.95 534.34,867.73 522.02,860.62 509.7,867.73 497.38,860.62 485.05,867.73 454.25,849.95 454.25,835.72 441.93,828.61 
			429.61,835.72 398.8,817.94 398.8,803.71 386.48,796.59 374.16,803.71 343.36,785.92 343.36,771.7 331.04,764.58 318.72,771.7 
			287.91,753.91 287.91,739.68 287.91,725.46 287.91,711.23 318.72,693.45 331.04,700.56 343.36,693.45 343.36,679.22 
			374.16,661.43 386.48,668.55 398.8,661.43 398.8,647.21 429.61,629.42 441.93,636.53 454.25,629.42 454.25,615.19 485.05,597.41 
			497.38,604.52 509.7,597.41 522.02,604.52 534.34,597.41 565.14,615.19 565.14,629.42 577.46,636.53 589.78,629.42 620.59,647.21 
			620.59,661.43 		"/>
	</g>
	<g class="st1">
		<polygon class="st3" points="497.38,604.52 509.7,583.18 509.7,611.64 497.38,618.75 		"/>
		<polygon class="st3" points="509.7,547.61 509.7,583.18 497.38,604.52 466.57,622.31 		"/>
		<polygon class="st3" points="509.7,583.18 509.7,547.61 522.02,540.5 522.02,576.07 		"/>
		<polygon class="st3" points="441.93,636.53 466.57,622.31 466.57,636.53 441.93,650.76 		"/>
		<polygon class="st3" points="441.93,636.53 509.7,519.16 509.7,547.61 466.57,622.31 		"/>
		<polygon class="st3" points="509.7,483.59 509.7,519.16 441.93,636.53 		"/>
		<polygon class="st3" points="509.7,483.59 522.02,476.48 522.02,512.04 509.7,519.16 		"/>
		<polygon class="st3" points="411.13,654.32 509.7,455.14 509.7,483.59 441.93,636.53 		"/>
		<polygon class="st3" points="411.13,654.32 411.13,668.55 386.48,682.78 386.48,668.55 		"/>
		<polygon class="st3" points="522.02,419.57 522.02,448.02 509.7,455.14 		"/>
		<polygon class="st3" points="522.02,412.45 522.02,419.57 509.7,455.14 		"/>
		<polygon class="st3" points="566.9,335.68 562.83,342.6 555.78,334.83 558.94,329.24 		"/>
		<polygon class="st3" points="562.83,342.6 558.4,349.27 552.33,340.23 555.78,334.83 		"/>
		<polygon class="st3" points="570.59,328.57 566.9,335.68 558.94,329.24 561.79,323.51 		"/>
		<polygon class="st3" points="558.4,349.27 553.66,355.64 548.62,345.42 552.33,340.23 		"/>
		<polygon class="st3" points="573.89,321.31 570.59,328.57 561.79,323.51 564.32,317.67 		"/>
		<polygon class="st3" points="553.66,355.64 548.62,361.68 544.67,350.34 548.62,345.42 		"/>
		<polygon class="st3" points="576.75,313.95 573.89,321.31 564.32,317.67 566.48,311.76 		"/>
		<polygon class="st3" points="548.62,361.68 543.31,367.34 540.49,354.97 544.67,350.34 		"/>
		<polygon class="st3" points="579.15,306.54 576.75,313.95 566.48,311.76 568.28,305.82 		"/>
		<polygon class="st3" points="543.31,367.34 537.77,372.56 536.12,359.27 540.49,354.97 		"/>
		<polygon class="st3" points="581.07,299.12 579.15,306.54 568.28,305.82 569.68,299.89 		"/>
		<polygon class="st3" points="537.77,372.56 532.01,377.3 531.57,363.19 536.12,359.27 		"/>
		<polygon class="st3" points="582.47,291.74 581.07,299.12 569.68,299.89 570.66,294.01 		"/>
		<polygon class="st3" points="532.01,377.3 528.07,380.17 526.86,366.7 531.57,363.19 		"/>
		<polygon class="st3" points="583.33,284.45 582.47,291.74 570.66,294.01 571.07,290.13 		"/>
		<polygon class="st3" points="526.86,366.7 528.07,380.17 522.02,384 522.02,369.77 		"/>
		<polygon class="st3" points="583.62,277.29 583.33,284.45 571.07,290.13 571.3,284.41 		"/>
		<polygon class="st3" points="355.68,686.33 355.68,700.56 331.04,714.79 331.04,700.56 		"/>
		<polygon class="st3" points="571.07,278.95 583.33,270.48 583.62,277.29 571.3,284.41 		"/>
		<polygon class="st3" points="522.02,384 517.18,372.29 522.02,369.77 		"/>
		<polygon class="st3" points="522.02,384 514.02,373.64 517.18,372.29 		"/>
		<polygon class="st3" points="582.82,266.22 583.33,270.48 571.07,278.95 570.38,273.92 		"/>
		<polygon class="st3" points="522.02,384 509.42,375.17 514.02,373.64 		"/>
		<polygon class="st3" points="581.59,260.28 582.82,266.22 570.38,273.92 569.26,269.31 		"/>
		<polygon class="st3" points="522.02,384 504.98,376.11 509.42,375.17 		"/>
		<polygon class="st3" points="579.84,254.88 581.59,260.28 569.26,269.31 567.72,265.14 		"/>
		<polygon class="st3" points="504.98,376.11 522.02,384 522.02,412.45 500.74,376.49 		"/>
		<polygon class="st3" points="577.6,250.05 579.84,254.88 567.72,265.14 565.8,261.43 		"/>
		<polygon class="st3" points="522.02,412.45 496.71,376.32 500.74,376.49 		"/>
		<polygon class="st3" points="574.89,245.8 577.6,250.05 565.8,261.43 563.51,258.18 		"/>
		<polygon class="st3" points="496.71,376.32 522.02,412.45 509.7,455.14 492.91,375.6 		"/>
		<polygon class="st3" points="571.74,242.14 574.89,245.8 563.51,258.18 560.88,255.42 		"/>
		<polygon class="st3" points="509.7,455.14 489.37,374.35 492.91,375.6 		"/>
		<polygon class="st3" points="568.17,239.09 571.74,242.14 560.88,255.42 557.92,253.15 		"/>
		<polygon class="st3" points="509.7,455.14 486.11,372.58 489.37,374.35 		"/>
		<polygon class="st3" points="564.22,236.67 568.17,239.09 557.92,253.15 554.66,251.38 		"/>
		<polygon class="st3" points="719.16,732.57 719.16,746.8 731.48,739.68 731.48,711.23 		"/>
		<polygon class="st3" points="300.23,718.34 300.23,732.57 287.91,739.68 287.91,711.23 		"/>
		<polygon class="st3" points="509.7,455.14 483.16,370.3 486.11,372.58 		"/>
		<polygon class="st3" points="559.91,234.89 564.22,236.67 554.66,251.38 551.12,250.13 		"/>
		<polygon class="st3" points="555.27,233.77 559.91,234.89 551.12,250.13 547.33,249.41 		"/>
		<polygon class="st3" points="550.33,233.32 555.27,233.77 547.33,249.41 543.3,249.23 		"/>
		<polygon class="st3" points="545.11,233.56 550.33,233.32 543.3,249.23 539.05,249.61 		"/>
		<polygon class="st3" points="731.48,711.23 743.8,704.12 743.8,668.55 731.48,675.66 		"/>
		<polygon class="st3" points="731.48,675.66 688.36,750.35 719.16,732.57 731.48,711.23 		"/>
		<polygon class="st3" points="331.04,700.56 300.23,718.34 287.91,711.23 287.91,675.66 		"/>
		<polygon class="st3" points="539.64,234.5 545.11,233.56 539.05,249.61 534.62,250.55 		"/>
		<polygon class="st3" points="533.95,236.17 539.64,234.5 534.62,250.55 530.01,252.08 		"/>
		<polygon class="st3" points="287.91,675.66 287.91,711.23 275.59,718.34 275.59,682.78 		"/>
		<polygon class="st3" points="460.72,355.36 474.78,356.41 476.31,360.58 		"/>
		<polygon class="st3" points="460.72,355.36 473.66,351.81 474.78,356.41 		"/>
		<polygon class="st3" points="528.07,238.57 533.95,236.17 530.01,252.08 526.86,253.43 		"/>
		<polygon class="st3" points="460.41,355.54 480.52,367.54 483.16,370.3 		"/>
		<polygon class="st3" points="460.41,355.54 478.23,364.29 480.52,367.54 		"/>
		<polygon class="st3" points="460.41,355.54 460.72,355.36 476.31,360.58 478.23,364.29 		"/>
		<polygon class="st3" points="460.72,355.36 460.49,351.95 472.97,346.77 473.66,351.81 		"/>
		<polygon class="st3" points="663.71,764.58 663.71,778.81 688.36,764.58 688.36,750.35 		"/>
		<polygon class="st3" points="663.71,764.58 688.36,750.35 731.48,675.66 731.48,647.21 		"/>
		<polygon class="st3" points="522.02,241.72 528.07,238.57 526.86,253.43 522.02,255.95 		"/>
		<polygon class="st3" points="460.49,351.95 460.41,348.43 472.73,341.32 472.97,346.77 		"/>
		<polygon class="st3" points="355.68,686.33 331.04,700.56 287.91,675.66 287.91,647.21 		"/>
		<polygon class="st3" points="517.18,259.02 515.97,245.55 522.02,241.72 522.02,255.95 		"/>
		<polygon class="st3" points="460.41,348.43 460.7,341.27 472.97,335.59 472.73,341.32 		"/>
		<polygon class="st3" points="517.18,259.02 512.47,262.53 512.03,248.42 515.97,245.55 		"/>
		<polygon class="st3" points="460.7,341.27 461.57,333.98 473.38,331.71 472.97,335.59 		"/>
		<polygon class="st3" points="512.47,262.53 507.92,266.45 506.27,253.16 512.03,248.42 		"/>
		<polygon class="st3" points="461.57,333.98 462.97,326.6 474.36,325.83 473.38,331.71 		"/>
		<polygon class="st3" points="507.92,266.45 503.54,270.75 500.72,258.38 506.27,253.16 		"/>
		<polygon class="st3" points="475.76,319.9 474.36,325.83 462.97,326.6 464.89,319.18 		"/>
		<polygon class="st3" points="503.54,270.75 499.37,275.38 495.42,264.04 500.72,258.38 		"/>
		<polygon class="st3" points="477.55,313.96 475.76,319.9 464.89,319.18 467.29,311.77 		"/>
		<polygon class="st3" points="499.37,275.38 495.41,280.31 490.38,270.08 495.42,264.04 		"/>
		<polygon class="st3" points="479.72,308.05 477.55,313.96 467.29,311.77 470.15,304.41 		"/>
		<polygon class="st3" points="495.41,280.31 491.7,285.49 485.63,276.45 490.38,270.08 		"/>
		<polygon class="st3" points="482.24,302.21 479.72,308.05 470.15,304.41 473.44,297.15 		"/>
		<polygon class="st3" points="491.7,285.49 488.25,290.9 481.21,283.12 485.63,276.45 		"/>
		<polygon class="st3" points="488.25,290.9 485.09,296.48 477.14,290.04 481.21,283.12 		"/>
		<polygon class="st3" points="485.09,296.48 482.24,302.21 473.44,297.15 477.14,290.04 		"/>
		<polygon class="st3" points="731.48,611.64 663.71,764.58 731.48,647.21 		"/>
		<polygon class="st3" points="731.48,611.64 731.48,647.21 743.8,640.09 743.8,604.52 		"/>
		<polygon class="st3" points="386.48,668.55 355.68,686.33 287.91,647.21 287.91,611.64 		"/>
		<polygon class="st3" points="287.91,647.21 275.59,654.32 275.59,618.75 287.91,611.64 		"/>
		<polygon class="st3" points="632.91,782.37 663.71,764.58 731.48,611.64 731.48,583.18 		"/>
		<polygon class="st3" points="632.91,782.37 608.27,796.59 608.27,810.82 632.91,796.59 		"/>
		<polygon class="st3" points="287.91,583.18 411.13,654.32 386.48,668.55 287.91,611.64 		"/>
		<polygon class="st3" points="509.7,455.14 411.13,654.32 287.91,583.18 483.16,370.3 		"/>
		<polygon class="st3" points="743.8,547.61 731.48,583.18 743.8,576.07 		"/>
		<polygon class="st3" points="287.91,547.61 460.41,355.54 483.16,370.3 287.91,583.18 		"/>
		<polygon class="st3" points="460.41,355.54 287.91,547.61 287.91,519.16 		"/>
		<polygon class="st3" points="460.41,355.54 287.91,519.16 287.91,483.59 		"/>
		<polygon class="st3" points="287.91,455.14 460.41,355.54 287.91,483.59 		"/>
		<polygon class="st3" points="509.7,711.23 509.7,739.68 608.27,796.59 632.91,782.37 		"/>
		<polygon class="st3" points="731.48,583.18 704.94,498.35 509.7,711.23 632.91,782.37 		"/>
	</g>
	<g class="st1">
		<polyline class="st2" points="497.38,718.34 497.38,682.78 509.7,675.66 509.7,661.43 		"/>
		<polyline class="st2" points="275.59,590.3 275.59,554.73 287.91,547.61 287.91,519.16 		"/>
		<polyline class="st2" points="331.04,700.56 300.23,718.34 300.23,732.57 287.91,739.68 		"/>
		<polyline class="st2" points="497.38,654.32 497.38,618.75 509.7,611.64 509.7,583.18 522.02,576.07 682.35,483.5 682.27,479.99 
			682.2,476.48 682.49,469.32 683.35,462.03 684.75,454.65 686.67,447.23 689.07,439.82 691.93,432.45 695.23,425.2 698.92,418.09 
			703,411.17 707.42,404.5 712.16,398.12 717.2,392.08 722.51,386.43 728.05,381.21 733.81,376.47 737.75,373.6 743.8,369.77 
			749.85,366.62 755.74,364.21 761.43,362.55 766.89,361.6 772.11,361.36 777.06,361.82 781.7,362.94 786.01,364.72 		"/>
		<polyline class="st2" points="497.38,782.37 497.38,746.8 509.7,739.68 509.7,725.46 		"/>
		<polyline class="st2" points="275.59,654.32 275.59,618.75 287.91,611.64 287.91,583.18 		"/>
		<polyline class="st2" points="275.59,718.34 275.59,682.78 287.91,675.66 287.91,647.21 		"/>
		<polyline class="st2" points="386.48,668.55 355.68,686.33 355.68,700.56 331.04,714.79 		"/>
		<polyline class="st2" points="441.93,636.53 411.13,654.32 411.13,668.55 386.48,682.78 		"/>
		<polyline class="st2" points="497.38,604.52 466.57,622.31 466.57,636.53 441.93,650.76 		"/>
		<polyline class="st2" points="497.38,846.39 497.38,810.82 509.7,803.71 509.7,789.48 		"/>
		<line class="st2" x1="287.91" y1="739.68" x2="287.91" y2="711.23"/>
		<polyline class="st2" points="509.7,547.61 509.7,519.16 522.02,512.04 522.02,476.48 		"/>
		<polyline class="st2" points="509.7,483.59 509.7,455.14 522.02,448.02 522.02,419.57 522.02,412.45 522.02,384 528.07,380.17 
			532.01,377.3 537.77,372.56 543.31,367.34 548.62,361.68 553.66,355.64 558.4,349.27 562.83,342.6 566.9,335.68 570.59,328.57 
			573.89,321.31 576.75,313.95 579.15,306.54 581.07,299.12 582.47,291.74 583.33,284.45 583.62,277.29 583.33,270.48 
			582.82,266.22 581.59,260.28 579.84,254.88 577.6,250.05 574.89,245.8 571.74,242.14 568.17,239.09 564.22,236.67 559.91,234.89 
			555.27,233.77 550.33,233.32 545.11,233.56 539.64,234.5 533.95,236.17 528.07,238.57 522.02,241.72 515.97,245.55 512.03,248.42 
			506.27,253.16 500.72,258.38 495.42,264.04 490.38,270.08 485.63,276.45 481.21,283.12 477.14,290.04 473.44,297.15 
			470.15,304.41 467.29,311.77 464.89,319.18 462.97,326.6 461.57,333.98 460.7,341.27 460.41,348.43 460.49,351.95 460.57,355.45 
			287.91,455.14 287.91,483.59 275.59,490.7 275.59,526.27 		"/>
		<line class="st2" x1="509.7" y1="547.61" x2="522.02" y2="540.5"/>
		<line class="st2" x1="509.7" y1="867.73" x2="509.7" y2="853.5"/>
		<line class="st2" x1="331.04" y1="714.79" x2="331.04" y2="700.56"/>
		<line class="st2" x1="386.48" y1="682.78" x2="386.48" y2="668.55"/>
		<line class="st2" x1="441.93" y1="650.76" x2="441.93" y2="636.53"/>
		<line class="st2" x1="497.38" y1="618.75" x2="497.38" y2="604.52"/>
		<line class="st2" x1="287.91" y1="711.23" x2="275.59" y2="718.34"/>
		<line class="st2" x1="275.59" y1="590.3" x2="287.91" y2="583.18"/>
		<line class="st2" x1="275.59" y1="654.32" x2="287.91" y2="647.21"/>
		<polyline class="st2" points="540.49,354.97 544.67,350.34 548.62,345.42 552.33,340.23 555.78,334.83 558.94,329.24 
			561.79,323.51 564.32,317.67 566.48,311.76 568.28,305.82 569.68,299.89 570.66,294.01 571.07,290.13 571.3,284.41 571.07,278.95 
			570.38,273.92 569.26,269.31 567.72,265.14 565.8,261.43 563.51,258.18 560.88,255.42 557.92,253.15 554.66,251.38 551.12,250.13 
			547.33,249.41 543.3,249.23 539.05,249.61 534.62,250.55 530.01,252.08 526.86,253.43 522.02,255.95 517.18,259.02 512.47,262.53 
			507.92,266.45 503.54,270.75 499.37,275.38 495.41,280.31 491.7,285.49 488.25,290.9 485.09,296.48 482.24,302.21 479.72,308.05 
			477.55,313.96 475.76,319.9 474.36,325.83 473.38,331.71 472.97,335.59 472.73,341.32 472.97,346.77 473.66,351.81 474.78,356.41 
			476.31,360.58 478.23,364.29 480.52,367.54 483.16,370.3 486.11,372.58 489.37,374.35 492.91,375.6 496.71,376.32 500.74,376.49 
			504.98,376.11 509.42,375.17 514.02,373.64 517.18,372.29 522.02,369.77 526.86,366.7 531.57,363.19 536.12,359.27 540.49,354.97 
					"/>
		<polyline class="st2" points="784.22,385.09 785.3,386.23 787.59,389.48 789.51,393.19 791.04,397.35 792.16,401.96 792.85,407 
			793.09,412.45 792.85,418.18 792.44,422.06 791.46,427.94 790.06,433.87 788.27,439.81 786.1,445.71 783.58,451.55 780.73,457.29 
			777.57,462.87 774.12,468.28 770.41,473.46 766.45,478.39 762.28,483.02 757.9,487.32 753.35,491.24 748.64,494.75 743.8,497.82 
			738.96,500.34 735.81,501.69 731.2,503.22 726.77,504.16 722.52,504.54 718.49,504.36 715.71,503.83 		"/>
	</g>
	<g class="st1">
		<polyline class="st2" points="475.93,366.7 472.77,364.76 469.92,362.32 467.4,359.39 465.23,355.99 463.43,352.13 462.04,347.81 
			461.06,343.06 460.65,339.65 460.41,334.2 460.65,328.48 461.33,322.64 462.46,316.74 463.99,310.8 465.91,304.87 468.2,298.98 
			470.84,293.18 473.79,287.49 477.05,281.96 480.59,276.62 484.39,271.52 488.42,266.69 492.66,262.17 497.1,257.99 501.7,254.2 
			504.86,251.9 509.7,248.84 514.54,246.31 519.24,244.39 523.8,243.06 528.17,242.3 532.35,242.11 536.3,242.47 540.01,243.37 
			543.46,244.79 		"/>
		<path class="st2" d="M571.3,284.41l-0.23,5.72l-0.69,5.83l-1.12,5.9l-1.53,5.94l-1.92,5.93l-2.29,5.89l-2.63,5.81l-2.96,5.69
			l-3.26,5.53l-3.54,5.34l-3.79,5.1l-4.03,4.83l-4.24,4.52l-4.44,4.18l-4.61,3.79l-3.15,2.29l-4.84,3.07l-4.84,2.52l-4.71,1.92
			l-4.55,1.33l-4.38,0.76l-4.18,0.19l-3.95-0.36l-3.71-0.9l-3.45-1.42l-3.16-1.94l-2.85-2.44l-2.52-2.93l-2.17-3.4l-1.79-3.86
			l-1.4-4.32l-0.98-4.75l-0.41-3.4l-0.23-5.45l0.23-5.73l0.69-5.83l1.12-5.9l1.53-5.94l1.92-5.93l2.29-5.89l2.63-5.81l2.96-5.69
			l3.26-5.53l3.54-5.34l3.79-5.1l4.03-4.83l4.24-4.52l4.44-4.18l4.61-3.79l3.15-2.3l4.84-3.06l4.84-2.52l4.71-1.92l4.55-1.33
			l4.38-0.76l4.17-0.19l3.96,0.36l3.71,0.9l3.45,1.42l3.16,1.94l2.85,2.44l2.52,2.93l2.17,3.4l1.79,3.87l1.4,4.32l0.98,4.75
			C570.66,275.55,571.07,278.95,571.3,284.41z"/>
		<path class="st2" d="M542.55,308.12l-41.07,23.71V317.6C501.48,317.6,542.55,293.89,542.55,308.12z"/>
		<line class="st2" x1="469.92" y1="362.32" x2="482.24" y2="369.44"/>
		<line class="st2" x1="460.41" y1="334.2" x2="472.73" y2="341.32"/>
		<line class="st2" x1="468.2" y1="298.98" x2="480.52" y2="306.1"/>
		<line class="st2" x1="492.66" y1="262.17" x2="504.98" y2="269.28"/>
		<line class="st2" x1="523.8" y1="243.06" x2="536.12" y2="250.17"/>
		<line class="st2" x1="530.23" y1="301.01" x2="542.55" y2="308.12"/>
		<line class="st2" x1="530.23" y1="301.01" x2="542.55" y2="308.12"/>
		<line class="st2" x1="530.23" y1="301.01" x2="542.55" y2="308.12"/>
		<path class="st2" d="M805.41,419.57l-0.23,5.72l-0.69,5.83l-1.12,5.9l-1.53,5.94l-1.92,5.93l-2.29,5.89l-2.64,5.81l-2.96,5.69
			l-3.26,5.53l-3.54,5.34l-3.8,5.1l-4.03,4.83l-4.24,4.52l-4.44,4.18l-4.61,3.79l-3.15,2.29l-4.84,3.07l-4.84,2.52l-4.71,1.92
			l-4.55,1.33l-4.37,0.75l-4.18,0.19l-3.96-0.36l-3.71-0.9l-3.45-1.43l-3.16-1.94l-2.85-2.44l-2.52-2.93l-2.17-3.4l-1.79-3.86
			l-1.4-4.32l-0.98-4.75l-0.41-3.4l-0.23-5.45l0.23-5.72l0.69-5.83l1.12-5.9l1.53-5.94l1.92-5.93l2.29-5.89l2.63-5.81l2.96-5.69
			l3.26-5.53l3.54-5.34l3.79-5.1l4.03-4.83l4.24-4.52l4.44-4.18l4.61-3.79l3.15-2.29l4.84-3.07l4.84-2.52l4.71-1.92l4.55-1.33
			l4.38-0.76l4.18-0.19l3.96,0.36l3.71,0.9l3.45,1.43l3.16,1.94l2.85,2.44l2.52,2.93l2.17,3.4l1.79,3.87l1.4,4.31l0.98,4.75
			C804.76,410.71,805.17,414.11,805.41,419.57z"/>
		<path class="st2" d="M776.66,443.28l-41.07,23.71v-14.23C735.59,452.76,776.66,429.05,776.66,443.28z"/>
		<polyline class="st2" points="710.04,501.86 706.88,499.92 704.03,497.48 701.5,494.56 699.34,491.15 697.54,487.29 
			696.14,482.97 695.16,478.22 694.75,474.82 694.52,469.36 694.75,463.64 695.44,457.8 696.56,451.9 698.1,445.96 700.02,440.03 
			702.31,434.14 704.94,428.34 707.9,422.65 711.16,417.12 714.7,411.78 718.49,406.68 722.52,401.85 726.77,397.33 731.2,393.15 
			735.81,389.36 738.96,387.06 743.8,384 748.64,381.47 753.35,379.55 757.9,378.22 762.28,377.46 766.45,377.27 770.41,377.63 
			774.12,378.53 777.57,379.96 		"/>
		<line class="st2" x1="716.35" y1="504.6" x2="704.03" y2="497.48"/>
		<line class="st2" x1="706.84" y1="476.48" x2="694.52" y2="469.36"/>
		<line class="st2" x1="714.63" y1="441.26" x2="702.31" y2="434.14"/>
		<line class="st2" x1="739.09" y1="404.44" x2="726.77" y2="397.33"/>
		<line class="st2" x1="770.22" y1="385.33" x2="757.9" y2="378.22"/>
		<line class="st2" x1="776.66" y1="443.28" x2="764.34" y2="436.17"/>
		<line class="st2" x1="776.66" y1="443.28" x2="764.34" y2="436.17"/>
		<line class="st2" x1="776.66" y1="443.28" x2="764.34" y2="436.17"/>
	</g>
	<g class="st1">
		<polygon class="st3" points="530.98,344.81 526.73,349.33 539.05,356.44 543.3,351.92 		"/>
		<polygon class="st3" points="526.73,349.33 522.3,353.51 534.62,360.62 539.05,356.44 		"/>
		<polygon class="st3" points="522.3,353.51 517.69,357.3 530.01,364.41 534.62,360.62 		"/>
		<polygon class="st3" points="517.69,357.3 514.54,359.59 526.86,366.7 530.01,364.41 		"/>
		<polygon class="st3" points="514.54,359.59 509.7,362.66 522.02,369.77 526.86,366.7 		"/>
		<polygon class="st3" points="509.7,362.66 504.86,365.18 517.18,372.29 522.02,369.77 		"/>
		<polygon class="st3" points="504.86,365.18 500.15,367.1 512.47,374.22 517.18,372.29 		"/>
		<polygon class="st3" points="500.15,367.1 495.6,368.43 507.92,375.55 512.47,374.22 		"/>
		<polygon class="st3" points="495.6,368.43 491.22,369.19 503.54,376.3 507.92,375.55 		"/>
		<polygon class="st3" points="491.22,369.19 487.05,369.38 499.37,376.49 503.54,376.3 		"/>
		<polygon class="st3" points="487.05,369.38 483.09,369.02 495.41,376.14 499.37,376.49 		"/>
		<polygon class="st3" points="530.23,286.78 542.55,293.89 542.55,308.12 530.23,301.01 		"/>
		<polygon class="st3" points="483.09,369.02 479.38,368.12 491.7,375.24 495.41,376.14 		"/>
		<polygon class="st3" points="479.38,368.12 475.93,366.7 488.25,373.81 491.7,375.24 		"/>
		<polygon class="st3" points="475.93,366.7 472.77,364.76 485.09,371.87 488.25,373.81 		"/>
		<polygon class="st3" points="472.77,364.76 469.92,362.32 482.24,369.44 485.09,371.87 		"/>
		<polygon class="st3" points="469.92,362.32 467.4,359.39 479.72,366.51 482.24,369.44 		"/>
		<polygon class="st3" points="467.4,359.39 465.23,355.99 477.55,363.11 479.72,366.51 		"/>
		<polygon class="st3" points="489.16,310.49 501.48,317.6 542.55,293.89 530.23,286.78 		"/>
		<polygon class="st3" points="465.23,355.99 463.43,352.13 475.76,359.24 477.55,363.11 		"/>
		<polygon class="st3" points="463.43,352.13 462.04,347.81 474.36,354.93 475.76,359.24 		"/>
		<polygon class="st3" points="462.04,347.81 461.06,343.06 473.38,350.17 474.36,354.93 		"/>
		<polygon class="st3" points="461.06,343.06 460.65,339.65 472.97,346.77 473.38,350.17 		"/>
		<polygon class="st3" points="460.65,339.65 460.41,334.2 472.73,341.32 472.97,346.77 		"/>
		<polygon class="st3" points="460.41,334.2 460.65,328.48 472.97,335.59 472.73,341.32 		"/>
		<polygon class="st3" points="460.65,328.48 461.33,322.64 473.66,329.76 472.97,335.59 		"/>
		<polygon class="st3" points="461.33,322.64 462.46,316.74 474.78,323.85 473.66,329.76 		"/>
		<polygon class="st3" points="462.46,316.74 463.99,310.8 476.31,317.92 474.78,323.85 		"/>
	</g>
	<g class="st1">
		<polyline class="st2" points="501.48,331.83 542.55,308.12 542.55,293.89 		"/>
		<polyline class="st2" points="735.59,466.99 735.59,452.76 764.34,436.17 776.66,443.28 		"/>
		<polyline class="st2" points="776.66,429.05 776.66,443.28 735.59,466.99 		"/>
		<polyline class="st2" points="501.48,331.83 501.48,317.6 530.23,301.01 542.55,293.89 		"/>
		<line class="st2" x1="530.23" y1="301.01" x2="542.55" y2="308.12"/>
		<polyline class="st2" points="567.72,307.8 569.26,301.87 570.38,295.96 571.07,290.13 571.3,284.41 571.07,278.95 570.66,275.55 
			569.68,270.8 568.28,266.48 566.48,262.61 564.32,259.21 561.79,256.29 558.94,253.85 555.78,251.91 554.02,250.89 550.66,248.95 
			543.46,244.79 540.01,243.37 536.3,242.47 532.35,242.11 528.17,242.3 523.8,243.06 519.24,244.39 514.54,246.31 509.7,248.84 
			504.86,251.9 501.7,254.2 497.1,257.99 492.66,262.17 488.42,266.69 484.39,271.52 480.59,276.62 477.05,281.96 473.79,287.49 
			470.84,293.18 468.2,298.98 465.91,304.87 463.99,310.8 462.46,316.74 461.33,322.64 460.65,328.48 460.41,334.2 460.65,339.65 
			461.06,343.06 462.04,347.81 463.43,352.13 465.23,355.99 467.4,359.39 469.92,362.32 472.77,364.76 475.93,366.7 483.79,371.24 
			485.3,372.05 488.25,373.81 491.7,375.24 495.41,376.14 499.37,376.49 503.54,376.3 507.92,375.55 512.47,374.22 517.18,372.29 
			522.02,369.77 526.86,366.7 530.01,364.41 534.62,360.62 539.05,356.44 543.3,351.92 547.33,347.09 551.12,341.98 554.66,336.65 
			557.92,331.12 560.88,325.43 563.51,319.62 565.8,313.73 567.72,307.8 		"/>
		<line class="st2" x1="776.66" y1="429.05" x2="764.34" y2="436.17"/>
		<polyline class="st2" points="789.89,387.07 788.13,386.05 784.76,384.11 777.57,379.96 774.12,378.53 770.41,377.63 
			766.45,377.27 762.28,377.46 757.9,378.22 753.35,379.55 748.64,381.47 743.8,384 738.96,387.06 735.81,389.36 731.2,393.15 
			726.77,397.33 722.52,401.85 718.49,406.68 714.7,411.78 711.16,417.12 707.9,422.65 704.94,428.34 702.31,434.14 700.02,440.03 
			698.1,445.96 696.56,451.9 695.44,457.8 694.75,463.64 694.52,469.36 694.75,474.82 695.16,478.22 696.14,482.97 697.54,487.29 
			699.34,491.15 701.5,494.56 704.03,497.48 706.88,499.92 710.04,501.86 717.9,506.4 719.4,507.21 722.36,508.97 725.81,510.4 
			729.52,511.3 733.47,511.66 737.65,511.46 742.02,510.71 746.58,509.38 751.28,507.45 756.12,504.93 760.96,501.87 764.12,499.57 
			768.72,495.78 773.16,491.6 777.4,487.08 781.43,482.25 785.23,477.15 788.77,471.81 792.03,466.28 794.98,460.59 797.62,454.78 
			799.91,448.9 801.83,442.96 803.36,437.03 804.48,431.12 805.17,425.29 805.41,419.57 805.17,414.11 804.76,410.71 803.78,405.95 
			802.39,401.64 800.59,397.77 798.42,394.37 795.9,391.45 793.05,389.01 789.89,387.07 786.44,385.64 782.73,384.75 778.77,384.39 
			774.6,384.58 770.22,385.33 765.67,386.67 760.96,388.59 756.12,391.11 751.28,394.18 748.13,396.47 743.52,400.26 739.09,404.44 
			734.84,408.96 730.81,413.79 727.02,418.9 723.48,424.23 720.22,429.76 717.26,435.45 714.63,441.26 712.34,447.15 710.42,453.08 
			708.88,459.02 707.76,464.92 707.07,470.75 706.84,476.48 707.07,481.93 707.48,485.33 708.46,490.09 709.86,494.4 711.66,498.27 
			713.83,501.67 716.35,504.6 719.4,507.21 722.36,508.97 		"/>
		<polyline class="st2" points="488.25,373.81 485.3,372.05 482.24,369.44 479.72,366.51 477.55,363.11 475.76,359.24 
			474.36,354.93 473.38,350.17 472.97,346.77 472.73,341.32 472.97,335.59 473.66,329.76 474.78,323.85 476.31,317.92 
			478.23,311.99 480.52,306.1 483.16,300.29 486.11,294.6 489.37,289.07 492.91,283.74 496.71,278.63 500.74,273.8 504.98,269.28 
			509.42,265.1 514.02,261.31 517.18,259.02 522.02,255.95 526.86,253.43 531.57,251.51 536.12,250.17 540.49,249.42 544.67,249.23 
			548.62,249.59 552.33,250.49 555.78,251.91 		"/>
	</g>
	<g class="st1">
		<line class="st2" x1="805.41" y1="412.45" x2="776.66" y2="429.05"/>
		<polyline class="st2" points="776.66,443.28 735.59,466.99 723.27,459.88 694.52,476.48 		"/>
		<polyline class="st2" points="694.52,490.7 509.7,597.41 263.27,455.14 		"/>
		<path class="st2" d="M263.27,440.91L448.09,334.2l12.32,7.11l41.07-23.71l-12.32-7.11l41.07-23.71l12.32,7.11l41.07-23.71
			l221.78,128.05l-41.07,23.71l12.32,7.11l-41.07,23.71l-12.32-7.11l-41.07,23.71l12.32,7.11
			C694.52,476.48,509.7,583.18,263.27,440.91z"/>
		<line class="st2" x1="263.27" y1="455.14" x2="263.27" y2="440.91"/>
		<line class="st2" x1="489.16" y1="324.72" x2="489.16" y2="310.49"/>
		<line class="st2" x1="805.41" y1="412.45" x2="805.41" y2="398.23"/>
		<line class="st2" x1="735.59" y1="466.99" x2="735.59" y2="452.76"/>
		<line class="st2" x1="723.27" y1="459.88" x2="723.27" y2="445.65"/>
		<line class="st2" x1="694.52" y1="490.7" x2="694.52" y2="476.48"/>
	</g>
	<g class="st1">
		<polyline class="st2" points="776.66,429.05 735.59,452.76 735.59,466.99 		"/>
		<polyline class="st2" points="776.66,429.05 776.66,443.28 735.59,466.99 		"/>
		<polyline class="st2" points="739.09,404.44 734.84,408.96 730.81,413.79 727.02,418.9 723.48,424.23 720.22,429.76 
			717.26,435.45 714.63,441.26 712.34,447.15 710.42,453.08 708.88,459.02 707.76,464.92 707.07,470.75 706.84,476.48 
			707.07,481.93 707.48,485.33 708.46,490.09 709.86,494.4 711.66,498.27 713.83,501.67 716.35,504.6 719.2,507.04 722.36,508.97 
			725.81,510.4 729.52,511.3 733.47,511.66 737.65,511.46 742.02,510.71 746.58,509.38 751.28,507.45 756.12,504.93 760.96,501.87 
			764.12,499.57 768.72,495.78 773.16,491.6 777.4,487.08 781.43,482.25 785.23,477.15 788.77,471.81 792.03,466.28 794.98,460.59 
			797.62,454.78 799.91,448.9 801.83,442.96 803.36,437.03 804.48,431.12 805.17,425.29 805.41,419.57 805.17,414.11 804.76,410.71 
			803.78,405.95 802.39,401.64 800.59,397.77 798.42,394.37 795.9,391.45 793.05,389.01 789.89,387.07 786.44,385.64 782.73,384.75 
			778.77,384.39 774.6,384.58 770.22,385.33 765.67,386.67 760.96,388.59 756.12,391.11 751.28,394.18 748.13,396.47 743.52,400.26 
			739.09,404.44 		"/>
		<polyline class="st2" points="475.93,366.7 472.77,364.76 469.92,362.32 467.4,359.39 465.23,355.99 463.43,352.13 462.04,347.81 
			461.06,343.06 460.65,339.65 460.41,334.2 460.65,328.48 461.33,322.64 462.46,316.74 463.99,310.8 465.91,304.87 468.2,298.98 
			470.84,293.18 473.79,287.49 477.05,281.96 480.59,276.62 484.39,271.52 488.42,266.69 492.66,262.17 497.1,257.99 501.7,254.2 
			504.86,251.9 509.7,248.84 514.54,246.31 519.24,244.39 523.8,243.06 528.17,242.3 532.35,242.11 536.3,242.47 540.01,243.37 
			543.46,244.79 		"/>
	</g>
	<g class="st1">
		<polygon class="st3" points="530.01,364.41 526.86,366.7 542.55,308.12 		"/>
		<polygon class="st3" points="534.62,360.62 530.01,364.41 542.55,308.12 		"/>
		<polygon class="st3" points="539.05,356.44 534.62,360.62 542.55,308.12 		"/>
		<polygon class="st3" points="543.3,351.92 539.05,356.44 542.55,308.12 		"/>
		<polygon class="st3" points="547.33,347.09 543.3,351.92 542.55,308.12 		"/>
		<polygon class="st3" points="551.12,341.98 547.33,347.09 542.55,308.12 		"/>
		<polygon class="st3" points="554.66,336.65 551.12,341.98 542.55,308.12 		"/>
		<polygon class="st3" points="557.92,331.12 554.66,336.65 542.55,308.12 		"/>
		<polygon class="st3" points="560.88,325.43 557.92,331.12 542.55,308.12 		"/>
		<polygon class="st3" points="563.51,319.62 560.88,325.43 542.55,308.12 		"/>
		<polygon class="st3" points="565.8,313.73 563.51,319.62 542.55,308.12 		"/>
		<polygon class="st3" points="567.72,307.8 565.8,313.73 542.55,308.12 		"/>
		<polygon class="st3" points="569.26,301.87 567.72,307.8 542.55,308.12 		"/>
		<polygon class="st3" points="570.38,295.96 569.26,301.87 542.55,308.12 		"/>
		<polygon class="st3" points="571.07,290.13 570.38,295.96 542.55,308.12 		"/>
		<polygon class="st3" points="571.3,284.41 571.07,290.13 542.55,308.12 		"/>
		<polygon class="st3" points="570.66,275.55 571.07,278.95 542.55,293.89 		"/>
		<polygon class="st3" points="569.68,270.8 570.66,275.55 542.55,293.89 		"/>
		<polygon class="st3" points="568.28,266.48 569.68,270.8 542.55,293.89 		"/>
		<polygon class="st3" points="566.48,262.61 568.28,266.48 542.55,293.89 		"/>
		<polygon class="st3" points="564.32,259.21 566.48,262.61 542.55,293.89 		"/>
		<polygon class="st3" points="571.3,284.41 542.55,308.12 542.55,293.89 571.07,278.95 		"/>
		<polygon class="st3" points="561.79,256.29 564.32,259.21 542.55,293.89 		"/>
		<polygon class="st3" points="558.94,253.85 561.79,256.29 542.55,293.89 		"/>
		<polygon class="st3" points="555.78,251.91 558.94,253.85 542.55,293.89 		"/>
		<polygon class="st3" points="552.33,250.49 555.78,251.91 542.55,293.89 		"/>
		<polygon class="st3" points="485.09,371.87 482.24,369.44 501.48,331.83 		"/>
		<polygon class="st3" points="488.25,373.81 485.09,371.87 501.48,331.83 		"/>
		<polygon class="st3" points="491.7,375.24 488.25,373.81 501.48,331.83 		"/>
		<polygon class="st3" points="495.41,376.14 491.7,375.24 501.48,331.83 		"/>
		<polygon class="st3" points="499.37,376.49 495.41,376.14 501.48,331.83 		"/>
		<polygon class="st3" points="503.54,376.3 499.37,376.49 501.48,331.83 		"/>
		<polygon class="st3" points="507.92,375.55 503.54,376.3 501.48,331.83 		"/>
		<polygon class="st3" points="512.47,374.22 507.92,375.55 501.48,331.83 		"/>
		<polygon class="st3" points="517.18,372.29 512.47,374.22 501.48,331.83 		"/>
		<polygon class="st3" points="522.02,369.77 517.18,372.29 501.48,331.83 		"/>
		<polygon class="st3" points="542.55,308.12 526.86,366.7 522.02,369.77 501.48,331.83 		"/>
		<polygon class="st3" points="548.62,249.59 552.33,250.49 542.55,293.89 		"/>
		<polygon class="st3" points="482.24,369.44 479.72,366.51 501.48,331.83 		"/>
		<polygon class="st3" points="544.67,249.23 548.62,249.59 542.55,293.89 		"/>
		<polygon class="st3" points="479.72,366.51 477.55,363.11 501.48,331.83 		"/>
		<polygon class="st3" points="540.49,249.42 544.67,249.23 542.55,293.89 		"/>
		<polygon class="st3" points="477.55,363.11 475.76,359.24 501.48,331.83 		"/>
		<polygon class="st3" points="536.12,250.17 540.49,249.42 542.55,293.89 		"/>
		<polygon class="st3" points="475.76,359.24 474.36,354.93 501.48,331.83 		"/>
		<polygon class="st3" points="531.57,251.51 536.12,250.17 542.55,293.89 		"/>
		<polygon class="st3" points="474.36,354.93 473.38,350.17 501.48,331.83 		"/>
		<polygon class="st3" points="473.38,350.17 472.97,346.77 501.48,331.83 		"/>
		<polygon class="st3" points="526.86,253.43 531.57,251.51 542.55,293.89 		"/>
		<polygon class="st3" points="522.02,255.95 526.86,253.43 542.55,293.89 501.48,317.6 		"/>
		<polygon class="st3" points="472.97,346.77 472.73,341.32 501.48,331.83 		"/>
		<polygon class="st3" points="472.73,341.32 472.97,335.59 501.48,317.6 501.48,331.83 		"/>
		<polygon class="st3" points="517.18,259.02 522.02,255.95 501.48,317.6 		"/>
		<polygon class="st3" points="514.02,261.31 517.18,259.02 501.48,317.6 		"/>
		<polygon class="st3" points="472.97,335.59 473.66,329.76 501.48,317.6 		"/>
		<polygon class="st3" points="509.42,265.1 514.02,261.31 501.48,317.6 		"/>
		<polygon class="st3" points="473.66,329.76 474.78,323.85 501.48,317.6 		"/>
		<polygon class="st3" points="504.98,269.28 509.42,265.1 501.48,317.6 		"/>
		<polygon class="st3" points="474.78,323.85 476.31,317.92 501.48,317.6 		"/>
		<polygon class="st3" points="500.74,273.8 504.98,269.28 501.48,317.6 		"/>
		<polygon class="st3" points="476.31,317.92 478.23,311.99 501.48,317.6 		"/>
		<polygon class="st3" points="496.71,278.63 500.74,273.8 501.48,317.6 		"/>
		<polygon class="st3" points="478.23,311.99 480.52,306.1 501.48,317.6 		"/>
		<polygon class="st3" points="492.91,283.74 496.71,278.63 501.48,317.6 		"/>
		<polygon class="st3" points="480.52,306.1 483.16,300.29 501.48,317.6 		"/>
		<polygon class="st3" points="489.37,289.07 492.91,283.74 501.48,317.6 		"/>
		<polygon class="st3" points="486.11,294.6 489.37,289.07 501.48,317.6 		"/>
		<polygon class="st3" points="483.16,300.29 486.11,294.6 501.48,317.6 		"/>
	</g>
	<g class="st1">
		<polyline class="st2" points="501.48,331.83 542.55,308.12 542.55,293.89 		"/>
		<polyline class="st2" points="501.48,331.83 501.48,317.6 542.55,293.89 		"/>
		<polyline class="st2" points="567.72,307.8 569.26,301.87 570.38,295.96 571.07,290.13 571.3,284.41 571.07,278.95 570.66,275.55 
			569.68,270.8 568.28,266.48 566.48,262.61 564.32,259.21 561.79,256.29 558.94,253.85 555.78,251.91 552.33,250.49 548.62,249.59 
			544.67,249.23 540.49,249.42 536.12,250.17 531.57,251.51 526.86,253.43 522.02,255.95 517.18,259.02 514.02,261.31 509.42,265.1 
			504.98,269.28 500.74,273.8 496.71,278.63 492.91,283.74 489.37,289.07 486.11,294.6 483.16,300.29 480.52,306.1 478.23,311.99 
			476.31,317.92 474.78,323.85 473.66,329.76 472.97,335.59 472.73,341.32 472.97,346.77 473.38,350.17 474.36,354.93 
			475.76,359.24 477.55,363.11 479.72,366.51 482.24,369.44 485.09,371.87 488.25,373.81 491.7,375.24 495.41,376.14 499.37,376.49 
			503.54,376.3 507.92,375.55 512.47,374.22 517.18,372.29 522.02,369.77 526.86,366.7 530.01,364.41 534.62,360.62 539.05,356.44 
			543.3,351.92 547.33,347.09 551.12,341.98 554.66,336.65 557.92,331.12 560.88,325.43 563.51,319.62 565.8,313.73 567.72,307.8 		
			"/>
		<polyline class="st2" points="777.57,379.96 774.12,378.53 770.41,377.63 766.45,377.27 762.28,377.46 757.9,378.22 
			753.35,379.55 748.64,381.47 743.8,384 738.96,387.06 735.81,389.36 731.2,393.15 726.77,397.33 722.52,401.85 718.49,406.68 
			714.7,411.78 711.16,417.12 707.9,422.65 704.94,428.34 702.31,434.14 700.02,440.03 698.1,445.96 696.56,451.9 695.44,457.8 
			694.75,463.64 694.52,469.36 694.75,474.82 695.16,478.22 696.14,482.97 697.54,487.29 699.34,491.15 701.5,494.56 704.03,497.48 
			706.88,499.92 710.04,501.86 		"/>
	</g>
	<g class="st1">
		<path class="st2" d="M263.27,455.14L509.7,597.41v28.46l-12.32-7.11v35.57l12.32,7.11v28.46l-12.32-7.11v35.57l12.32,7.11v28.46
			l-12.32-7.11v35.57l12.32,7.11v28.46l-12.32-7.11v35.57l12.32,7.11v28.45l-24.64-14.23V853.5l-30.8-17.78v14.23l-24.64-14.23
			v-14.23l-30.8-17.78v14.23l-24.64-14.23v-14.23l-30.8-17.78v14.23l-24.64-14.23v-14.23l-30.8-17.78v14.23l-24.64-14.23v-28.46
			l12.32,7.11v-35.57l-12.32-7.11v-28.46l12.32,7.11v-35.57l-12.32-7.11v-28.46l12.32,7.11v-35.57l-12.32-7.11v-28.46l12.32,7.11
			V490.7C275.59,490.7,263.27,483.59,263.27,455.14z"/>
		<polyline class="st2" points="275.59,448.02 522.02,590.3 522.02,618.75 		"/>
		<polyline class="st2" points="509.7,636.53 522.02,654.32 522.02,682.78 		"/>
		<polyline class="st2" points="509.7,700.56 522.02,718.34 522.02,746.8 		"/>
		<polyline class="st2" points="509.7,764.58 522.02,782.37 522.02,810.82 		"/>
		<polyline class="st2" points="509.7,828.61 522.02,846.39 522.02,874.85 		"/>
		<line class="st2" x1="263.27" y1="455.14" x2="275.59" y2="448.02"/>
		<line class="st2" x1="509.7" y1="661.43" x2="522.02" y2="654.32"/>
		<line class="st2" x1="509.7" y1="753.91" x2="522.02" y2="746.8"/>
		<line class="st2" x1="398.8" y1="817.94" x2="411.13" y2="810.82"/>
		<line class="st2" x1="263.27" y1="711.23" x2="275.59" y2="704.12"/>
		<line class="st2" x1="509.7" y1="625.86" x2="509.7" y2="647.21"/>
		<line class="st2" x1="509.7" y1="689.89" x2="509.7" y2="711.23"/>
		<line class="st2" x1="509.7" y1="753.91" x2="509.7" y2="775.25"/>
		<line class="st2" x1="509.7" y1="817.94" x2="509.7" y2="839.28"/>
	</g>
	<g class="st1">
		<polygon class="st3" points="501.48,331.83 489.16,324.72 489.16,310.49 501.48,317.6 		"/>
	</g>
	<g class="st1">
		<polyline class="st2" points="583.62,270.18 805.41,398.23 805.41,412.45 776.66,429.05 776.66,443.28 735.59,466.99 
			723.27,459.88 694.52,476.48 694.52,490.7 509.7,597.41 263.27,455.14 263.27,440.91 448.09,334.2 460.41,341.32 489.16,324.72 
			489.16,310.49 530.23,286.78 542.55,293.89 583.62,270.18 		"/>
		<polyline class="st2" points="694.52,476.48 509.7,583.18 263.27,440.91 		"/>
		<polyline class="st2" points="776.66,429.05 735.59,452.76 723.27,445.65 682.2,469.36 		"/>
	</g>
	<g class="st1">
		<polygon class="st3" points="275.59,732.57 300.23,746.8 300.23,732.57 		"/>
		<polygon class="st3" points="287.91,711.23 275.59,704.12 275.59,732.57 300.23,732.57 		"/>
		<polygon class="st3" points="287.91,675.66 287.91,711.23 300.23,732.57 331.04,750.35 		"/>
		<polygon class="st3" points="287.91,675.66 287.91,647.21 275.59,640.09 275.59,668.55 		"/>
		<polygon class="st3" points="355.68,764.58 331.04,750.35 331.04,764.58 355.68,778.81 		"/>
		<polygon class="st3" points="287.91,647.21 287.91,675.66 331.04,750.35 355.68,764.58 		"/>
		<polygon class="st3" points="287.91,611.64 287.91,647.21 355.68,764.58 386.48,782.37 		"/>
		<polygon class="st3" points="386.48,782.37 386.48,796.59 411.13,810.82 411.13,796.59 		"/>
		<polygon class="st3" points="287.91,611.64 386.48,782.37 411.13,796.59 		"/>
		<polygon class="st3" points="287.91,611.64 287.91,583.18 275.59,576.07 275.59,604.52 		"/>
		<polygon class="st3" points="509.7,711.23 287.91,583.18 287.91,611.64 411.13,796.59 		"/>
	</g>
	<g class="st1">
		<polyline class="st2" points="275.59,448.02 522.02,590.3 522.02,618.75 		"/>
		<polyline class="st2" points="509.7,817.94 509.7,839.28 522.02,846.39 522.02,874.85 		"/>
		<polyline class="st2" points="509.7,753.91 509.7,775.25 522.02,782.37 522.02,810.82 		"/>
		<polyline class="st2" points="509.7,689.89 509.7,711.23 522.02,718.34 522.02,746.8 		"/>
		<polyline class="st2" points="509.7,625.86 509.7,647.21 522.02,654.32 522.02,682.78 		"/>
	</g>
	<g class="st1">
		<polygon class="st3" points="287.91,739.68 300.23,732.57 300.23,746.8 287.91,753.91 		"/>
		<polygon class="st3" points="263.27,711.23 275.59,704.12 287.91,711.23 275.59,718.34 		"/>
		<polygon class="st3" points="263.27,647.21 275.59,640.09 287.91,647.21 275.59,654.32 		"/>
		<polygon class="st3" points="343.36,771.7 355.68,764.58 355.68,778.81 343.36,785.92 		"/>
		<polygon class="st3" points="263.27,583.18 275.59,576.07 287.91,583.18 275.59,590.3 		"/>
	</g>
	<g class="st1">
		<polyline class="st2" points="263.27,455.14 509.7,597.41 509.7,625.86 509.7,647.21 522.02,654.32 522.02,682.78 509.7,689.89 
			509.7,711.23 522.02,718.34 522.02,746.8 509.7,753.91 509.7,775.25 522.02,782.37 522.02,810.82 509.7,817.94 509.7,839.28 
			522.02,846.39 522.02,874.85 509.7,881.96 485.05,867.73 485.05,853.5 466.57,842.83 454.25,849.95 429.61,835.72 429.61,821.49 
			411.13,810.82 398.8,817.94 374.16,803.71 374.16,789.48 355.68,778.81 343.36,785.92 318.72,771.7 318.72,757.47 300.23,746.8 
			287.91,753.91 263.27,739.68 263.27,711.23 275.59,704.12 275.59,682.78 263.27,675.66 263.27,647.21 275.59,640.09 
			275.59,618.75 263.27,611.64 263.27,583.18 275.59,576.07 275.59,554.73 263.27,547.61 263.27,519.16 275.59,512.04 275.59,490.7 
			263.27,483.59 263.27,455.14 275.59,448.02 522.02,590.3 522.02,618.75 509.7,625.86 497.38,618.75 		"/>
		<polyline class="st2" points="497.38,810.82 497.38,846.39 509.7,853.5 509.7,881.96 		"/>
		<polyline class="st2" points="497.38,746.8 497.38,782.37 509.7,789.48 509.7,817.94 		"/>
		<polyline class="st2" points="497.38,682.78 497.38,718.34 509.7,725.46 509.7,753.91 		"/>
		<polyline class="st2" points="497.38,618.75 497.38,654.32 509.7,661.43 509.7,689.89 		"/>
	</g>
	<g class="st1">
		<polyline class="st2" points="694.52,490.7 509.7,597.41 263.27,455.14 		"/>
		<polyline class="st2" points="776.66,443.28 735.59,466.99 723.27,459.88 694.52,476.48 		"/>
		<line class="st2" x1="805.41" y1="412.45" x2="776.66" y2="429.05"/>
	</g>
</g>
<g id="Layer_3" class="st0">
	<polygon class="st5" points="497.38,810.82 509.7,817.94 509.7,853.5 497.38,846.39 	"/>
	<polygon class="st5" points="522.02,846.39 509.7,853.5 509.7,881.96 522.02,874.85 	"/>
	<polygon class="st5" points="497.38,746.8 509.7,753.91 509.7,789.48 497.38,782.37 	"/>
	<polygon class="st5" points="497.38,682.77 509.7,689.89 509.7,725.46 497.38,718.34 	"/>
	<polygon class="st5" points="497.38,618.75 509.7,625.86 509.7,661.43 497.38,654.32 	"/>
	<polygon class="st5" points="263.27,675.66 275.59,682.78 275.59,718.34 263.27,711.23 	"/>
	<polygon class="st5" points="263.27,611.64 275.59,618.75 275.59,654.32 263.27,647.21 	"/>
	<polygon class="st5" points="263.27,547.61 275.59,554.73 275.59,590.3 263.27,583.18 	"/>
	<polygon class="st5" points="263.27,483.59 275.59,490.7 275.59,526.27 263.27,519.16 	"/>
</g>
<g id="Layer_2" class="st0">
	<g class="st1">
		<polyline class="st6" points="263.27,440.91 263.27,455.14 509.7,597.41 509.7,583.18 263.27,440.91 		"/>
		<polygon class="st6" points="509.7,583.18 694.52,476.48 694.52,490.7 509.7,597.41 		"/>
		<polygon class="st6" points="735.59,452.76 735.59,466.99 776.66,443.28 776.66,429.05 		"/>
		<polygon class="st6" points="764.34,421.94 764.34,436.17 805.41,412.45 805.41,398.23 		"/>
		<g>
			<polygon class="st7" points="682.2,469.36 723.27,445.65 735.59,452.76 776.66,429.05 764.34,421.94 805.41,398.23 
				583.62,270.18 542.55,293.89 530.23,286.78 489.16,310.49 501.48,317.6 460.41,341.32 448.09,334.2 263.27,440.91 509.7,583.18 
				694.52,476.48 			"/>
		</g>
		<polygon class="st7" points="723.27,445.65 723.27,459.88 735.59,466.99 735.59,452.76 		"/>
		<polygon class="st6" points="682.2,469.36 694.52,476.48 723.27,459.88 723.27,445.65 		"/>
	</g>
</g>
<g id="Layer_4" class="st0">
</g>
<g id="Layer_5">
	<g>
		<g>
			<path class="st8" d="M506.93,381.38v-30.4l6.46-4.09l4.21-3.07l6.15-5.06l5.92-5.58l5.67-6.04l5.38-6.45l5.07-6.82l4.73-7.13
				l4.35-7.39l3.95-7.6l3.52-7.76l3.06-7.86l2.57-7.92l2.05-7.93l1.5-7.88l0.92-7.79l0.31-7.64l-0.31-7.28l-0.55-4.55l-1.31-6.35
				l-1.87-5.76l-2.4-5.16l-2.9-4.54l-3.37-3.91l-3.81-3.26l-4.22-2.59l-4.6-1.9l-4.96-1.2l-5.28-0.48l-5.58,0.26l-5.84,1.01
				l-6.08,1.78l-6.29,2.57l-6.46,3.37l-6.46,4.09l-4.21,3.07l-6.15,5.06l-5.92,5.58l-5.67,6.04l-5.38,6.45l-5.07,6.82l-4.72,7.13
				l-4.35,7.39l-3.95,7.6l-3.52,7.76l-3.06,7.86l-2.57,7.92l-2.05,7.93l-1.5,7.88l-0.92,7.79l-0.31,7.64l0.08,3.76l0.08,3.75"/>
			<path class="st9" d="M585.6,237.3l-0.55-4.55l-1.31-6.35l-1.87-5.76l-2.4-5.16l-2.9-4.54l-3.37-3.91l-3.81-3.26l-4.22-2.59
				l-4.6-1.9l-4.96-1.2l-5.28-0.48l-5.58,0.26l-5.84,1.01l-6.08,1.78l-6.29,2.57l-6.46,3.37l-6.46,4.09l-4.21,3.07l-6.15,5.06
				l-5.92,5.58l-5.67,6.04l-5.38,6.45l-5.07,6.82l-4.72,7.13l-4.35,7.39l-3.95,7.6l-3.52,7.76l-3.06,7.86l-2.57,7.92l-2.05,7.93
				l-1.5,7.88l-0.92,7.79l-0.31,7.64l0.08,3.76l0.08,3.75l-184.46,106.5v30.4l-13.16,7.6v38l13.16-7.6v30.4l-13.16,7.6v38l13.16-7.6
				v30.4l-13.16,7.6v38l13.16-7.6v30.4l-13.16,7.6v38l13.16-7.6v30.4l13.16-7.6v-15.2l32.91-19v15.2l26.33-15.2v-15.2l32.91-19v15.2
				l26.33-15.2v-15.2l32.91-19v15.2l26.33-15.2v-15.2l32.91-19v15.2l13.16-7.6v-30.4l13.16-7.6v-38l-13.16,7.6v-30.4l13.16-7.6v-38
				l-13.16,7.6v-30.4l13.16-7.6v-30.4v-7.6v-30.4l6.46-4.09l4.21-3.07l6.15-5.06l5.92-5.58l5.67-6.04l5.38-6.45l5.07-6.82l4.73-7.13
				l4.35-7.39l3.95-7.6l3.52-7.76l3.06-7.86l2.57-7.92l2.05-7.93l1.5-7.88l0.92-7.79l0.31-7.64L585.6,237.3z M572.49,258.3
				l-0.44,4.14l-1.05,6.29l-1.49,6.34l-1.92,6.34l-2.32,6.31l-2.69,6.24l-3.05,6.12l-3.38,5.97l-3.68,5.77l-3.97,5.54l-4.23,5.26
				l-4.46,4.95l-4.67,4.59l-4.86,4.19l-5.03,3.75l-5.17,3.27l-5.17,2.7l-3.37,1.44l-4.92,1.63l-4.74,1.01l-4.54,0.4l-4.31-0.19
				l-4.05-0.77l-3.78-1.34l-3.48-1.89l-3.16-2.43l-2.81-2.95l-2.45-3.47l-2.05-3.97l-1.64-4.45l-1.2-4.92l-0.74-5.38l-0.25-5.83
				l0.25-6.12l0.44-4.14l1.05-6.29l1.49-6.33l1.92-6.34l2.32-6.31l2.69-6.24l3.05-6.12l3.38-5.97l3.68-5.77l3.97-5.54l4.23-5.26
				l4.46-4.95l4.67-4.59l4.86-4.19l5.03-3.75l5.17-3.27l5.17-2.7l3.37-1.44l4.92-1.63l4.74-1.01l4.53-0.4l4.31,0.19l4.06,0.77
				l3.78,1.34l3.48,1.89l3.16,2.43l2.82,2.95l2.45,3.47l2.05,3.97l1.64,4.45l1.2,4.92l0.74,5.38l0.25,5.83L572.49,258.3z"/>
			<polygon class="st9" points="572.49,258.3 572.06,262.44 571.01,268.73 569.52,275.06 567.6,281.41 565.28,287.72 562.59,293.95 
				559.54,300.08 556.16,306.05 552.48,311.82 548.51,317.36 544.29,322.62 539.83,327.57 535.15,332.16 530.29,336.35 
				525.26,340.11 520.09,343.38 514.92,346.08 511.55,347.52 506.63,349.15 501.89,350.16 497.35,350.56 493.05,350.37 
				488.99,349.6 485.21,348.27 481.73,346.38 478.57,343.95 475.76,341 473.31,337.53 471.26,333.56 469.62,329.11 468.42,324.19 
				467.69,318.81 467.44,312.98 467.69,306.86 468.13,302.72 469.17,296.43 470.67,290.1 472.58,283.75 474.9,277.44 477.6,271.21 
				480.64,265.08 484.02,259.11 487.7,253.34 491.67,247.8 495.89,242.54 500.35,237.59 505.03,233 509.89,228.81 514.92,225.05 
				520.09,221.78 525.26,219.08 528.63,217.64 533.55,216.01 538.29,215 542.83,214.6 547.13,214.79 551.19,215.56 554.97,216.89 
				558.45,218.78 561.61,221.21 564.42,224.16 566.87,227.63 568.92,231.6 570.56,236.05 571.76,240.97 572.49,246.35 
				572.75,252.18 			"/>
			<polygon class="st9" points="498.15,287.65 498.15,302.85 542.03,277.51 542.03,262.31 			"/>
			<line class="st8" x1="560.58" y1="199.28" x2="547.41" y2="191.68"/>
			<line class="st8" x1="520.09" y1="206.58" x2="506.93" y2="198.98"/>
		</g>
		<g>
			<g>
				<polyline class="st8" points="704.55,456.8 691.38,449.2 735.26,423.87 748.43,431.47 792.3,406.13 779.14,398.53 823.02,373.2 
					586.07,236.4 454.44,312.4 441.27,304.8 				"/>
			</g>
		</g>
		<path class="st8" d="M757.2,525.2v-30.4l6.46-4.09l4.21-3.07l6.15-5.06l5.92-5.58l5.67-6.04l5.38-6.45l5.07-6.82l4.73-7.13
			l4.35-7.39l3.95-7.6l3.52-7.76l3.06-7.86l2.57-7.92l2.05-7.93l1.5-7.88l0.92-7.79l0.31-7.64l-0.31-7.28l-0.55-4.55l-1.31-6.35
			l-1.87-5.76l-2.4-5.16l-2.9-4.54l-3.37-3.91l-3.81-3.26l-4.22-2.59l-4.6-1.9l-4.96-1.2l-5.28-0.48l-5.58,0.26l-5.84,1.01
			l-6.08,1.78l-6.29,2.57l-6.46,3.37l-6.46,4.09l-4.21,3.07l-6.15,5.06l-5.92,5.58l-5.67,6.04l-5.38,6.45l-5.07,6.82l-4.72,7.13
			l-4.35,7.39l-3.95,7.6l-3.52,7.76l-3.06,7.86l-2.57,7.92l-2.05,7.93l-1.5,7.88l-0.92,7.79l-0.31,7.64l0.08,3.76l0.08,3.75"/>
		<path class="st9" d="M835.87,381.12l-0.55-4.55l-1.31-6.35l-1.87-5.76l-2.4-5.16l-2.9-4.54l-3.37-3.91l-3.81-3.26l-4.22-2.59
			l-4.6-1.9l-4.96-1.2l-5.28-0.48l-5.58,0.26l-5.84,1.01l-6.08,1.78l-6.29,2.57l-6.46,3.37l-6.46,4.09l-4.21,3.07l-6.15,5.06
			l-5.92,5.58l-5.67,6.04l-5.38,6.45l-5.07,6.82l-4.72,7.13l-4.35,7.39l-3.95,7.6l-3.52,7.76l-3.06,7.86l-2.57,7.92l-2.05,7.93
			l-1.5,7.88l-0.92,7.79l-0.31,7.64l0.08,3.76l0.08,3.75L520.26,578.4v30.4l-13.16,7.6v38l13.16-7.6v30.4l-13.16,7.6v38l13.16-7.6
			v30.4l-13.16,7.6v38l13.16-7.6V814l-13.16,7.6v38l13.16-7.6v30.4l13.16-7.6v-15.2l32.91-19v15.2l26.33-15.2v-15.2l32.91-19v15.2
			l26.33-15.2v-15.2l32.91-19v15.2l26.33-15.2V757l32.91-19v15.2l13.16-7.6v-30.4l13.16-7.6v-38l-13.16,7.6v-30.4l13.16-7.6v-38
			l-13.16,7.6v-30.4l13.16-7.6v-30.4v-7.6v-30.4l6.46-4.09l4.21-3.07l6.15-5.06l5.92-5.58l5.67-6.04l5.38-6.45l5.07-6.82l4.73-7.13
			l4.35-7.39l3.95-7.6l3.52-7.76l3.06-7.86l2.57-7.92l2.05-7.93l1.5-7.88l0.92-7.79l0.31-7.64L835.87,381.12z M822.77,402.11
			l-0.44,4.14l-1.05,6.29l-1.49,6.34l-1.92,6.34l-2.32,6.31l-2.69,6.24l-3.05,6.12l-3.38,5.97l-3.68,5.77l-3.97,5.54l-4.23,5.26
			l-4.46,4.95l-4.67,4.59l-4.86,4.19l-5.03,3.75l-5.17,3.27l-5.17,2.7l-3.37,1.44l-4.92,1.63l-4.74,1.01l-4.54,0.4l-4.31-0.19
			l-4.05-0.77l-3.78-1.34l-3.48-1.89l-3.16-2.43l-2.81-2.95l-2.45-3.47l-2.05-3.97l-1.64-4.45l-1.2-4.92l-0.74-5.38l-0.25-5.83
			l0.25-6.12l0.44-4.14l1.05-6.29l1.49-6.33l1.92-6.34l2.32-6.31l2.69-6.24l3.05-6.12l3.38-5.97l3.68-5.77l3.97-5.54l4.23-5.26
			l4.46-4.95l4.67-4.59l4.86-4.19l5.03-3.75l5.17-3.27l5.17-2.7l3.37-1.44l4.92-1.63l4.74-1.01l4.53-0.4l4.31,0.19l4.06,0.77
			l3.78,1.34l3.48,1.89l3.16,2.43l2.82,2.95l2.45,3.47l2.05,3.97l1.64,4.45l1.2,4.92l0.74,5.38l0.25,5.83L822.77,402.11z"/>
		<polyline class="st8" points="243.82,418.8 243.82,434 507.09,586 507.09,570.8 243.82,418.8 		"/>
		<polygon class="st9" points="507.09,570.8 704.55,456.8 704.55,472 507.09,586 		"/>
		<g>
			<polyline class="st8" points="454.44,312.4 441.27,304.8 243.82,418.8 507.09,570.8 704.55,456.8 691.38,449.2 704.55,456.8 			
				"/>
		</g>
		<polygon class="st9" points="822.77,402.11 822.33,406.26 821.28,412.55 819.79,418.88 817.87,425.22 815.55,431.53 
			812.86,437.77 809.81,443.9 806.44,449.86 802.75,455.64 798.79,461.18 794.56,466.44 790.1,471.39 785.43,475.98 780.56,480.17 
			775.54,483.92 770.36,487.2 765.19,489.9 761.82,491.33 756.9,492.97 752.16,493.98 747.63,494.38 743.32,494.19 739.27,493.42 
			735.49,492.09 732.01,490.2 728.85,487.77 726.03,484.81 723.59,481.35 721.53,477.38 719.9,472.93 718.7,468.01 717.96,462.63 
			717.71,456.8 717.96,450.68 718.4,446.54 719.45,440.25 720.94,433.92 722.86,427.57 725.18,421.26 727.87,415.03 730.92,408.9 
			734.29,402.93 737.98,397.16 741.94,391.62 746.17,386.36 750.63,381.41 755.3,376.82 760.16,372.63 765.19,368.87 770.36,365.6 
			775.54,362.9 778.91,361.46 783.83,359.83 788.57,358.82 793.1,358.42 797.41,358.61 801.46,359.38 805.24,360.71 808.72,362.6 
			811.88,365.03 814.7,367.98 817.14,371.45 819.2,375.42 820.83,379.87 822.03,384.79 822.77,390.17 823.02,396 		"/>
		<polygon class="st9" points="748.43,431.47 748.43,446.67 792.3,421.33 792.3,406.13 		"/>
		<polygon class="st9" points="770.36,639.2 757.2,646.8 757.2,677.2 770.36,669.6 		"/>
		<polygon class="st9" points="770.36,707.95 757.2,715.55 757.2,745.95 770.36,738.35 		"/>
		<polygon class="st9" points="770.37,570.8 757.2,578.4 757.2,608.8 770.36,601.2 		"/>
		<polygon class="st9" points="520.26,578.4 507.09,586 507.09,616.4 520.26,608.8 		"/>
		<polygon class="st9" points="520.26,646.8 507.09,654.4 507.09,684.8 520.25,677.2 		"/>
		<polygon class="st9" points="520.26,715.2 507.09,722.8 507.09,753.2 520.25,745.6 		"/>
		<polygon class="st9" points="520.26,783.6 507.09,791.2 507.09,821.6 520.25,814 		"/>
		<polygon class="st9" points="520.26,852 507.09,859.6 507.09,890 520.25,882.4 		"/>
		<polygon class="st9" points="566.33,840.6 533.42,859.6 533.42,874.8 566.33,855.8 		"/>
		<polygon class="st9" points="625.56,806.4 592.65,825.4 592.65,840.6 625.56,821.6 		"/>
		<polygon class="st9" points="684.8,772.2 651.89,791.2 651.89,806.4 684.8,787.4 		"/>
		<polygon class="st9" points="744.04,738 711.13,757 711.13,772.2 744.04,753.2 		"/>
		<g>
			<polygon class="st8" points="493.93,608.8 493.93,646.8 507.09,654.4 507.09,684.8 493.93,677.2 493.93,715.2 507.09,722.8 
				507.09,753.2 493.93,745.6 493.93,783.6 507.09,791.2 507.09,821.6 493.93,814 493.93,852 507.09,859.6 507.09,890 480.76,874.8 
				480.76,859.6 447.86,840.6 447.86,855.8 421.53,840.6 421.53,825.4 388.62,806.4 388.62,821.6 362.29,806.4 362.29,791.2 
				329.38,772.2 329.38,787.4 303.06,772.2 303.06,757 270.15,738 270.15,753.2 243.82,738 243.82,707.6 256.98,715.2 256.98,677.2 
				243.82,669.6 243.82,639.2 256.98,646.8 256.98,608.8 243.82,601.2 243.82,570.8 256.98,578.4 256.98,540.4 243.82,532.8 
				243.82,502.4 256.98,510 256.98,472 243.82,464.4 243.82,434 507.09,586 507.09,616.4 			"/>
		</g>
		<polygon class="st8" points="447.86,840.6 480.76,859.6 480.76,874.8 447.86,855.8 		"/>
		<polygon class="st8" points="388.62,806.4 421.53,825.4 421.53,840.6 388.62,821.6 		"/>
		<polygon class="st8" points="329.38,772.2 362.29,791.2 362.29,806.4 329.38,787.4 		"/>
		<polygon class="st8" points="270.15,738 303.06,757 303.06,772.2 270.15,753.2 		"/>
		<polygon class="st8" points="493.93,814 507.09,821.6 507.09,859.6 493.93,852 		"/>
		<polygon class="st8" points="493.93,745.6 507.09,753.2 507.09,791.2 493.93,783.6 		"/>
		<polygon class="st8" points="493.93,677.2 507.09,684.8 507.09,722.8 493.93,715.2 		"/>
		<polygon class="st8" points="493.93,608.8 507.09,616.4 507.09,654.4 493.93,646.8 		"/>
		<polygon class="st8" points="243.82,669.6 256.98,677.2 256.98,715.2 243.82,707.6 		"/>
		<polygon class="st8" points="243.82,601.2 256.98,608.8 256.98,646.8 243.82,639.2 		"/>
		<polygon class="st8" points="243.82,532.8 256.98,540.4 256.98,578.4 243.82,570.8 		"/>
		<polygon class="st8" points="243.82,464.4 256.98,472 256.98,510 243.82,502.4 		"/>
		<line class="st8" x1="810.85" y1="343.1" x2="797.69" y2="335.5"/>
		<line class="st8" x1="770.36" y1="350.4" x2="757.2" y2="342.8"/>
	</g>
</g>
</svg>
