<?xml version="1.0" encoding="UTF-8"?><svg id="a" xmlns="http://www.w3.org/2000/svg" viewBox="0 0 512 512"><defs><style>.b{fill:#00a5e6;}</style></defs><path class="b" d="M142.94,436.92c-7.13,0-14.18-1.65-20.6-4.86-7.68-3.85-14.1-9.72-18.6-16.99-4.51-7.28-6.89-15.67-6.89-24.23V147.27c0-19.27,7.5-37.4,21.13-51.04,13.64-13.64,31.77-21.15,51.05-21.15h173.96c19.28,0,37.4,7.51,51.04,21.15,13.63,13.65,21.14,31.77,21.14,51.04v243.56c0,8.57-2.38,16.95-6.89,24.23-4.5,7.28-10.92,13.15-18.57,16.98-7.67,3.84-16.24,5.46-24.78,4.69-8.48-.76-16.61-3.87-23.47-9l-81.78-61.25c-2.1-1.57-5.21-1.57-7.3,0h0l-81.81,61.26c-6.88,5.14-15,8.25-23.52,9.01-1.37,.12-2.74,.18-4.1,.18Zm97.44-86.45h0Z"/></svg>